<?xml version="1.0" encoding="UTF-8"?>
<svg id="_レイヤー_2" data-name="レイヤー 2" xmlns="http://www.w3.org/2000/svg" viewBox="0 0 144.25 144.8">
  <defs>
    <style>
      .cls-1 {
        fill: #ed6e1b;
      }

      .cls-2 {
        fill: #e72a45;
      }

      .cls-3 {
        fill: #b51e58;
      }

      .cls-4 {
        fill: #c9245c;
      }

      .cls-5 {
        fill: #e72944;
      }

      .cls-6 {
        fill: #e31a53;
      }

      .cls-7 {
        fill: #f9e7b0;
      }

      .cls-8 {
        fill: #fefcfc;
      }

      .cls-9 {
        fill: #4b4197;
      }

      .cls-10 {
        fill: #e72c46;
      }

      .cls-11 {
        fill: #f2991e;
      }

      .cls-12 {
        fill: #7d328e;
      }

      .cls-13 {
        fill: #f3ba21;
      }

      .cls-14 {
        fill: #f5ce54;
      }

      .cls-15 {
        fill: #3d499c;
      }

      .cls-16 {
        fill: #7e348f;
      }

      .cls-17 {
        fill: #e31c54;
      }

      .cls-18 {
        fill: #b51d57;
      }

      .cls-19 {
        fill: #f6d982;
      }

      .cls-20 {
        fill: #c9255d;
      }

      .cls-21 {
        fill: #f2941c;
      }

      .cls-22 {
        fill: #e42559;
      }

      .cls-23 {
        fill: #f2941b;
      }

      .cls-24 {
        fill: #5c4297;
      }

      .cls-25 {
        fill: #ea582b;
      }

      .cls-26 {
        fill: #faf4f8;
      }

      .cls-27 {
        fill: #fdfbfc;
      }

      .cls-28 {
        fill: #3658a6;
      }
    </style>
  </defs>
  <g id="_レイヤー_1-2" data-name="レイヤー 1">
    <g>
      <path class="cls-9" d="M144.13,37.35c.32,3.8-.08,8.1,0,12-6.21-3.4-10.88-11.21-18-12.75-4.73-12.52-17.55-19.39-30.34-20.28-16.88-1.17-40.78-.73-57.4,1.53-3.64.5-8.03.38-11.82,2.05L1.65,29.85c.92-3.32,3.63-11.24,6.75-12.75C27.93,7.62,58.63,5.12,79.91,8.21c24.43,3.55,41.42,13.71,60.83,27.66,1.1.79,1.6,1.85,3.38,1.49Z"/>
      <path class="cls-15" d="M86.39.6c4.03,1.99,8.79,2.42,13.14,3.74,8.9,2.69,18.23,6.66,26.36,11.13,4.85,2.67,9.27,6.82,14.49,8.38,2.01,4.38,3.34,8.6,3.75,13.5-1.78.36-2.29-.7-3.38-1.49-19.42-13.95-36.4-24.11-60.83-27.66-21.28-3.09-51.98-.58-71.51,8.9,3.46-6.29,11.11-11.64,17.79-14.08C38.98-1.64,71.32.44,86.39.6Z"/>
      <path class="cls-7" d="M79.64,128.84c1.7,5.6.22,10.44-1.5,15.75-12.08.08-24.72.43-36.75,0-1.4-5.74-3.66-10.62-.75-16.5,9.1,2.14,28.81.91,39,.75Z"/>
      <path class="cls-28" d="M140.38,23.85c-5.22-1.55-9.64-5.71-14.49-8.38-8.13-4.48-17.46-8.45-26.36-11.13-4.35-1.31-9.11-1.75-13.14-3.74,22.95.26,42.78-1.18,53.99,23.25Z"/>
      <path class="cls-17" d="M143.38,110.84c-.99,7.24-1.62,8.24-5.25,14.25l-6.18-20.44-3.57-6.55c.45-4.9-.09-10.69,0-15.75,7.65,7.87,11.04,18.53,15,28.5Z"/>
      <path class="cls-24" d="M38.39,17.85c-6.19,2.87-13.43,6.87-17.25,12.75L.15,40.35c.2-4.25.35-6.35,1.5-10.5l24.92-9.95c3.79-1.67,8.18-1.56,11.82-2.05Z"/>
      <path class="cls-4" d="M144.13,90.59c-.1,7.09.21,13.24-.75,20.25-3.95-9.97-7.35-20.62-15-28.5.07-4.23.03-8.51,0-12.75,6.87,5.67,10.64,13.93,15.75,21Z"/>
      <path class="cls-1" d="M16.64,103.34c-2.48,2.92-4.64,6.46-6.13,9.99-1.75,4.12-2.21,8.71-4.36,12.51-1.82-2.9-4.84-8.69-4.5-12,.65-6.26,9.26-18.43,14.25-22.5.14,3.67.01,8.46.75,12Z"/>
      <path class="cls-10" d="M138.13,125.09c-2.78,4.6-4.07,6.19-8.25,9.75-.37-8.4-1.47-16.87-4.5-24.75,1.26-2.91,2.71-8.87,3-12l3.57,6.55,6.18,20.44Z"/>
      <path class="cls-25" d="M15.89,91.34c-4.99,4.07-13.6,16.24-14.25,22.5-2.43-4.87-1.43-11.1-1.5-16.5,4.6-6.31,9.69-12.28,15.75-17.25.05,3.73-.14,7.52,0,11.25Z"/>
      <path class="cls-23" d="M19.64,111.59c-.24,3.97-2.53,7.19-3.53,11.1s-1.34,8.18-1.72,12.15c-3.41-2.93-5.82-5.12-8.25-9,2.15-3.8,2.62-8.39,4.36-12.51,1.5-3.53,3.65-7.07,6.13-9.99.35,1.68,2.19,6.67,3,8.25Z"/>
      <path class="cls-18" d="M144.13,74.85c-.02,5.24.08,10.51,0,15.75-5.1-7.06-8.88-15.33-15.75-21-.03-3.74.09-7.51,0-11.25,6.05,4.74,10.63,10.87,15.75,16.5Z"/>
      <path class="cls-25" d="M129.88,134.84c-3.32,2.83-4.8,4.13-9,6,1.42-7.21.45-14.72-1.5-21.75,1.58-1.6,5.12-6.97,6-9,3.03,7.88,4.13,16.35,4.5,24.75Z"/>
      <path class="cls-12" d="M144.13,61.35c.05,4.49.02,9.01,0,13.5-5.12-5.63-9.7-11.76-15.75-16.5-.09-3.65.32-7.7,0-11.25l15.75,14.25Z"/>
      <path class="cls-13" d="M25.64,119.84l-2.16,7.21-.84,13.03c-4.24-2.09-4.44-1.98-8.25-5.25.39-3.97.75-8.3,1.72-12.15s3.29-7.13,3.53-11.1c.92,1.8,4.57,6.86,6,8.25Z"/>
      <path class="cls-5" d="M15.89,70.35c-.01,3.24-.05,6.51,0,9.75-6.06,4.97-11.15,10.94-15.75,17.25-.06-4.49.02-9.01,0-13.5,4.71-4.86,9.65-10.39,15.75-13.5Z"/>
      <path class="cls-24" d="M144.13,49.35c.08,3.99-.04,8.01,0,12l-15.75-14.25c-.24-2.67-1.31-8-2.25-10.5,7.12,1.54,11.79,9.35,18,12.75Z"/>
      <path class="cls-16" d="M21.14,30.6c-1.22,1.87-4.02,8.38-4.5,10.5L.15,50.1c.06-3.23-.15-6.52,0-9.75l21-9.75Z"/>
      <path class="cls-14" d="M32.39,124.34c-1.27,6.88-2.1,12.64,0,19.5-5.12-.91-5.72-1.76-9.75-3.75l.84-13.03,2.16-7.21c1.39,1.35,4.92,3.51,6.75,4.5Z"/>
      <path class="cls-6" d="M15.89,60.6c-.06,3.24.01,6.51,0,9.75-6.1,3.11-11.03,8.64-15.75,13.5-.02-3.99,0-8.01,0-12,4.84-4.1,9.59-9.09,15.75-11.25Z"/>
      <path class="cls-1" d="M120.88,140.84c-3.26,1.45-4.27,1.48-7.5,2.25l-.75-18.75c1.21-.68,5.73-4.22,6.75-5.25,1.95,7.03,2.92,14.53,1.5,21.75Z"/>
      <path class="cls-4" d="M15.89,50.85c-.14,3.23.06,6.51,0,9.75-6.16,2.15-10.91,7.15-15.75,11.25,0-3.74-.04-7.51,0-11.25l15.75-9.75Z"/>
      <path class="cls-3" d="M15.89,50.85L.15,60.6c.03-3.49-.06-7.01,0-10.5l16.5-9c-.66,2.88-.62,6.76-.75,9.75Z"/>
      <path class="cls-19" d="M40.64,128.09c-2.91,5.88-.65,10.76.75,16.5-3.52-.13-5.5-.13-9-.75-2.1-6.86-1.27-12.62,0-19.5,1.88,1.02,6.42,3.32,8.25,3.75Z"/>
      <path class="cls-21" d="M112.63,124.34l.75,18.75c-3.87.92-4.46,1.3-9,1.5-.14-5.97,1.58-11.29,0-17.25,2.25-.57,6.31-1.91,8.25-3Z"/>
      <path class="cls-13" d="M104.38,127.34c1.58,5.96-.14,11.28,0,17.25-2.98.13-6.01-.05-9,0,.92-5.14,2.46-10.59.75-15.75,2.19-.18,6.02-.94,8.25-1.5Z"/>
      <path class="cls-19" d="M87.89,128.84c1.47,5.34.5,10.49-.75,15.75-2.99.03-6.01-.02-9,0,1.72-5.31,3.2-10.15,1.5-15.75,2.74-.04,5.51.08,8.25,0Z"/>
      <path class="cls-14" d="M96.13,128.84c1.71,5.16.17,10.61-.75,15.75-2.74.05-5.51-.03-8.25,0,1.25-5.26,2.22-10.4.75-15.75,2.7-.08,5.6.21,8.25,0Z"/>
      <path class="cls-27" d="M126.13,36.6c.94,2.5,2.01,7.83,2.25,10.5.32,3.55-.09,7.6,0,11.25s-.03,7.51,0,11.25c.03,4.23.07,8.52,0,12.75-.09,5.06.45,10.85,0,15.75-.29,3.12-1.74,9.08-3,12-.88,2.03-4.42,7.4-6,9-1.01,1.03-5.54,4.57-6.75,5.25-1.93,1.09-6,2.43-8.25,3s-6.06,1.32-8.25,1.5c-2.65.21-5.55-.08-8.25,0s-5.51-.04-8.25,0c-10.19.16-29.89,1.39-39-.75-1.83-.43-6.37-2.73-8.25-3.75s-5.36-3.15-6.75-4.5-5.08-6.45-6-8.25c-.81-1.57-2.65-6.57-3-8.25-.74-3.54-.61-8.33-.75-12s.05-7.51,0-11.25c-.05-3.24-.01-6.51,0-9.75s-.06-6.51,0-9.75c.06-3.23-.14-6.52,0-9.75.13-2.99.09-6.87.75-9.75.48-2.12,3.28-8.63,4.5-10.5,3.82-5.88,11.06-9.88,17.25-12.75,16.62-2.27,40.52-2.7,57.4-1.53,12.79.89,25.61,7.75,30.34,20.28ZM27.89,36.6c-2.05,3.74-2.26,3.86-3,8.25-.67,3.97-.64,6.44-.75,10.5-.08,2.99.04,6.01,0,9-.04,3.24-.01,6.51,0,9.75s-.05,6.51,0,9.75c.05,3.48-.15,7.02,0,10.5.2,4.54.17,5.41,1.5,9.75,1.13,3.7,1.19,4.35,3.75,7.5s3.98,4.19,7.5,6c3.12,1.6,5.39,2.66,9,3,8.37.79,19.09.02,27.75,0,3.74,0,7.51.06,11.25,0,2.99-.05,6.02.13,9,0,3.16-.13,5.03-.03,8.25-.75,3.98-.89,4.53-1.7,7.5-3.75,4.53-3.12,4.05-2.83,6.75-7.5,2.45-4.23,3.31-5.06,3.75-10.5.36-4.51-.07-9.63,0-14.25.06-3.99,0-8.01,0-12,0-3.49.06-7.01,0-10.5s.17-7.03,0-10.5c-.24-5.1-.2-7.15-2.25-12-7.24-17.16-22.77-14.07-38.25-14.25-17.06-.2-42.56-4.76-51.74,12Z"/>
      <path class="cls-3" d="M96.88,38.1c-4.23,5.81,6.18,9.41,7.5,3.75l15.75,9c.17,3.47-.06,7.02,0,10.5-22.18-18.19-51.1-25.39-79.37-19.75-4.76.95-9.26,2.85-13.96,4.04-1.41.36-2.16,1.65-1.91-.79.74-4.39.95-4.51,3-8.25,22.81-7.67,46.45-6.2,68.99,1.5Z"/>
      <path class="cls-20" d="M120.13,61.35c.06,3.49,0,7.01,0,10.5-4.55-3.53-8.97-7.42-13.85-10.52-3.84-2.44-8.22-3.9-11.64-5.98-2.77-1.68-4.76-4.61-8.02-6.6-8.97-5.46-19.71-5.51-28.72-.15-.78-1.4-2.69-.67-3.9-.54-10.33,1.1-20.28,3.23-29.85,7.29.11-4.06.08-6.53.75-10.5-.25,2.44.5,1.15,1.91.79,4.7-1.2,9.2-3.09,13.96-4.04,28.27-5.64,57.19,1.56,79.37,19.75Z"/>
      <path class="cls-16" d="M79.64,24.6c13.44,3.09,25.93,8.19,38.25,14.25,2.05,4.85,2,6.9,2.25,12l-15.75-9c.93-4-4.8-7.46-7.5-3.75-22.54-7.7-46.19-9.17-68.99-1.5,9.18-16.76,34.68-12.2,51.74-12Z"/>
      <path class="cls-14" d="M75.89,100.34c7.69,5.34,15.23,10.75,18,20.25-2.98.13-6.01-.05-9,0-9.68-18.07-36.15-19.86-47.99-3-3.52-1.81-5-2.93-7.5-6,3.47-1.07,5.46-4.94,8.3-7.07,6.19-4.66,12.98-5.87,20.2-7.92,5.66,3.29,11.45,4.46,18,3.75Z"/>
      <path class="cls-19" d="M84.89,120.59c-3.74.06-7.51,0-11.25,0-.97-4.01-9.77-6.59-13.2-6.67-3.93-.09-13.31,2.26-14.55,6.67-3.61-.34-5.88-1.4-9-3,11.84-16.86,38.32-15.07,47.99,3Z"/>
      <path class="cls-13" d="M57.89,96.59c-7.22,2.05-14.01,3.27-20.2,7.92-2.84,2.14-4.83,6-8.3,7.07-2.56-3.15-2.62-3.79-3.75-7.5,6.97-6.81,14.61-11.46,24-14.25,1.29,1.72,6.23,5.58,8.25,6.75Z"/>
      <path class="cls-25" d="M120.13,98.09c-.44,5.44-1.3,6.27-3.75,10.5-5.14-8.69-10.79-17.8-19.5-23.25,1.15-2.3,2.69-5.74,3-8.25,8.62,5.17,14.2,13.27,20.25,21Z"/>
      <path class="cls-1" d="M116.38,108.59c-2.7,4.67-2.22,4.37-6.75,7.5-.86-5.01-4.2-9.53-6.88-13.75l-9.62-11c1.29-1.45,2.86-4.2,3.75-6,8.7,5.45,14.35,14.56,19.5,23.25Z"/>
      <path class="cls-17" d="M57.89,48.6c-2.8,1.66-8.14,6.27-9.75,9-8.55-.1-16.1,4.27-24,6.75.04-2.99-.08-6.01,0-9,9.57-4.06,19.52-6.18,29.85-7.29,1.2-.13,3.11-.86,3.9.54Z"/>
      <path class="cls-23" d="M109.63,116.09c-2.97,2.05-3.52,2.86-7.5,3.75-.48-4.17-2.89-7.68-4.94-11.18l-10.81-12.07c1.98-1.14,5.27-3.59,6.75-5.25l9.62,11c2.68,4.22,6.01,8.73,6.88,13.75Z"/>
      <path class="cls-17" d="M120.13,71.85c0,3.99.06,8.01,0,12l-9.4-8.98-10.85-7.52c-.55-3.85-3.9-8.34-5.25-12,3.43,2.07,7.8,3.53,11.64,5.98,4.88,3.1,9.3,6.99,13.85,10.52Z"/>
      <path class="cls-13" d="M102.13,119.84c-3.22.72-5.09.62-8.25.75-2.77-9.5-10.31-14.91-18-20.25,3.29-.36,7.62-2.09,10.5-3.75l10.81,12.07c2.05,3.5,4.46,7.01,4.94,11.18Z"/>
      <path class="cls-2" d="M99.88,67.35l10.85,7.52,9.4,8.98c-.07,4.62.36,9.73,0,14.25-6.05-7.72-11.63-15.82-20.25-21,.27-2.22.31-7.59,0-9.75Z"/>
      <path class="cls-23" d="M45.89,83.09c.25.63,3.36,6.24,3.75,6.75-9.38,2.79-17.03,7.44-24,14.25-1.33-4.34-1.3-5.21-1.5-9.75,6.56-4.82,13.46-9.98,21.75-11.25Z"/>
      <path class="cls-1" d="M44.39,74.85c.17,2.68.5,5.77,1.5,8.25-8.29,1.27-15.19,6.42-21.75,11.25-.15-3.48.05-7.02,0-10.5,6.09-4.14,12.84-7.87,20.25-9Z"/>
      <path class="cls-2" d="M48.14,57.6c-.51.85-3.63,8.29-3.75,9-7.32.25-13.83,4.43-20.25,7.5-.01-3.24-.04-6.51,0-9.75,7.89-2.48,15.45-6.85,24-6.75Z"/>
      <path class="cls-25" d="M44.39,66.6c-.33,1.94-.14,6.1,0,8.25-7.41,1.13-14.16,4.86-20.25,9-.05-3.24.01-6.51,0-9.75,6.41-3.07,12.93-7.25,20.25-7.5Z"/>
      <path class="cls-24" d="M117.88,38.85c-12.32-6.06-24.8-11.16-38.25-14.25,15.47.18,31-2.91,38.25,14.25Z"/>
      <path class="cls-7" d="M73.64,120.59c-8.66.02-19.38.79-27.75,0,1.23-4.41,10.62-6.76,14.55-6.67,3.43.08,12.23,2.66,13.2,6.67Z"/>
      <path class="cls-26" d="M104.38,41.85c-1.32,5.66-11.73,2.06-7.5-3.75,2.7-3.71,8.43-.25,7.5,3.75Z"/>
      <path class="cls-8" d="M94.63,55.35c1.35,3.65,4.7,8.14,5.25,12,.31,2.16.27,7.53,0,9.75-.31,2.51-1.85,5.94-3,8.25-.89,1.8-2.45,4.55-3.75,6-1.48,1.66-4.77,4.11-6.75,5.25-2.88,1.65-7.21,3.39-10.5,3.75-6.55.71-12.33-.46-18-3.75-2.02-1.17-6.95-5.03-8.25-6.75-.39-.51-3.49-6.11-3.75-6.75-1-2.48-1.33-5.57-1.5-8.25-.14-2.15-.33-6.31,0-8.25.12-.71,3.24-8.14,3.75-9,1.61-2.72,6.95-7.34,9.75-9,9.01-5.36,19.76-5.31,28.72.15,3.27,1.99,5.25,4.92,8.02,6.6ZM60.89,56.1c-3.31,2.31-5.13,4.59-6.75,8.25-1.77,3.99-1.61,4.32-1.5,8.25s-.09,4.47,1.5,8.25c5.51,13.08,21.35,15.69,31.5,6,1.54-1.47,2.58-2.01,3.81-4.1.65-1.1.43-2.01.69-2.65,1.16-2.83,2.37-4.68,2.25-8.25s-1.8-7.66-3.75-10.5c-6.42-9.35-18.37-11.8-27.75-5.25Z"/>
      <path class="cls-25" d="M92.39,71.85c.12,3.57-1.09,5.42-2.25,8.25-11.85-5.73-24.24-8.44-37.5-7.5-.11-3.93-.27-4.26,1.5-8.25,8.57-.4,17.08.46,25.32,2.8,4.55,1.29,8.42,3.61,12.93,4.7Z"/>
      <path class="cls-1" d="M90.14,80.09c-.26.64-.04,1.55-.69,2.65-1.23,2.09-2.27,2.63-3.81,4.1-10.17-4.17-20.35-6.9-31.5-6-1.59-3.78-1.39-4.16-1.5-8.25,13.26-.94,25.65,1.77,37.5,7.5Z"/>
      <path class="cls-10" d="M88.64,61.35c1.95,2.84,3.64,7.05,3.75,10.5-4.5-1.08-8.37-3.4-12.93-4.7-8.24-2.34-16.75-3.2-25.32-2.8,1.62-3.66,3.44-5.94,6.75-8.25,9.53-.02,18.76,2.42,27.75,5.25Z"/>
      <path class="cls-11" d="M85.64,86.84c-10.15,9.69-25.99,7.08-31.5-6,11.14-.9,21.32,1.83,31.5,6Z"/>
      <path class="cls-22" d="M88.64,61.35c-8.99-2.83-18.21-5.27-27.75-5.25,9.37-6.55,21.33-4.1,27.75,5.25Z"/>
    </g>
  </g>
</svg>