<?xml version="1.0" encoding="UTF-8"?>
<svg id="_レイヤー_2" data-name="レイヤー 2" xmlns="http://www.w3.org/2000/svg" viewBox="0 0 180 180">
  <defs>
    <style>
      .cls-1 {
        fill: none;
      }

      .cls-2 {
        fill: #c0569b;
      }

      .cls-3 {
        fill: #b55292;
      }
    </style>
  </defs>
  <g id="_レイヤー_1-2" data-name="レイヤー 1">
    <g>
      <path class="cls-2" d="M90,0L12.06,45v90l77.94,45,77.94-45V45L90,0ZM23.28,51.48L90,12.96l66.72,38.52v77.04l-66.72,38.52-66.72-38.52V51.48Z"/>
      <rect class="cls-1" width="180" height="180"/>
      <g>
        <path class="cls-3" d="M58.48,75.15c-3.28,0-5.94,2.66-5.94,5.94s2.66,5.94,5.94,5.94,5.94-2.66,5.94-5.94-2.66-5.94-5.94-5.94ZM58.48,83.07c-1.09,0-1.98-.89-1.98-1.98s.89-1.98,1.98-1.98,1.98.89,1.98,1.98-.89,1.98-1.98,1.98Z"/>
        <path class="cls-3" d="M66.4,90.99c-3.28,0-5.94,2.66-5.94,5.94s2.66,5.94,5.94,5.94,5.94-2.66,5.94-5.94-2.66-5.94-5.94-5.94ZM66.4,98.91c-1.09,0-1.98-.89-1.98-1.98s.89-1.98,1.98-1.98,1.98.89,1.98,1.98-.89,1.98-1.98,1.98Z"/>
        <path class="cls-3" d="M90.16,55.35c-3.28,0-5.94,2.66-5.94,5.94s2.66,5.94,5.94,5.94,5.94-2.66,5.94-5.94-2.66-5.94-5.94-5.94ZM90.16,63.27c-1.09,0-1.98-.89-1.98-1.98s.89-1.98,1.98-1.98,1.98.89,1.98,1.98-.89,1.98-1.98,1.98Z"/>
        <path class="cls-3" d="M121.84,73.17c-3.28,0-5.94,2.66-5.94,5.94s2.66,5.94,5.94,5.94,5.94-2.66,5.94-5.94c0-3.28-2.66-5.94-5.94-5.94ZM121.84,81.09c-1.09,0-1.98-.89-1.98-1.98s.89-1.98,1.98-1.98,1.98.89,1.98,1.98-.89,1.98-1.98,1.98Z"/>
        <path class="cls-3" d="M102.04,108.81c-3.28,0-5.94,2.66-5.94,5.94s2.66,5.94,5.94,5.94,5.94-2.66,5.94-5.94-2.66-5.94-5.94-5.94ZM102.04,116.73c-1.09,0-1.98-.89-1.98-1.98s.89-1.98,1.98-1.98,1.98.89,1.98,1.98-.89,1.98-1.98,1.98Z"/>
        <path class="cls-3" d="M76.3,106.83c-3.28,0-5.94,2.66-5.94,5.94s2.66,5.94,5.94,5.94,5.94-2.66,5.94-5.94-2.66-5.94-5.94-5.94ZM76.3,114.75c-1.09,0-1.98-.89-1.98-1.98s.89-1.98,1.98-1.98,1.98.89,1.98,1.98c0,1.09-.89,1.98-1.98,1.98Z"/>
        <path class="cls-3" d="M135.61,62.8s.01,0,.01-.01c-.03-.11-.06-.22-.11-.32-.01-.02-.02-.05-.03-.07-.05-.1-.1-.19-.17-.28-.01-.01-.02-.03-.03-.04-.06-.08-.12-.15-.19-.22-.02-.02-.04-.04-.06-.06-.07-.06-.14-.12-.22-.18-.01,0-.03-.01-.04-.02-.02-.01-.05-.03-.07-.04-.1-.06-.2-.11-.31-.15,0,0,0,0-.01,0l-43.56-15.84c-.44-.16-.92-.16-1.35,0l-43.56,15.84s0,0-.01,0c-.11.04-.21.09-.31.15-.02.01-.05.03-.07.04-.01,0-.03.01-.04.02-.08.05-.15.11-.22.18-.02.02-.04.04-.06.06-.07.07-.13.14-.19.22-.01.01-.02.03-.03.04-.06.09-.12.19-.17.28-.01.02-.02.04-.03.07-.05.1-.09.21-.11.32,0,0,0,0,0,.01-.03.11-.04.21-.05.32,0,.03-.13.06-.13.08,0,.02-.13.04-.13.06v51.47c0,.8.61,1.53,1.35,1.83l43.62,17.82s.07.01.09.02c.08.03.18.05.26.07.03,0,.07.02.11.02.11.02.23.03.35.03s.23-.01.34-.03c.03,0,.07-.01.1-.02.08-.02.16-.04.24-.07.02,0,.04-.01.06-.02l43.43-17.82c.74-.3,1.11-1.03,1.11-1.83v-51.47s.12-.04.12-.06c0-.03.06-.06.06-.08,0-.11,0-.22-.02-.32ZM87.93,129.62l-39.6-16.2v-47.2l39.6,16.2v47.2ZM90.16,78.95l-38.06-15.57,38.06-13.84,38.06,13.84-38.06,15.57ZM131.49,113.42l-39.6,16.2v-47.2l39.6-16.2v47.2Z"/>
      </g>
    </g>
  </g>
</svg>