<?xml version="1.0" encoding="UTF-8"?>
<svg id="_レイヤー_2" data-name="レイヤー 2" xmlns="http://www.w3.org/2000/svg" viewBox="0 0 180 180">
  <defs>
    <style>
      .cls-1 {
        fill: #d73071;
      }

      .cls-2 {
        fill: none;
      }

      .cls-3 {
        fill: #e72f77;
      }
    </style>
  </defs>
  <g id="_レイヤー_1-2" data-name="レイヤー 1">
    <g>
      <path class="cls-3" d="M90,0L12.06,45v90l77.94,45,77.94-45V45L90,0ZM23.28,51.48L90,12.96l66.72,38.52v77.04l-66.72,38.52-66.72-38.52V51.48Z"/>
      <rect class="cls-2" width="180" height="180"/>
      <path class="cls-1" d="M86.9,27.59c26.17-1.37,48.56,12.56,59.21,36.25,17.01,37.83-9.7,82.64-50.98,85.3-1.15.67-3.84,3.31-5.05,3.36-1.73.07-3.54-2.6-4.86-3.16-1.97-.83-6.42-1.05-8.78-1.52-37.48-7.51-58.08-49.96-42.51-84.68,9.72-21.69,29.28-34.31,52.97-35.55ZM98.19,145.81c11.3-2.15,21.56-6.26,30.15-14.02,23.74-21.45,26.51-56.49,5.72-81.08-22.44-26.54-63.12-26.78-86.8-1.73s-19.27,64.39,7.16,84.99c7.91,6.17,16.58,9.95,26.51,11.64l.2-.38c-3.28-3.13-5.38-9.59-1.33-12.97,2.72-2.27,7.37-2.01,9.94.35,5.56-3.23,12.82-.88,12.09,6.42-.25,2.49-2.23,4.81-3.62,6.77ZM83.45,134.03c-1.58.27-3.02,2.07-3.02,3.67,0,2.36,2.99,5.8,4.59,7.45.77.79,3.31,3.27,4.13,3.69,1.06.54,1.49-.09,2.27-.73,2.19-1.82,6.63-6.4,7.29-9.12.87-3.58-2.64-5.47-5.83-4.68-1.12.28-2.72,2.02-3.17,1.98s-1.49-1.17-1.98-1.47c-1.25-.74-2.84-1.03-4.27-.78Z"/>
      <path class="cls-2" d="M98.19,145.81c1.39-1.97,3.37-4.28,3.62-6.77.73-7.3-6.52-9.64-12.09-6.42-2.57-2.36-7.22-2.62-9.94-.35-4.05,3.38-1.95,9.84,1.33,12.97l-.2.38c-9.93-1.69-18.59-5.47-26.51-11.64-26.43-20.61-30.48-60.33-7.16-84.99s64.36-24.81,86.8,1.73c20.79,24.59,18.03,59.63-5.72,81.08-8.59,7.76-18.85,11.87-30.15,14.02ZM120.32,86.67c1.82-.29,3.63-1.12,5.34-1.82.9-.37,4.79-1.93,5.06-2.57-.12-4.75,1.14-10.75-1.73-14.86s-7.35-4.41-11.64-5.72c-.19-.05-.36-.12-.43-.33-.52-1.54,1.28-2.78,1.96-4.09,1.19-2.27,1.46-5.37,1.25-7.9-.81-9.91-13.63-13.27-18.96-4.66-1.94,3.12-1.96,9.69-.08,12.83.61,1.01,2.7,2.52,2.12,3.71-.28.57-2.51.9-3.25,1.14-3.41,1.1-6.29,2.02-8.73,4.82-.52.6-.91,1.31-1.43,1.91-2.03-5.52-8.59-5.94-13.33-7.85-.23-.85.67-1.22,1.11-1.79,2.88-3.74,3.27-7.7,2.17-12.27-2.42-10.03-18.84-9.25-19.88,2.57-.37,4.18.58,8.35,3.98,11.04,0,.67-4.47,1.68-5.29,1.95-4.22,1.42-7.24,2.72-8.68,7.34-.71,2.28-.81,9.04-.52,11.5.15,1.29,1.39,1.67,2.42,2.16,2.61,1.24,5.46,2.05,8.08,3.27l-.03.25-8.37,19.2c-1.6-.19-5.04-3.51-6.38-2.09-1.06,1.13-.29,2.3.84,2.96,2.38,1.38,9.62,4.68,12.18,5.37,1.44.39,2.41.31,3.19-1.09.81.77,2.84,1.88,3.2,2.92.16.45-.22.87-.24,1.37-.07,1.53.11,3.35,1.14,4.58.61.72,2.65,1.37,3.61,1.64.01,2.32,2.16,4.51,4.57,4.01,1.27,3.92,4.62,4.5,7.83,2.15.83-.61,1.53-1.7,2.21-2.18.53-.38,1.31-.43,1.72-1.14,1.22.97,2.38,3.39,4.18,2.08.82-.6-.22-2.32-.65-2.94-.69-.99-2.14-2.21-2.76-3.16s-.53-1.87-1.81-2.58c-.54-.3-1.54-.42-1.91-.76-.43-.38-.5-1.42-.87-1.99-.5-.77-1.72-1.68-2.57-2.01-.38-.15-1.05-.08-1.34-.38-.21-.21-.38-1.63-.79-2.26-.2-.31-1.22-1.38-1.51-1.54-.95-.53-3.16-.52-4.19-.22-1.15.34-3.64,3.17-4.29,3.15l-4.07-3.35c2.26-5.57,5.09-10.88,7.02-16.59,2.44-1,5.03-1.37,7.64-1.42l-1.56,2.92-3.13,7.56c.56,3.51,4.94,4.68,7.87,3.28,2.4-1.14,3.43-3.14,5.02-5.09.45-.21,4.18-.16,4.77,0,1.29.34,5.23,3.67,6.65,4.61.99.66,1.94.83,2.89,1.69,2.22,2.02,4.34,4.37,6.47,6.5,1.18,1.18,4.75,3.59,3.64,5.53-1.92,3.35-5.98-1.86-7.35-3.16-.3-.28-.67-.47-.96-.75-.87-.83-4.46-4.76-5.19-4.93-1.65-.38-2.39.79-1.58,2.16,2.75,3.24,6.65,5.97,9.36,9.15.75.88,1.82,1.87.67,2.97-.99.94-2.51.69-3.54-.09-2.21-1.71-5.7-5.5-7.82-7.63-.86-.86-2-3.1-3.33-1.05-1,1.54,1.11,2.41,2,3.32.29.3.46.67.75.97,1.78,1.82,4.77,4.17,6.21,6s-.49,3.21-2.37,2.37c-.6-.27-2.37-1.98-2.98-2.55-1.14-1.06-2.27-2.6-3.32-3.54-1.24-1.11-3.04-.45-2.84.92.13.86,3.61,4.12,4.44,4.92,1.37,1.3,2.76,3.1,4.77,3.24,1.85.13,3.43-.22,4.59-1.72.33-.42.83-1.68,1.05-1.81.54-.33,1.88-.2,2.53-.33,1.94-.41,3.27-2.64,3.4-4.52,2.31.17,4.53-1.65,4.73-3.95.09-1.04-.53-1.54-.32-2.51,1.95-1.04,2.92-3.15,4.82-4.23.3.99.87,1.72,1.96,1.87,1,.14,4.03-1.19,5.13-1.65,1.22-.51,10.02-4.48,10.27-4.99.5-1.03-.47-2.29-1.52-2.3-.91,0-5.4,2.5-5.63,2.3l-7.63-19.84Z"/>
      <path class="cls-2" d="M83.45,134.03c1.43-.24,3.03.04,4.27.78.5.29,1.56,1.42,1.98,1.47.45.05,2.05-1.7,3.17-1.98,3.19-.79,6.69,1.1,5.83,4.68-.66,2.72-5.1,7.3-7.29,9.12-.78.64-1.21,1.27-2.27.73-.83-.42-3.36-2.9-4.13-3.69-1.6-1.65-4.59-5.08-4.59-7.45,0-1.6,1.44-3.41,3.02-3.67Z"/>
      <path class="cls-1" d="M120.32,86.67l7.63,19.84c.22.2,4.72-2.3,5.63-2.3,1.05,0,2.03,1.26,1.52,2.3-.25.51-9.05,4.49-10.27,4.99-1.1.46-4.13,1.78-5.13,1.65-1.09-.15-1.66-.88-1.96-1.87-1.9,1.08-2.87,3.2-4.82,4.23-.21.97.41,1.48.32,2.51-.2,2.31-2.43,4.13-4.73,3.95-.13,1.88-1.46,4.11-3.4,4.52-.65.14-1.99,0-2.53.33-.22.13-.72,1.39-1.05,1.81-1.16,1.5-2.74,1.85-4.59,1.72-2.01-.15-3.4-1.94-4.77-3.24-.84-.79-4.32-4.06-4.44-4.92-.21-1.37,1.6-2.02,2.84-.92,1.06.94,2.19,2.49,3.32,3.54.61.57,2.38,2.28,2.98,2.55,1.88.84,3.84-.5,2.37-2.37s-4.43-4.18-6.21-6c-.29-.3-.46-.67-.75-.97-.89-.91-3-1.78-2-3.32,1.33-2.05,2.47.19,3.33,1.05,2.13,2.13,5.61,5.93,7.82,7.63,1.02.79,2.55,1.04,3.54.09,1.15-1.09.09-2.08-.67-2.97-2.71-3.18-6.61-5.91-9.36-9.15-.8-1.37-.07-2.53,1.58-2.16.73.17,4.32,4.09,5.19,4.93.3.29.67.47.96.75,1.37,1.3,5.43,6.52,7.35,3.16,1.11-1.94-2.46-4.35-3.64-5.53-2.13-2.13-4.25-4.48-6.47-6.5-.95-.86-1.9-1.03-2.89-1.69-1.42-.94-5.36-4.27-6.65-4.61-.59-.16-4.32-.2-4.77,0-1.6,1.95-2.62,3.95-5.02,5.09-2.93,1.39-7.31.22-7.87-3.28l3.13-7.56,1.56-2.92c-2.62.05-5.2.42-7.64,1.42-1.93,5.71-4.76,11.02-7.02,16.59l4.07,3.35c.65.02,3.14-2.81,4.29-3.15,1.03-.31,3.24-.31,4.19.22.29.16,1.31,1.23,1.51,1.54.4.64.58,2.05.79,2.26.29.3.96.23,1.34.38.85.34,2.07,1.24,2.57,2.01.37.57.44,1.61.87,1.99.38.33,1.37.46,1.91.76,1.28.71,1.16,1.59,1.81,2.58s2.07,2.17,2.76,3.16c.43.62,1.47,2.34.65,2.94-1.8,1.31-2.96-1.11-4.18-2.08-.41.71-1.18.76-1.72,1.14-.68.48-1.38,1.57-2.21,2.18-3.21,2.35-6.56,1.77-7.83-2.15-2.41.5-4.56-1.7-4.57-4.01-.96-.27-3-.92-3.61-1.64-1.03-1.23-1.22-3.05-1.14-4.58.02-.5.4-.92.24-1.37-.36-1.04-2.39-2.15-3.2-2.92-.78,1.4-1.75,1.48-3.19,1.09-2.56-.69-9.8-3.99-12.18-5.37-1.13-.65-1.9-1.83-.84-2.96,1.34-1.42,4.77,1.9,6.38,2.09l8.37-19.2.03-.25c-2.62-1.22-5.47-2.04-8.08-3.27-1.03-.49-2.27-.88-2.42-2.16-.29-2.46-.19-9.22.52-11.5,1.44-4.62,4.46-5.93,8.68-7.34.82-.27,5.3-1.28,5.29-1.95-3.4-2.69-4.35-6.86-3.98-11.04,1.04-11.81,17.46-12.6,19.88-2.57,1.1,4.57.71,8.52-2.17,12.27-.44.58-1.35.94-1.11,1.79,4.74,1.91,11.3,2.33,13.33,7.85.52-.6.9-1.31,1.43-1.91,2.43-2.79,5.32-3.72,8.73-4.82.74-.24,2.97-.56,3.25-1.14.59-1.19-1.51-2.69-2.12-3.71-1.89-3.14-1.86-9.7.08-12.83,5.34-8.61,18.15-5.25,18.96,4.66.21,2.54-.06,5.63-1.25,7.9-.69,1.31-2.48,2.54-1.96,4.09.07.21.24.28.43.33,4.28,1.31,8.88,1.78,11.64,5.72s1.61,10.11,1.73,14.86c-.27.64-4.16,2.2-5.06,2.57-1.7.7-3.51,1.53-5.34,1.82ZM108.64,43.03c-5.23.76-6.15,5.91-5.66,10.33.46,4.16,5.11,7.67,9.14,5.93,8.02-3.45,5.97-17.64-3.48-16.26ZM68.96,43.41c-7.49,1.1-8.06,13.05-1.36,15.95,8.52,3.68,14.15-11.88,4.7-15.57-1.13-.44-2.11-.56-3.34-.38ZM113.84,61.87c-.88.31-2.02.94-2.97.96-1.56.03-3.51-.66-5.05-.96,1.84,4.42,5.96,3.9,8.01,0ZM73.39,62.44c-2.44,1.2-5.03.86-7.44-.19,1.4,3.5,6.16,3.98,7.44.19ZM73.01,73.7l2.48-9.35c-1.16,1.39-1.93,3.11-4,3.25l1.52,6.1ZM123.51,82.28c.8-.45,4.31-1.28,4.54-2.04s.1-4.86.04-5.88c-.1-1.51-.41-3.29-1.05-4.67-1.58-3.41-7.54-3.88-10.72-5.11-.32,0-1.35,1.45-1.9,1.83-.84.6-1.71.72-2.52,1.29l1.65,14.67c-3.17,3.48-3.29,3.48-6.43,0,.2-2.68.53-5.83.72-8.59.15-2.08.38-4.17.6-6.24-1.71-.57-2.91-1.74-4.3-2.8-1.11.24-2.21.57-3.29.9-1.64.51-4.9,1.53-6.08,2.6-2.14,1.94-2.78,5.64-2.93,8.42-.12,2.3.59,5.5.18,7.63-.31,1.64-2.88,2.07-3.35.11-.43-1.82.02-5.3-.07-7.37-.11-2.32-.36-5.19-1.57-7.21-1.76-2.93-5.39-3.45-8.36-4.52-1.46,7.18-3.68,13.9-7.38,20.24-.51.19-1.23.36-1.68-.02-.28-.23-2.31-4.86-2.61-5.59-1.99-4.82-3.22-9.79-4.55-14.82-2.77,1.06-6.49,1.08-8.16,3.95-.41.7-1.26,2.65-1.36,3.41-.33,2.51.31,5.46-.14,8.01l4.52,1.99.23-6.54c.67-1.65,2.52-1.84,2.8.17.2,1.39-.28,7.41.19,8.01.59.75,2.28.58,3.18.83.74.21,5.92,2.57,6.38,2.97.37.32.41.94.7,1.03.35.12,6.1-1.23,7.23-1.32,2.74-.21,6.02.61,8.37.36,4.66-.5,4.9-2.72,10.8-1.03,3.86,1.11,7.51,3.02,11.52,3.66.95-.02.47-1.89,1.4-2.62.61-.48,5.64-2.93,6.49-3.19,1.05-.33,2.7-.1,3.49-.9.68-.69.22-6.49.37-7.83.13-1.16,1.02-1.79,2.17-1.4.24.08.89,1.22.89,1.4v6.2ZM67.48,72.55l.74-4.64-3.22-1.84c1.24,1.78,1.48,3.95,2.16,5.95.07.2.04.58.32.53ZM70.34,73.13c-.5-.06-.3,0-.38.28-.3,1-.47,2.48-1.34,3.07l1.35,3.9c.43.08.3-.03.42-.24.16-.29,1.24-2.59,1.25-2.74.02-.18-1.04-2.98-1.21-3.49-.08-.25-.09-.51-.09-.77ZM110.17,81.73c.16-.34.34-.78.44-1.02l-.78-6.18-.56,6.18.36,1.01h.54ZM125.08,107.83l-7.52-19.82-.34-.17-5.28,2.08,8.78,19.84,4.37-1.93ZM67.47,90.12c-1.54-.58-2.84-1.77-4.55-1.91l-8.41,19.63,4.58,2.1,8.39-19.83ZM111.01,112.97c.65.28,2.21-1.92,2.66-2.33.96-.89,2.04-1.65,3.02-2.52l-6.46-15.25c-1.32.08-1.78.81-3.3.63-4.72-.56-9.2-4.04-13.96-3.96-1.52.02-10,2.27-11.6,2.91-2.88,1.16-2.47,2.55-3.43,4.96-.34.87-1.73,3.51-1.78,4.13-.09,1.05,2.28.93,2.97.68,1.14-.4,3.08-2.49,3.81-3.49,1.1-1.52.54-2.31,2.78-2.52,1.23-.11,3.47-.35,4.61-.31,2.21.08,5.43,4.34,7.5,5.56,1.3.77,3.96,1.63,5.45,1.63.75,0,2.51-.55,2.59.85.07,1.27-1.4,1.32-2.31,1.53l7.47,7.5ZM72,112.09c-1,.21-4.4,3.46-4.76,4.4-.48,1.28-.03,3.09,1.62,2.77,1-.19,4.42-3.5,4.92-4.44.94-1.77.44-3.19-1.78-2.73ZM76.96,116.28c-.65.14-1.41,1.21-1.95,1.68-.94.81-1.87,1.36-2.62,2.53-1.26,1.98-.02,3.54,2.1,2.67.39-.16,3.65-3.07,3.95-3.49,1.12-1.59.66-3.86-1.47-3.38ZM76.47,126.13c.25.45,1.63.46,2.12.37.95-.18,4.4-2.78,4.76-3.63.31-.72.14-1.82-.56-2.21-1.37-.42-3.44,2.42-4.44,3.31-.54.48-2.37,1.29-1.88,2.16Z"/>
      <path class="cls-2" d="M123.19,82.28v-6.2c0-.18-.65-1.32-.89-1.4-1.15-.4-2.04.23-2.17,1.4-.15,1.34.31,7.14-.37,7.83-.79.8-2.44.57-3.49.9-.84.27-5.87,2.71-6.49,3.19-.94.73-.45,2.6-1.4,2.62-4.01-.64-7.66-2.56-11.52-3.66-5.89-1.69-6.14.53-10.8,1.03-2.35.25-5.64-.57-8.37-.36-1.13.09-6.88,1.44-7.23,1.32-.29-.1-.33-.71-.7-1.03-.46-.4-5.64-2.76-6.38-2.97-.89-.25-2.59-.08-3.18-.83-.47-.6,0-6.62-.19-8.01-.28-2.01-2.14-1.82-2.8-.17l-.23,6.54-4.52-1.99c.46-2.55-.18-5.5.14-8.01.1-.77.95-2.71,1.36-3.41,1.67-2.87,5.39-2.88,8.16-3.95,1.33,5.03,2.56,10,4.55,14.82.3.74,2.33,5.36,2.61,5.59.45.37,1.17.21,1.68.02,3.7-6.34,5.92-13.06,7.38-20.24,2.96,1.07,6.6,1.59,8.36,4.52,1.21,2.02,1.46,4.89,1.57,7.21.1,2.07-.36,5.55.07,7.37.46,1.95,3.03,1.52,3.35-.11.41-2.13-.31-5.32-.18-7.63.15-2.78.79-6.48,2.93-8.42,1.18-1.07,4.45-2.09,6.08-2.6,1.08-.34,2.18-.67,3.29-.9,1.39,1.06,2.58,2.36,4.29,2.93-.23,2.08-.35,4.03-.59,6.11-.31,2.74-1.11,5.83-.72,8.59.54,3.85,6.46,2.66,6.47-.94l-1.69-13.72c.81-.57,1.68-.69,2.52-1.29.55-.39,1.58-1.83,1.9-1.83,3.18,1.23,9.15,1.7,10.72,5.11.64,1.38.96,3.16,1.05,4.67.06,1.02.18,5.15-.04,5.88-.23.76-3.74,1.59-4.54,2.04ZM83.07,74.89c-.77-.72-2.42-.21-2.61,1.01-.18,1.15-.16,5.27,0,6.46.25,1.81,1.06,2.21,2.66,1.38.48-.73.5-6.53.38-7.66-.03-.3-.24-1-.44-1.19ZM98.72,74.71c-1.02-.42-2.32.34-2.43,1.37-.19,1.71-.24,7.16.01,8.77.19,1.23,1.53,1.76,2.57,1.06,1.09-.74.49-1.35.47-2.37-.04-2.18.4-5.11.2-7.07-.05-.5-.34-1.56-.81-1.76Z"/>
      <path class="cls-2" d="M111.01,112.97l-7.47-7.5c.91-.21,2.38-.25,2.31-1.53-.08-1.39-1.84-.85-2.59-.85-1.49,0-4.15-.86-5.45-1.63-2.07-1.22-5.29-5.49-7.5-5.56-1.14-.04-3.38.2-4.61.31-2.24.2-1.68,1-2.78,2.52-.73,1-2.67,3.08-3.81,3.49-.69.25-3.06.37-2.97-.68.05-.63,1.44-3.27,1.78-4.13.96-2.42.55-3.81,3.43-4.96,1.6-.64,10.08-2.89,11.6-2.91,4.77-.08,9.24,3.4,13.96,3.96,1.52.18,1.98-.55,3.3-.63l6.46,15.25c-.98.87-2.05,1.64-3.02,2.52-.45.41-2.01,2.61-2.66,2.33Z"/>
      <path class="cls-2" d="M108.64,43.03c9.45-1.38,11.5,12.81,3.48,16.26-4.03,1.73-8.68-1.78-9.14-5.93-.49-4.42.43-9.57,5.66-10.33Z"/>
      <path class="cls-2" d="M68.96,43.41c1.22-.18,2.2-.06,3.34.38,9.46,3.69,3.82,19.25-4.7,15.57-6.7-2.9-6.13-14.85,1.36-15.95Z"/>
      <polygon class="cls-2" points="125.08 107.83 120.71 109.76 111.93 89.92 117.21 87.84 117.56 88.01 125.08 107.83"/>
      <path class="cls-2" d="M67.47,90.12l-8.39,19.83-4.58-2.1,8.41-19.63c1.71.14,3.01,1.33,4.55,1.91Z"/>
      <path class="cls-2" d="M72,112.09c2.21-.47,2.72.96,1.78,2.73-.5.94-3.92,4.25-4.92,4.44-1.64.32-2.1-1.5-1.62-2.77.35-.94,3.76-4.19,4.76-4.4Z"/>
      <path class="cls-2" d="M76.96,116.28c2.13-.47,2.59,1.79,1.47,3.38-.3.43-3.56,3.33-3.95,3.49-2.12.87-3.36-.69-2.1-2.67.75-1.17,1.68-1.72,2.62-2.53.54-.47,1.3-1.54,1.95-1.68Z"/>
      <path class="cls-2" d="M76.47,126.13c-.48-.87,1.35-1.68,1.88-2.16,1-.89,3.08-3.73,4.44-3.31.7.39.87,1.49.56,2.21-.37.85-3.82,3.45-4.76,3.63-.49.09-1.88.08-2.12-.37Z"/>
      <path class="cls-2" d="M73.01,73.7l-1.52-6.1c2.07-.13,2.85-1.86,4-3.25l-2.48,9.35Z"/>
      <path class="cls-2" d="M113.84,61.87c-2.05,3.9-6.18,4.42-8.01,0,1.54.3,3.49.99,5.05.96.95-.02,2.08-.65,2.97-.96Z"/>
      <path class="cls-2" d="M70.34,73.13c0,.26,0,.52.09.77.17.52,1.22,3.31,1.21,3.49-.01.15-1.09,2.45-1.25,2.74-.12.22.01.32-.42.24l-1.35-3.9c.87-.59,1.04-2.07,1.34-3.07.08-.27-.12-.34.38-.28Z"/>
      <path class="cls-2" d="M73.39,62.44c-1.28,3.79-6.03,3.32-7.44-.19,2.41,1.05,5,1.39,7.44.19Z"/>
      <path class="cls-2" d="M67.48,72.55c-.28.04-.25-.33-.32-.53-.68-2-.92-4.18-2.16-5.95l3.22,1.84-.74,4.64Z"/>
      <path class="cls-1" d="M98.72,74.71c.47.2.76,1.26.81,1.76.2,1.96-.24,4.89-.2,7.07.02,1.02.63,1.63-.47,2.37-1.03.7-2.37.17-2.57-1.06-.25-1.61-.2-7.06-.01-8.77.11-1.03,1.41-1.79,2.43-1.37Z"/>
      <path class="cls-1" d="M83.07,74.89c.19.18.4.89.44,1.19.13,1.13.1,6.93-.38,7.66-1.6.84-2.42.43-2.66-1.38-.16-1.19-.19-5.31,0-6.46.19-1.22,1.84-1.73,2.61-1.01Z"/>
    </g>
  </g>
</svg>