<?xml version="1.0" encoding="UTF-8"?>
<svg id="_レイヤー_2" data-name="レイヤー 2" xmlns="http://www.w3.org/2000/svg" viewBox="0 0 180 180">
  <defs>
    <style>
      .cls-1 {
        fill: none;
      }

      .cls-2 {
        fill: #c9bc9c;
      }

      .cls-3 {
        fill: #a48b78;
      }
    </style>
  </defs>
  <g id="_レイヤー_1-2" data-name="レイヤー 1">
    <g>
      <path class="cls-3" d="M90,0L12.06,45v90l77.94,45,77.94-45V45L90,0ZM23.28,51.48L90,12.96l66.72,38.52v77.04l-66.72,38.52-66.72-38.52V51.48Z"/>
      <rect class="cls-1" width="180" height="180"/>
      <g>
        <path class="cls-2" d="M66.08,106.05c-5.17.94-5.45-1.22-.6-5.14,4.85-3.92,39.32-30.64,45.22-32.83s20.48-9.97,22.45-7.43-24.28,22.26-27.25,24.62c-2.97,2.35-39.81,20.79-39.81,20.79Z"/>
        <g>
          <path class="cls-3" d="M63.31,112.62c5.84,3.2,12.44,5.5,19.2,5.03,8.69-.6,22-7.01,29.12-11.95.39-.27,3.28-2.33,3.13-2.61l-.58-.14c-16.18,6.76-33.87,9.22-51.26,9.11l-.07.41-.82-.38-3.77.64c.91-.55,1.97-.77,3-.97,4.45-.85,9.86-.9,14.52-1.54,11.84-1.63,23.67-4.17,34.79-8.69-4.9-2.22-13.12-8.27-9.72-14.47,2.02-3.68,10.23-6.53,14.2-8.03,3.53-1.33,7.17-2.38,10.74-3.59l-1.35.88c-5.94,2.93-12.95,5.62-18.59,9.1-9.55,5.9,4.59,13.76,10.17,15.32,5.56,1.55,8.78.51,12.91-3.58,3.72-3.68,6.78-8.99,8.52-13.88.29-.02-.1.67.37.37.97-.6,1.87-2.02,2.92-2.62l-2.97.08c-5.17-.62-8.03-5.68-9.32-10.26-.32-1.11-.41-3.35-.71-4.12-.16-.39-.75-.52-.57-.8.37-.56,1.89-.64,2,.21l-1.27.46c2.05,5.11,4.3,12.55,10.51,13.69.53.1,2.42.27,2.83.07.46-.22,2-1.95,2.44-2.45,4.61-5.24,8.57-15.72,6.86-22.68-.23-.94-.85-2.46-2.03-1.97l-1.48,11.6c-.15.31-.67,2.58-.99,2.49,1.26-4.56.77-9.4,1.13-14.08l-.49-.04-6.01,1.74c4.77-1.75,10.21-6,11.29,1.85,1.8,13.02-5.53,23.25-15.14,31.13-.45,5.33.22,13.87-7.63,13.03-.32-.03-.79-.34-1.04-.28-.43.11-2.3,1.73-3.05,2.11-3.15,1.58-6.46,1.18-9.76.5-5.5,5.31-12.46,9.21-19.5,12.14-3,1.25-6.29,2.39-9.48,3-8.05,1.53-16.62-.95-23.07-5.86ZM129.24,99.59c1.31.47,3.52-.26,4.41-1.26.35-.39,1.03-2.16,1.21-2.74l1.22-6.67c-1.76,3.84-3.72,7.73-6.84,10.67Z"/>
          <path class="cls-3" d="M116.01,66.45c-.53.42-.7,2.11-1.82.92-1.03.6-2.41,1.2-3.34,1.91-.71.54-1.15,2.54-2.59,2.16l.04-.67-4.05,2.44.61,1.19.68-.14c.75.42-1.29,2.12-1.71,2.38-2.92,1.82-.67-1.09-1.23-2.4-.71.73-1.93,1.18-2.61,1.91-.76.81-.95,1.83-2.45,2.18-.15.04-.16-.32-.63-.07-1.51.79-2.95,2.42-4.57,3.11.08.24.38.04.56,0,.36-.09,1.11-.28,1.39-.43.42-.22,1.31-1.63,1.51-.39s-1.2,1.58-2.15,1.57c-.7,0-1.02-.36-1.63-.43l-6.2,4.32,1.32-.4.6.08c.19.23-.18.61-.11.84.09.31,1.45.76.16,1.68-.93.66-1.14.12-1.99,0-.67-.09-1.91.13-1.84-.68l-1.72,1.07c-.05.1,1,.22.76.93-.03.1-1.17,1.51-1.28,1.6-.84.69-1.06-.65-1.35-1.19-.51.7-1.76,1.16-2.27,1.77-.36.43-.27,2.49-1.73,2.45-.42-.02-.05-.77-.12-.98-.26-.04-3.92,2.7-4.27,3.06-.58.59-.48,2.03-1.6,1.25-4.05,2.53-7.8,6.47-11.85,8.9-.62.37-1.45.76-2.11,1.07-.19.09-.5.4-.6.12,2.6-1.48,4.74-3.61,6.8-5.74-.41-3.15-5.56-8.86-1.67-11.43s9.61-2.61,13.99-1.84c.76.13,2.22.78,2.84.42l15.71-11.63c-.46-2.48-4.47-6.56-1.45-8.67,4.74-3.3,12.44-2.95,17.81-1.74,9.46-4.94,19.57-8.42,29.72-11.57l-.45.42-9.3,4.17c.42.21.75-.02.9.66l-.95.87-.55-.44-1.04.5-.23-.45.74-.76c-2.13.94-4.2,2.02-6.3,3.03-.3.14-.81.17-.96.28-.12.09.06.39-.13.61-.31.38-1.16.8-1.61,1.05l.29-.9c-1.07.75-3.01,1.26-3.97,2.03ZM108.94,67.23c-4.13-.1-8.5-.17-12.52,1-1.22.35-3.72,1.1-4.31,2.23-.53,1.01,1.64,5.17,1.78,6.53l15.05-9.76ZM77.05,89.55c-4.2-.59-9.58-.57-13.55,1.08-3.23,1.35-3.13,2.13-2.25,5.24.55,1.93,1.46,3.8,1.6,5.84l14.2-12.16Z"/>
          <path class="cls-3" d="M54.46,107.88c.17.24-.27.33-.44.39-4.01,1.36-9.59-.14-13.78-.35-2.92-.15-8.54-.03-11.08,1.32-1.09.58-1.36,1.04-.69,2.14,1.04,1.68,3.86,3.98,5.28,5.74,1.75,2.18,2.65,3.71,3.48,6.39s1.42,7.75,3.36,9.55c1.35,1.25,3.37-1.74,4.07-2.76,3.68-5.36,5.23-12.67,11.26-16.37l1.36-.5c-3.3,2.07-5.4,5.97-6.99,9.44-1.6,3.5-3.82,10.96-7.49,12.65-3.55,1.63-5.65-2.63-6.59-5.33-1.69-4.86-1.24-7.25-4.78-11.7-1.92-2.4-7.8-6.77-5.1-10.03,2.54-3.07,10.64-2.69,14.32-2.19,4.54.62,9.21,2.62,13.81,1.62Z"/>
          <path class="cls-3" d="M137.71,58.78c.04.36-.46.62-.37,1.08.26,1.22,2.03.59,1.69-.35-.12-.33-.55-.46-.5-.77,1.89.4,2.58,2.89.87,3.91-2.91,1.75-4.85-2.78-1.7-3.87Z"/>
          <path class="cls-3" d="M137.4,57.81l-1.22,1.29c-.85,1.74-.47,3.66,1.42,4.44,2.85,1.19,5.32-2.19,3.57-4.64.24-.17.32.27.42.45,1.81,3.37-1.59,6.72-4.74,4.95-2.78-1.57-2.26-5.29.54-6.5Z"/>
          <path class="cls-3" d="M69.85,102.54c.43-.26,1.93-1.2,2.12-.32.16.74-1.18.96-1.61,1.36-.29.27-.16.77-.79,1.13-.38.22-2.06.65-2.36.32-.22-.23-.19-.36,0-.59.26-.32,2.17-1.61,2.64-1.9Z"/>
          <path class="cls-3" d="M86.18,92.26c.17.24.18.33.11.6-.26,1.08-4.2,3.99-4.87,2.68-.46-.89,2.04-1.47,2.6-1.79.76-.43,1.31-1.2,2.16-1.49Z"/>
          <path class="cls-3" d="M123.77,68.21c.34-.21,1.08-.56,1.34-.07.62,1.21-4.09,3.46-5.25,2.68-.26-.5,1.95-1.1,2.26-1.27.54-.29,1.12-1.01,1.66-1.35Z"/>
          <path class="cls-3" d="M99.67,83.68c-.16.04-.38-.06-.26-.34.2-.51.9-.63,1.21-1.11.29-.44,0-.89.12-1.09.09-.18,2.41-.88,2.53-.82.47.24.14,1.45-.14,1.6-.82.42-2.73,1.59-3.45,1.76Z"/>
          <path class="cls-3" d="M80.2,96.45c.14,1.9-2.4,3.96-4.09,2.74l-.09-.53.28-.42,1.45.18c.32-.13.27-.94.69-1.22.38-.25,1.33-.36,1.76-.76Z"/>
          <path class="cls-3" d="M118.76,71.29c.2,1.78-2.21,2.07-3.45,2.69-.62.31-1.15,1.13-1.9.89.05-.24.14-.45.29-.66.41-.6,2.61-1.84,3.4-2.27.53-.29,1.06-.56,1.66-.65Z"/>
          <path class="cls-3" d="M143.28,77.11c.17.26-.25.28-.43.35-3.48,1.31-6.87.42-7.8-3.52l1.63,2.11c1.71,1.65,4.44,1.47,6.6,1.07Z"/>
          <path class="cls-3" d="M112.32,75.33c.26.35.08.3-.15.51-.93.84-2.25,1.44-3.34,2.05l-.03.76c-.85.64-2.22.73-1.39-.6.89-1.42,3.57-1.7,4.91-2.72Z"/>
          <path class="cls-3" d="M124.82,63.99c-.18.55-1.04.55-1.51.81s-.78.8-1.28,1.04c-.98-1.25,1.77-3.56,2.64-2.54.13.15.2.5.14.69Z"/>
          <path class="cls-3" d="M112.61,71.36l-.33-.29c-.67-1.26,1.94-2.82,2.97-1.86-.14.57-.83.62-1.26.97-.35.28-.79,1.39-1.37,1.18Z"/>
          <path class="cls-3" d="M74.92,96.53l-.4.2c.17.81-.46.98-1.08,1.27-.57-.87-.02-2.37,1.02-2.56,1.34-.24,2.06,2.24.47,1.08Z"/>
          <path class="cls-3" d="M119.19,68.42c.32.09.13.28-.07.41-.37.25-1.23.82-1.58,1-.43.21-.95.08-1.34.31-.57.34-.76,1.63-1.84,1.03.97-1.7,3.03-2.34,4.83-2.75Z"/>
          <path class="cls-3" d="M91.57,85.68c-.45-.14-.65-.75-.28-1.1s.84-.31,1.19-.51c.28-.17,1.02-1.35,1.36-.91.55.71-1.27,2.83-2.26,2.52Z"/>
          <path class="cls-3" d="M104.29,78.1l.08,1.09c-.7-.12-.81-.51-.85-1.15-.09-1.46,1.55-1.78,2.53-.93.06.15-.58.92-.75,1-.35.19-.67-.28-1.01-.02Z"/>
          <path class="cls-3" d="M91.72,87.92c.18,1.03-2.64,3.43-3.29,3.19-.34-.13-.02-.34.02-.44.55-1.38.83-.91,1.76-1.42.54-.3.8-1.17,1.51-1.32Z"/>
          <path class="cls-3" d="M122.35,68.32c-2.42.45-2.06-.56-1.22-2.21.41-.22,1.16,1.81,1.22,2.21Z"/>
          <path class="cls-3" d="M96.88,84.34c.58.95-2.59,2.87-2.91,2.81-.25-.31-.08-.26.02-.43.27-.46,2.51-2.47,2.89-2.37Z"/>
          <path class="cls-3" d="M100.54,80.02c-.73-.59.17-3.19.96-2.76.27.14.42,1.26.28,1.48-.18.3-.64.16-.84.34-.23.21.07.82-.4.94Z"/>
          <path class="cls-3" d="M83.47,91.75c.27.35.05.3-.1.52-.37.55-1.35,1.52-1.95,1.76-.7.27-1.39.01-.71-.49.82-.61,1.94-1.15,2.77-1.79Z"/>
          <path class="cls-3" d="M79.19,93.74c-.57.64-.93,1.53-1.79,1.88-.44.18-1,.08-.67-.48.28-.47,1.84-1.82,2.45-1.39Z"/>
          <path class="cls-3" d="M110.13,74.37c-.23,1.06-1.12,2.11-2.24,2.27-.53-1.18,1.43-1.82,2.24-2.27Z"/>
          <path class="cls-3" d="M90.64,84.32c.26.3.06.28-.01.44-.38.82-1.33,2.03-2.34,1.61.28-1.14,1.38-1.58,2.35-2.05Z"/>
          <path class="cls-3" d="M68.69,99.88l.32.57-3.07,1.76c-.03-.26.39-.68.56-.88.62-.74,1.18-1.34,2.2-1.45Z"/>
          <path class="cls-3" d="M127.06,64.22c.28.3-.05.52-.25.73-.56.6-1.74,1.6-2.56,1.17-.48-.43,1.27-.91,1.47-1.01.49-.26.83-.67,1.34-.89Z"/>
          <path class="cls-3" d="M98.73,79.81c.4,1.07-.69,1.77-1.56,2.12-.44-.55,1.28-2.19,1.56-2.12Z"/>
          <path class="cls-3" d="M72.55,100.72l1.16-1.69.89-.2c.74.76-1.6,1.65-2.05,1.89Z"/>
          <path class="cls-3" d="M126.95,61.86c.11.03.23.18.32.26-.06.93-1.02.86-1.72.97-.21-.29-.14-.23.02-.43.27-.34.91-.94,1.38-.8Z"/>
          <path class="cls-1" d="M129.24,99.59c3.12-2.94,5.08-6.83,6.84-10.67l-1.22,6.67c-.18.58-.86,2.34-1.21,2.74-.89,1-3.1,1.73-4.41,1.26Z"/>
          <path class="cls-1" d="M77.05,89.55l-14.2,12.16c-.14-2.04-1.05-3.91-1.6-5.84-.88-3.11-.98-3.9,2.25-5.24,3.97-1.66,9.36-1.68,13.55-1.08Z"/>
          <path class="cls-1" d="M108.94,67.23l-15.05,9.76c-.14-1.36-2.3-5.52-1.78-6.53.59-1.13,3.09-1.88,4.31-2.23,4.02-1.17,8.39-1.09,12.52-1Z"/>
        </g>
      </g>
    </g>
  </g>
</svg>