<?xml version="1.0" encoding="UTF-8"?>
<svg id="_レイヤー_1" data-name="レイヤー 1" xmlns="http://www.w3.org/2000/svg" viewBox="0 0 1600 1000">
  <defs>
    <style>
      .cls-1 {
        fill: #86be7d;
      }

      .cls-2 {
        fill: #fff;
      }

      .cls-3 {
        fill: #f7f7f7;
      }
    </style>
  </defs>
  <path class="cls-1" d="M648.07,671.22c.57-.4.59-.98,1.14.1.29,10.69,6.74,8.77,8.05,2.43.65-1.02,4.26-18.35,4.54-20.86,6.31-14.67,8.37-12.97,5.56,3.16-.28,3.25-3.55,15.02,2.11,16.8.74,0,1.12-1.11,1.76-1.02,1.2,1.77,1.2,4.18,2.12,6.22,1.11,2.41,4.34,10.31,7.22,9.48,2.14-2.5,1.68-6.68,1.78-10.48.28-1.02-.83-2.51-.18-3.16,1.85.56,3.8,3.81,5.74,4.83,5.38,0-2.94-14.48-5.63-18.29-2.78-4.27-8.89-12.45-8.88-16.35-2.78-4.46,1.59-10.3,4.66-11.68l.09.09c.09,3.25-.47,6.03,1.19,8.82,2.41,3.9,10.37,10.41,8.99,2.89-.46-2.32-1.94-4.55-3.24-6.78-1.76-2.51-3.8-2.88-4.91-5.48,0-1.3.87-1.83,2.17-2.02,23.9,21.38,60.89,20.87,83.85-2.01,6.88-6.85,11.72-15.01,14.61-23.63,41.29,51.84,61.39,69.04,76.35,59.51,17.55-11.2,21.12-34.38,13.88-88.49-.55-4.45,1.97-10.11,6.42-11.22l105.28-37.67c10.86-2.86,15.98-15,8.02-23l-55.76-55.95c-4.17-4.18-10.2-5.77-15.77-4.3l-44.09,11.71c-12.16,3.23-23.27-7.93-20.01-20.07l11.86-44.05c1.59-5.66-.07-11.6-4.24-15.78l-57.42-57.62c-8.89-8.92-17.99-2.44-21.26,9.71l-38.13,105.05.28-.28c-1.21,4.36-7.06,6.67-11.52,6.1-54.08-7.24-78.76-5.43-90.02,12.46-9.49,15.01,8.75,34.81,59.71,76.28-8.82,2.86-17.09,7.76-24.06,14.71-23.05,22.97-24.04,59.97-2.56,83.95-.65,1.58-1.3,2.7-3.25,1.68-2.69-1.03-3.15-3.16-5.56-5.02-2.22-1.3-4.36-2.88-6.77-3.26-7.61-1.31-1.03,6.59,2.86,9,2.87,1.77,5.56,1.12,9,1.22.37,0,1.21.09,1.3.56-5.37,9.36-16.71,3.31-27.73-3.85-4.35-3.25-28.46-14.8-14.56-1.42,1.48,1.3,1.76,1.95,0,1.48-12.43-2.06-20.23,2.19-1.87,10.02,1.11-.18,2.88.65,4.08.75,1.21.47-.1,1.76,0,2.41,1.85,4.46,11.78,2.71,14.47,2.99l2.41-.55c4.27-.36,7.43-1.79,11.7-2.15,1.22.11,3.5,1.44-9.85,7.16-6.04,2.68-14.38,1.37-20.33,4.14-6.59,2.49-6.34,7.41,2.29,7.7,1.3,0,.83.84.37,1.3-2.23,1.85-2.45,2.39-3.24,3.7-14.41,24.16,3.2,17.05,11.42,11.46,2.01-1.36,2.81-2.91,3.54-3.47Z"/>
  <g>
    <path class="cls-2" d="M694.15,594.08c-3.63,3.62-9.8,3.24-13.88-.86-4.08-4.1-4.44-10.27-.81-13.89l8.28-8.25c3.63-3.62,9.8-3.24,13.88.86s4.44,10.27.81,13.89l-8.28,8.25Z"/>
    <path class="cls-2" d="M728.38,628.43c-3.63,3.62-9.8,3.24-13.88-.86s-4.44-10.27-.81-13.89l8.28-8.25c3.63-3.62,9.8-3.24,13.88.86s4.44,10.27.81,13.89l-8.28,8.25Z"/>
    <path class="cls-2" d="M749.66,600.86l-42.55-42.7c-1.59-1.83-1.59-4.79.01-6.38,1.6-1.59,5.36-3.07,8.33-2.83,22.9,2.43,41.11,20.7,43.46,43.61.11,2.85-1.27,6.72-2.86,8.32s-4.33,1.59-6.38-.01Z"/>
    <path class="cls-3" d="M750.51,512.36c12.13-6.81,22.85,8.49,36.81,8.5-.02,13.92,15.13,24.68,8.3,36.76-1.4,2.69-4.46,4.45-6.22,4.54-1.86,0-3.43-1.95-3.8-4.18-1.92-18.65-16.73-33.52-35.38-35.5-2.23-.37-4.17-1.96-4.17-3.81,0-1.86,1.86-4.82,4.56-6.21l-.09-.09"/>
  </g>
</svg>