<?xml version="1.0" encoding="UTF-8"?>
<svg id="_レイヤー_2" data-name="レイヤー 2" xmlns="http://www.w3.org/2000/svg" viewBox="0 0 506.54 634.94">
  <defs>
    <style>
      .cls-1, .cls-2 {
        fill: #040000;
      }

      .cls-2 {
        fill-rule: evenodd;
      }

      .cls-3 {
        fill: #231815;
      }

      .cls-4 {
        fill: none;
        stroke: #f7f8f8;
        stroke-width: 5px;
      }
    </style>
  </defs>
  <g id="_レイヤー_1-2" data-name="レイヤー 1">
    <g>
      <g>
        <g>
          <g>
            <path class="cls-3" d="M165.72,359.55c-.57.08-.86-.09-.88-.52-.01-.43.22-.64.7-.64,2.1-.02,5.26-.22,9.49-.6.86-.03,1.4.02,1.62.16.22.14.32.3.32.49,0,.35-.27.53-.81.53h-.44c-.44-.03-.8-.05-1.07-.05-.63,0-1.48.04-2.54.12.19.1.23.41.14.93-.34,1.65-1.02,3.1-2.05,4.38-1.02,1.3-2.42,2.32-4.22,3.08-.44.16-.75.11-.92-.16-.17-.27-.11-.5.17-.7,2.05-.78,3.52-1.95,4.39-3.52.61-1.05,1-2.08,1.17-3.1.06-.33.04-.61-.05-.84l-5.04.44ZM168.07,355.41c1.84,0,3.28-.09,4.32-.28,1.03-.19,1.66-.17,1.88.03.27.2.37.4.32.6-.03.15-.13.27-.27.34-.15.08-.52.11-1.13.11-1.28.07-2.89.18-4.81.32-.76.08-1.14-.08-1.16-.5-.01-.41.27-.62.86-.62Z"/>
            <path class="cls-3" d="M188.58,359.71c1.84-.09,3.05-.17,3.62-.22.57-.05.99.02,1.26.22.22.18.31.37.26.58-.07.3-.38.44-.94.41-.55-.03-1.39-.03-2.51,0-2.75.07-4.75.15-5.99.25-1.24.1-2.06.15-2.47.15-.51,0-.8-.18-.86-.54.01-.4.22-.61.61-.64.4-.03,1.03-.04,1.89-.04.6,0,2.3-.05,5.11-.16Z"/>
            <path class="cls-3" d="M198.59,356.6c3.61-.16,6.09-.39,7.46-.67.53-.08.95.03,1.28.33.23.23.29.5.16.81-.13.31-.27.63-.44.97-.79,2.19-1.98,4.06-3.56,5.61-1.58,1.55-3.6,2.63-6.07,3.25-.5.14-.8.03-.88-.32-.09-.36.1-.6.55-.73,2.4-.65,4.34-1.84,5.8-3.55,1.46-1.72,2.44-3.44,2.93-5.16-3.07.33-5.25.58-6.55.75-.95.09-1.43-.1-1.44-.57-.02-.47.24-.71.76-.73ZM206.94,354.57c1.31.23,2.19.71,2.66,1.44.16.4.04.64-.37.74-.27.05-.54-.1-.81-.44-.36-.48-.92-.88-1.68-1.21-.23-.08-.33-.2-.29-.36.04-.16.2-.21.48-.17ZM208.08,353.41c1.33,0,2.29.31,2.87.93.23.37.16.64-.23.81-.26.09-.55,0-.88-.3-.44-.41-1.06-.71-1.86-.89-.25-.05-.36-.15-.35-.31.01-.16.16-.24.44-.24Z"/>
            <path class="cls-3" d="M212.82,365.28c1.33-.51,2.35-1.31,3.06-2.4.86-1.32,1.38-2.9,1.56-4.74.05-.37.16-.63.35-.77.19-.14.42-.13.7.02.29.16.41.47.35.93-.05.62-.21,1.38-.49,2.28-.44,1.52-1.13,2.77-2.05,3.75-.81.82-1.8,1.49-2.99,2.01-.44.16-.74.08-.88-.26s-.01-.61.39-.81ZM227.85,357.47c-1.54,1.9-3.5,3.58-5.86,5.04-.39.28-.74.35-1.07.21-.33-.14-.5-.47-.51-1v-4.59c-.01-.68.22-1.01.71-.99.48.02.7.31.66.87-.16,1.42-.23,2.88-.21,4.36,1.82-1.07,3.61-2.64,5.37-4.71.42-.47.75-.53,1-.17.24.35.22.68-.09.98Z"/>
            <path class="cls-3" d="M237.9,359.4c-.25,1.58-.89,3.03-1.93,4.38-1,1.27-2.51,2.29-4.52,3.06-.41.12-.68.03-.81-.27-.13-.3.06-.55.59-.74,1.91-.74,3.31-1.88,4.18-3.45.6-1.05.97-2.08,1.14-3.1.08-.34.06-.61-.05-.81-1.02.03-1.74.08-2.17.12-.22,0-.34-.01-.35-.03-.84,1.19-1.86,2.23-3.05,3.13-.5.35-.86.41-1.09.19-.22-.22-.14-.51.25-.88,1.49-1.11,2.84-2.96,4.04-5.55.2-.43.48-.61.85-.53.37.08.52.31.45.69-.08.36-.42,1.03-1.02,2.01l.82-.03c1.74-.12,3.45-.23,5.15-.33.6-.02,1,.07,1.21.28.18.14.26.29.26.46,0,.34-.31.5-.93.47-.37-.04-.93-.06-1.68-.09-.78.02-1.23.03-1.35.03.1.13.1.46,0,.98ZM239.5,354.57c1.32.24,2.21.72,2.66,1.44.17.41.05.65-.37.74-.27.06-.54-.09-.81-.44-.36-.48-.92-.88-1.68-1.19-.22-.09-.32-.22-.28-.37.03-.15.19-.21.47-.17ZM240.64,353.41c1.34,0,2.3.32,2.87.95.23.37.16.64-.23.79-.26.1-.54,0-.86-.3-.46-.41-1.08-.7-1.87-.88-.24-.06-.36-.17-.35-.32s.16-.24.44-.24Z"/>
            <path class="cls-3" d="M254.36,359.71c1.84-.09,3.05-.17,3.62-.22.57-.05.99.02,1.26.22.22.18.31.37.26.58-.07.3-.38.44-.94.41-.55-.03-1.39-.03-2.51,0-2.75.07-4.75.15-5.99.25-1.24.1-2.06.15-2.47.15-.51,0-.8-.18-.86-.54.01-.4.22-.61.61-.64.4-.03,1.03-.04,1.89-.04.6,0,2.3-.05,5.11-.16Z"/>
            <path class="cls-3" d="M265.37,363.95c1-1.86,1.86-3.51,2.57-4.95.71-1.45,1.09-2.3,1.14-2.57.16-.72.5-1.09,1.02-1.09.51,0,.74.28.67.87-.07.31-.53,1.23-1.39,2.75-.86,1.52-1.81,3.13-2.86,4.85,1.42-.2,3.47-.69,6.13-1.49-.2-.34-.58-.84-1.16-1.51-.29-.33-.31-.6-.04-.81.26-.21.57-.14.94.21.92.97,1.6,1.81,2.05,2.52.44.71.7,1.4.77,2.07.08.61-.11.91-.58.91-.33,0-.56-.2-.7-.6-.24-.75-.5-1.37-.77-1.86l-.19.03c-4.55,1.4-7.17,2.1-7.84,2.1-.69.02-1.07-.19-1.16-.65-.08-.46.16-.69.74-.72.25,0,.47-.02.68-.07Z"/>
            <path class="cls-3" d="M292.35,355.02c.16,0,.29.06.41.17.11.11.17.25.17.41s-.06.3-.17.41c-.11.11-.25.17-.41.17h-12.7c-.17,0-.3-.06-.41-.17-.11-.11-.16-.25-.16-.41s.05-.3.16-.41c.11-.11.25-.17.41-.17h5.56c.1,0,.16-.05.16-.16v-1.32c0-.17.06-.31.18-.42.12-.11.26-.17.42-.17s.3.06.42.17c.12.11.18.25.18.42v1.32c0,.1.05.16.16.16h5.62ZM288.06,359.98c.07-.17.19-.29.36-.37.09-.05.19-.08.3-.08.07,0,.14.01.2.03.17.04.29.14.36.3.07.16.08.31.02.47-.56,1.27-1.31,2.38-2.24,3.35-.07.07-.07.14.02.2,1.51,1.15,3.37,1.96,5.58,2.42.15.03.24.12.3.26.01.05.02.1.02.14,0,.09-.03.18-.08.25-.11.18-.26.31-.45.39-.12.05-.24.08-.36.08-.07,0-.14,0-.2-.02-2.3-.54-4.2-1.44-5.72-2.7-.08-.06-.17-.06-.25,0-1.48,1.15-3.39,2.06-5.75,2.73-.07.02-.15.03-.22.03-.11,0-.22-.03-.33-.08-.19-.07-.33-.2-.44-.37-.05-.07-.08-.16-.08-.25,0-.05.01-.11.03-.17.05-.15.15-.23.3-.26,2.3-.55,4.17-1.37,5.61-2.46.08-.06.09-.13.02-.2-.86-.95-1.58-2.05-2.15-3.32-.06-.13-.06-.27,0-.41.07-.14.17-.23.32-.27.16-.05.31-.04.45.02.15.07.25.18.33.33.49,1.07,1.13,2.03,1.93,2.87.07.07.15.07.22,0,.8-.83,1.44-1.8,1.92-2.9ZM282.77,357.16c.11-.13.26-.23.45-.28.07-.03.15-.05.23-.05.09,0,.19.02.3.06.15.05.24.16.28.31.04.16.02.29-.08.41-.98,1.22-2.17,2.3-3.57,3.24-.12.08-.25.12-.39.12-.04,0-.08,0-.12-.02-.19-.03-.34-.12-.47-.26-.1-.12-.15-.27-.12-.44.02-.17.1-.29.23-.37,1.32-.8,2.4-1.71,3.26-2.73ZM288.36,357.67c-.12-.09-.19-.21-.19-.36s.06-.26.17-.36c.15-.1.31-.16.48-.16h.02c.17,0,.32.05.47.14,1.35.93,2.46,1.84,3.32,2.71.11.11.17.25.17.41,0,.2-.08.36-.23.48-.12.1-.26.16-.42.16h-.06c-.19-.02-.34-.1-.47-.23-.84-.89-1.93-1.82-3.26-2.79Z"/>
            <path class="cls-3" d="M298.16,358.61c.13.09.22.22.24.39.03.17-.01.32-.12.45-.09.14-.22.21-.38.23-.16.02-.31-.02-.44-.11-.56-.39-1.22-.77-1.96-1.12-.12-.06-.2-.16-.23-.3-.01-.04-.02-.08-.02-.12,0-.09.03-.18.08-.25.1-.13.23-.22.39-.26.06-.01.12-.02.19-.02.09,0,.19.02.28.05.78.35,1.44.71,1.98,1.06ZM298.02,361.88c.07-.13.18-.22.33-.25.15-.03.28,0,.39.11.12.11.21.25.25.42.01.06.02.12.02.17,0,.11-.03.22-.08.33-.62,1.32-1.33,2.69-2.13,4.1-.08.15-.21.23-.37.26-.17.03-.32,0-.45-.11-.15-.11-.23-.26-.26-.44v-.12c0-.13.04-.26.11-.37.75-1.23,1.48-2.59,2.21-4.1ZM298.92,354.45c.12.09.2.22.22.39.02.17-.02.31-.12.44-.09.12-.22.19-.37.21-.16.02-.3-.02-.42-.12-.55-.43-1.19-.82-1.92-1.18-.11-.07-.19-.17-.22-.3-.03-.13,0-.25.08-.37.09-.12.22-.2.37-.23.05-.02.11-.03.17-.03.09,0,.19.02.28.06.75.36,1.39.74,1.93,1.14ZM300.81,362.1v-1.11c0-.16.05-.29.16-.4s.23-.16.39-.16.29.05.39.16.16.24.16.4v1.12c0,.48-.02.91-.06,1.29-.04.38-.13.81-.26,1.27-.13.46-.34.9-.62,1.32-.28.42-.63.81-1.04,1.16-.12.1-.27.15-.43.13-.16-.02-.3-.09-.41-.21-.1-.09-.16-.21-.16-.34,0-.16.06-.29.19-.39.36-.3.66-.63.9-1,.24-.36.41-.74.52-1.13.11-.39.18-.74.22-1.06.04-.32.05-.67.05-1.07ZM299.62,359.25c-.02-.15.02-.27.12-.39.1-.11.23-.18.38-.19l1.12-.03c.1-.01.18-.06.23-.14.38-.68.76-1.43,1.14-2.26.01-.03,0-.06-.02-.09-.02-.03-.05-.05-.08-.05h-2.6c-.15,0-.27-.05-.37-.16s-.16-.24-.16-.39.05-.28.16-.38c.1-.1.23-.16.37-.16h3.51c.1,0,.16-.05.16-.16v-1.31c0-.17.06-.31.17-.42.11-.11.25-.17.42-.17s.31.06.43.17c.12.11.18.25.18.42v1.31c0,.1.05.16.16.16h3.97c.15,0,.27.05.38.16.11.1.16.23.16.38s-.05.28-.16.39c-.11.11-.24.16-.38.16h-4.74c-.1,0-.18.05-.23.14-.44.84-.85,1.58-1.23,2.21-.02.03-.02.06,0,.09.02.03.04.04.07.04.87-.03,2.2-.08,3.97-.16.03-.01.05-.03.06-.05.01-.03,0-.05-.02-.07-.24-.25-.5-.51-.78-.79-.1-.08-.15-.19-.13-.33.02-.13.08-.24.19-.31.12-.08.26-.12.42-.1.16.02.29.08.41.18.95.87,1.71,1.71,2.29,2.52.08.12.11.26.08.42-.03.16-.11.28-.25.36-.13.08-.28.11-.42.08s-.26-.11-.36-.25c-.12-.19-.26-.37-.41-.56-.06-.07-.14-.11-.23-.11-.82.04-2.07.11-3.76.19-1.68.09-2.88.15-3.6.19-.16,0-.29-.05-.41-.15-.12-.1-.19-.23-.21-.4ZM303.58,366.34v-5.27c0-.16.05-.29.16-.39.1-.1.23-.16.37-.16s.27.05.38.16c.11.1.16.23.16.39v5.27c0,.15-.05.27-.16.37-.11.1-.24.16-.38.16s-.27-.05-.37-.16-.16-.23-.16-.37ZM307.83,366.34h.47c.16,0,.27-.03.34-.08.08-.05.14-.2.17-.44.02-.17.04-.54.05-1.12,0-.1.04-.18.13-.22.09-.04.18-.04.27,0,.27.15.41.35.41.61,0,.58-.05,1.05-.14,1.42-.08.29-.23.5-.45.62-.17.12-.41.19-.73.19h-.76c-.39,0-.69-.1-.89-.3-.11-.11-.19-.26-.24-.45-.05-.19-.07-.51-.07-.97v-4.64c0-.15.05-.27.16-.38.11-.11.24-.16.39-.16s.28.05.39.16c.11.11.16.24.16.38v4.75c0,.17,0,.29.02.37.01.08.03.14.06.17.07.05.16.08.26.08Z"/>
            <path class="cls-3" d="M317.8,353.42c.24-.33.56-.5.95-.5s.71.16.97.48c.76.97,1.67,1.86,2.73,2.68,1.06.82,2.14,1.49,3.24,1.99.15.07.24.19.28.34,0,.04.02.08.02.12,0,.11-.04.22-.11.31-.1.16-.24.26-.42.31-.06.02-.13.03-.2.03-.1,0-.21-.03-.31-.08-1.16-.61-2.29-1.36-3.38-2.23-1.09-.87-1.97-1.76-2.65-2.65-.02-.03-.05-.05-.09-.05s-.07.02-.09.05c-.61.88-1.45,1.77-2.51,2.66-1.06.89-2.19,1.66-3.4,2.31-.09.04-.19.06-.3.06-.06,0-.12,0-.17-.02-.17-.05-.3-.15-.41-.28-.07-.09-.11-.19-.11-.3,0-.04,0-.08.02-.11.02-.15.1-.25.23-.33,1.15-.59,2.24-1.32,3.26-2.19,1.02-.87,1.84-1.75,2.46-2.64ZM312.94,362.03c-.16,0-.29-.05-.4-.16-.11-.11-.16-.24-.16-.4s.05-.29.16-.4c.11-.11.24-.16.4-.16h12c.16,0,.29.05.4.16.11.11.16.24.16.4s-.05.29-.16.4c-.11.11-.24.16-.4.16h-6.79c-.1,0-.18.05-.23.14-.68,1.49-1.22,2.61-1.64,3.37-.02.03-.02.06,0,.09.02.03.05.05.08.05,2.2-.07,4.22-.15,6.06-.23.03,0,.05-.01.06-.04,0-.03,0-.05-.02-.09-.5-.56-1.02-1.11-1.57-1.64-.1-.1-.15-.23-.13-.37.02-.14.09-.25.21-.32.12-.07.26-.11.41-.11.03,0,.06,0,.09.02.18.01.33.08.45.2,1.2,1.11,2.2,2.2,2.98,3.27.1.15.14.3.1.48-.04.17-.13.3-.29.4-.1.06-.21.09-.33.09-.04,0-.09,0-.14-.02-.17-.03-.3-.12-.41-.26-.06-.09-.17-.24-.33-.45-.05-.08-.12-.12-.22-.11-1.4.06-3.32.15-5.74.25-2.43.1-3.85.17-4.28.19-.17.01-.31-.04-.44-.15s-.21-.25-.23-.41c-.02-.1-.01-.2.03-.3.04-.09.11-.17.19-.23.09-.06.18-.09.29-.1.47-.01,1-.02,1.59-.03.1,0,.18-.05.23-.14.57-1.06,1.1-2.2,1.57-3.41.01-.03,0-.06-.02-.09-.02-.03-.05-.05-.09-.05h-3.46ZM315.62,357.87h6.53c.15,0,.27.05.38.16.11.11.16.24.16.39s-.05.28-.16.38c-.11.1-.24.16-.38.16h-6.53c-.15,0-.27-.05-.38-.16-.11-.1-.16-.23-.16-.38s.05-.28.16-.39c.11-.11.24-.16.38-.16Z"/>
          </g>
          <g>
            <g>
              <path class="cls-3" d="M172.01,391.65v-9.22c0-.23.08-.42.24-.58.16-.16.35-.24.58-.24s.46.07.66.21c.2.14.34.33.42.55l1.77,4.94c.33.97.58,1.7.75,2.18,0,.02.03.03.05.03s.04,0,.05-.03c.08-.24.19-.6.35-1.09.16-.49.28-.85.36-1.1l1.76-4.94c.09-.23.23-.41.43-.55s.42-.21.67-.21c.22,0,.41.08.57.24.16.16.24.35.24.58v9.19c0,.18-.06.33-.18.45-.12.12-.27.18-.45.18s-.32-.06-.45-.18c-.12-.12-.18-.27-.18-.45v-5.26c0-.61.06-1.64.17-3.11,0-.02,0-.03-.03-.03s-.03,0-.03.03l-.84,2.4-1.87,5.11c-.05.13-.13.24-.23.31-.11.08-.23.11-.37.11s-.26-.04-.37-.11c-.11-.08-.19-.18-.23-.31l-1.86-5.11-.84-2.4s-.02-.03-.04-.03-.03,0-.03.03c.1,1.67.16,2.71.16,3.11v5.29c0,.17-.06.31-.18.43s-.26.18-.43.18-.31-.06-.43-.18c-.12-.12-.18-.26-.18-.43Z"/>
              <path class="cls-3" d="M185.94,390.24c-.86,0-1.58-.3-2.16-.89-.58-.59-.86-1.4-.86-2.41,0-.49.08-.95.24-1.37.16-.42.37-.78.64-1.06.26-.28.57-.5.91-.65.34-.16.7-.23,1.06-.23.73,0,1.32.23,1.75.69.44.46.68,1.09.74,1.89v.08c0,.24-.09.45-.27.62-.21.19-.46.28-.75.28h-3.16s-.05.01-.07.03c-.02.02-.03.05-.03.08.05.64.27,1.15.65,1.53.38.38.86.57,1.44.57.44,0,.85-.1,1.24-.31.09-.05.19-.05.3-.03.11.03.19.09.24.18.05.1.07.2.04.31-.03.11-.09.19-.19.24-.56.3-1.15.44-1.76.44ZM183.98,386.34s.01.04.03.06c.02.02.04.03.07.03h3.16s.07,0,.09-.03c.02-.02.03-.04.03-.07h0c-.02-.61-.16-1.07-.43-1.39s-.65-.48-1.14-.48c-.45,0-.84.17-1.17.5-.42.41-.64.87-.64,1.37Z"/>
              <path class="cls-3" d="M192.37,390.24c-.86,0-1.58-.3-2.16-.89-.58-.59-.86-1.4-.86-2.41,0-.49.08-.95.24-1.37.16-.42.37-.78.64-1.06.26-.28.57-.5.91-.65.34-.16.7-.23,1.06-.23.73,0,1.32.23,1.75.69.44.46.68,1.09.74,1.89v.08c0,.24-.09.45-.27.62-.21.19-.46.28-.75.28h-3.16s-.05.01-.07.03c-.02.02-.03.05-.03.08.05.64.27,1.15.65,1.53.38.38.86.57,1.44.57.44,0,.85-.1,1.24-.31.09-.05.19-.05.3-.03.11.03.19.09.24.18.05.1.07.2.04.31-.03.11-.09.19-.19.24-.56.3-1.15.44-1.76.44ZM190.41,386.34s.01.04.03.06c.02.02.04.03.07.03h3.16s.07,0,.09-.03c.02-.02.03-.04.03-.07h0c-.02-.61-.16-1.07-.43-1.39s-.65-.48-1.14-.48c-.45,0-.84.17-1.17.5-.42.41-.64.87-.64,1.37Z"/>
              <path class="cls-3" d="M198.25,390.24c-.64,0-1.1-.18-1.38-.54-.28-.36-.41-.88-.41-1.55v-3.41c0-.06-.03-.09-.1-.09h-.44c-.11,0-.21-.04-.28-.12-.08-.08-.11-.18-.11-.29,0-.11.04-.2.11-.28.08-.08.17-.13.28-.14l.49-.03c.07,0,.1-.03.1-.1l.09-1.23c0-.12.06-.23.15-.31s.2-.13.33-.13c.12,0,.22.04.31.13.09.09.13.19.13.31v1.21c0,.08.04.11.11.11h1.16c.12,0,.22.04.31.12.08.08.12.19.12.31s-.04.22-.12.31c-.08.08-.19.12-.31.12h-1.16c-.08,0-.11.04-.11.11v3.41c0,.41.07.71.22.92.15.2.4.31.75.31.09,0,.2-.02.33-.05.11-.02.21,0,.31.04.1.05.16.13.18.23.02.04.02.08.02.11,0,.07-.02.14-.06.2-.05.1-.14.16-.25.19-.3.08-.55.11-.77.11Z"/>
              <path class="cls-3" d="M202.49,390.24c-1.28,0-1.92-.82-1.92-2.46v-3.46c0-.15.05-.28.15-.38.1-.1.23-.15.37-.15s.27.05.37.15c.1.1.15.23.15.38v3.34c0,.59.09,1.02.28,1.28.19.26.49.39.91.39.3,0,.58-.07.83-.22s.52-.4.81-.75c.05-.06.07-.13.07-.2v-3.82c0-.15.05-.28.15-.38.1-.1.23-.15.37-.15s.27.05.37.15c.1.1.15.23.15.38v5.33c0,.12-.04.23-.12.31-.08.09-.19.13-.32.13-.12,0-.23-.04-.32-.13-.09-.08-.14-.19-.16-.32l-.03-.53s-.02-.01-.03-.01-.02,0-.03.01c-.32.37-.64.65-.97.84s-.7.28-1.11.28Z"/>
              <path class="cls-3" d="M207.7,392.26v-8.01c0-.12.04-.22.13-.31.09-.08.19-.13.31-.13s.23.04.32.12c.09.08.15.18.16.31l.03.27s0,.01.02.01.02,0,.03-.01c.72-.58,1.38-.87,2-.87.8,0,1.42.29,1.86.87.44.58.66,1.36.66,2.36,0,.52-.08,1-.23,1.44-.15.44-.35.79-.61,1.08-.25.28-.54.5-.87.66-.33.15-.68.23-1.04.23-.54,0-1.09-.22-1.66-.66-.02-.02-.03-.02-.06-.01-.02,0-.03.02-.02.05v1s.01,1.61.01,1.61c0,.14-.05.27-.15.37-.1.1-.23.15-.37.15s-.27-.05-.37-.15c-.11-.1-.16-.23-.16-.37ZM210.31,389.39c.53,0,.96-.22,1.3-.68s.51-1.06.51-1.83c0-1.56-.55-2.34-1.66-2.34-.48,0-1.02.26-1.61.79-.06.05-.09.12-.09.19v3.09c0,.08.03.14.09.18.49.39.98.59,1.46.59Z"/>
            </g>
            <g>
              <path class="cls-3" d="M218.53,383.87c.08.02.13.06.17.13.02.05.03.09.03.14,0,.03,0,.05-.02.08-.02.07-.06.12-.13.16-.07.03-.14.04-.21.03-.07-.02-.14-.02-.21-.02-.4,0-.6.28-.6.84v.6c0,.05.03.08.08.08h.53c.08,0,.14.03.2.08.06.06.09.13.09.21s-.03.15-.09.21c-.06.06-.13.08-.2.08h-.53c-.05,0-.08.03-.08.08v3.23c0,.1-.04.19-.11.26-.07.07-.16.1-.25.1s-.18-.03-.25-.1c-.07-.07-.1-.15-.1-.26v-3.25s-.02-.06-.06-.06h-.25c-.08,0-.14-.03-.19-.08-.05-.05-.08-.12-.08-.19,0-.07.03-.13.08-.19.05-.06.11-.09.19-.09l.25-.02s.06-.02.06-.06v-.62c0-.44.1-.79.31-1.03.2-.24.51-.37.92-.37.15,0,.3.02.45.05Z"/>
              <path class="cls-3" d="M218.94,388.02c0-.34.05-.65.16-.94.11-.29.25-.52.44-.71.18-.19.39-.33.63-.43.24-.1.49-.15.75-.15s.51.05.75.15c.24.1.45.25.63.43.18.19.32.42.43.71.11.29.16.6.16.94s-.05.66-.16.94c-.11.28-.25.52-.43.7-.18.19-.39.33-.63.43s-.49.15-.75.15-.51-.05-.75-.15-.45-.24-.63-.43c-.18-.19-.33-.42-.44-.7-.11-.28-.16-.6-.16-.94ZM222.15,388.02c0-.48-.11-.88-.34-1.18-.23-.31-.53-.46-.89-.46s-.66.15-.89.45c-.22.3-.34.7-.34,1.19s.11.88.34,1.18c.22.3.52.45.89.45s.67-.15.89-.45c.23-.3.34-.69.34-1.18Z"/>
              <path class="cls-3" d="M224,389.78v-3.6c0-.08.03-.15.09-.21.06-.06.13-.08.21-.08s.15.03.21.08c.06.06.09.13.1.21l.04.47s0,0,.01,0,.01,0,.02,0c.15-.28.33-.49.54-.64s.43-.23.66-.23h.15c.09.01.16.06.21.14.03.06.05.11.05.18,0,.03,0,.06,0,.09-.02.08-.07.14-.14.18-.07.04-.14.06-.21.06h-.13c-.19,0-.38.07-.57.22-.19.15-.35.37-.48.68-.02.05-.03.1-.03.15v2.29c0,.1-.03.19-.1.26-.07.07-.15.1-.25.1s-.18-.03-.25-.1c-.07-.07-.11-.15-.11-.26Z"/>
            </g>
            <g>
              <path class="cls-3" d="M229.6,391.47v-8.48c0-.09-.05-.14-.14-.14h-2.45c-.16,0-.29-.05-.39-.16s-.16-.24-.16-.39.05-.28.16-.39.24-.17.39-.17h6.5c.15,0,.28.06.39.17.11.11.17.24.17.39s-.06.28-.17.39c-.11.11-.24.16-.39.16h-2.46c-.09,0-.14.05-.14.14v8.48c0,.18-.06.34-.19.47-.13.13-.28.19-.46.19s-.33-.06-.46-.19c-.13-.13-.19-.29-.19-.47Z"/>
              <path class="cls-3" d="M242.36,392.13c-.2,0-.39-.06-.55-.19-.17-.12-.28-.28-.35-.48l-.75-2.38c-.03-.08-.09-.12-.18-.12h-3.51c-.09,0-.15.04-.18.12l-.76,2.41c-.06.19-.18.35-.33.46-.16.12-.34.17-.54.17-.17,0-.29-.06-.39-.19-.06-.09-.08-.18-.08-.28,0-.05,0-.11.03-.17l3.07-9.06c.07-.2.2-.37.37-.5.17-.13.37-.19.59-.19s.42.06.59.19c.18.13.3.3.37.5l3.07,9.03c.02.06.03.12.03.18,0,.09-.03.18-.08.28-.1.14-.24.21-.42.21ZM237.25,387.78s0,.07.01.1c.02.03.05.04.08.04h2.86s.06-.01.08-.04c.02-.03.02-.06.01-.1l-.46-1.45c-.29-.87-.63-2.03-1.04-3.49,0-.02-.02-.03-.04-.03s-.03,0-.03.03c-.26.96-.6,2.12-1.04,3.49l-.46,1.45Z"/>
              <path class="cls-3" d="M245.7,392.13c-.33,0-.62-.12-.85-.35-.24-.24-.35-.52-.35-.85v-7.98c0-.33.12-.62.35-.85.23-.24.52-.35.85-.35h1.9c1.12,0,1.99.21,2.62.62s.95,1.05.95,1.93c0,.52-.13.98-.4,1.39-.27.41-.63.69-1.09.85-.03,0-.04.03-.04.05s.01.03.04.03c.64.13,1.14.4,1.52.82.38.42.57.97.57,1.65,0,.99-.36,1.74-1.07,2.26-.71.52-1.67.78-2.87.78h-2.12ZM245.83,386.03c0,.09.05.14.14.14h1.4c1.67,0,2.5-.57,2.5-1.72,0-.59-.2-1.02-.6-1.28-.4-.26-1.02-.39-1.85-.39h-1.45c-.09,0-.14.05-.14.14v3.11ZM245.83,390.94c0,.09.05.14.14.14h1.67c1.89,0,2.84-.68,2.84-2.03,0-1.25-.95-1.87-2.84-1.87h-1.67c-.09,0-.14.05-.14.14v3.62Z"/>
              <path class="cls-3" d="M255,392.13c-.33,0-.62-.12-.85-.35-.24-.24-.35-.52-.35-.85v-8.52c0-.18.06-.34.19-.47.13-.13.29-.19.47-.19s.34.06.47.19c.13.13.19.29.19.47v8.46c0,.09.05.14.14.14h3.83c.16,0,.29.05.39.17.11.11.16.24.16.39s-.05.28-.16.39c-.11.11-.24.17-.39.17h-4.09Z"/>
              <path class="cls-3" d="M262.67,392.13c-.33,0-.62-.12-.85-.35-.24-.24-.35-.52-.35-.85v-7.98c0-.33.12-.62.35-.85.23-.24.52-.35.85-.35h4.25c.15,0,.28.06.39.17s.17.24.17.39-.06.28-.17.39-.24.16-.39.16h-3.98c-.09,0-.14.05-.14.14v2.99c0,.09.05.14.14.14h3.24c.16,0,.29.05.39.16.11.11.16.24.16.39s-.05.29-.16.4c-.11.11-.24.17-.39.17h-3.24c-.09,0-.14.05-.14.14v3.5c0,.09.05.14.14.14h4.12c.16,0,.29.05.4.17.11.11.17.24.17.39s-.06.28-.17.39-.24.17-.4.17h-4.38Z"/>
              <path class="cls-3" d="M277.05,392.31c-1.39,0-2.52-.48-3.38-1.44-.86-.96-1.29-2.27-1.29-3.93s.44-2.96,1.33-3.94c.89-.97,2.03-1.46,3.42-1.46,1,0,1.86.3,2.6.91.12.1.18.24.18.41,0,.15-.05.28-.14.39-.09.11-.21.17-.37.18-.15,0-.28-.03-.39-.12-.53-.42-1.14-.62-1.84-.62-1.05,0-1.89.38-2.51,1.13-.62.76-.93,1.78-.93,3.07s.3,2.37.9,3.13,1.45,1.13,2.56,1.13c.74,0,1.33-.17,1.77-.51.07-.05.11-.13.11-.23v-2.43c0-.09-.05-.14-.14-.14h-1.52c-.15,0-.27-.05-.38-.16-.11-.11-.16-.24-.16-.39s.05-.28.16-.39c.11-.11.23-.16.38-.16h1.66c.33,0,.62.12.85.35.23.24.35.52.35.85v1.95c0,.42-.08.8-.24,1.14s-.4.6-.73.77c-.67.33-1.42.5-2.25.5Z"/>
              <path class="cls-3" d="M289.16,392.13c-.2,0-.39-.06-.55-.19-.17-.12-.28-.28-.35-.48l-.75-2.38c-.03-.08-.09-.12-.18-.12h-3.51c-.09,0-.15.04-.18.12l-.76,2.41c-.06.19-.18.35-.33.46-.16.12-.34.17-.54.17-.17,0-.29-.06-.39-.19-.06-.09-.08-.18-.08-.28,0-.05,0-.11.03-.17l3.07-9.06c.07-.2.2-.37.37-.5.17-.13.37-.19.59-.19s.42.06.59.19c.18.13.3.3.37.5l3.07,9.03c.02.06.03.12.03.18,0,.09-.03.18-.08.28-.1.14-.24.21-.42.21ZM284.06,387.78s0,.07.01.1c.02.03.05.04.08.04h2.86s.06-.01.08-.04c.02-.03.02-.06.01-.1l-.46-1.45c-.29-.87-.63-2.03-1.04-3.49,0-.02-.02-.03-.04-.03s-.03,0-.03.03c-.26.96-.6,2.12-1.04,3.49l-.46,1.45Z"/>
              <path class="cls-3" d="M291.3,391.54v-8.99c0-.22.08-.41.23-.57.16-.16.35-.24.57-.24s.44.07.64.21.33.32.41.54l1.73,4.81c.32.95.57,1.66.73,2.13,0,.02.03.03.05.03s.04,0,.05-.03c.07-.23.19-.58.34-1.06.15-.47.27-.83.35-1.07l1.72-4.81c.08-.22.22-.4.42-.54s.41-.21.65-.21c.21,0,.4.08.55.24.16.16.23.35.23.57v8.96c0,.17-.06.32-.18.44-.12.12-.27.18-.44.18s-.32-.06-.44-.18c-.12-.12-.18-.27-.18-.44v-5.13c0-.59.06-1.6.17-3.03,0-.02,0-.03-.03-.03s-.03,0-.03.03l-.82,2.34-1.83,4.98c-.05.13-.12.23-.23.3-.11.07-.23.11-.36.11s-.25-.04-.36-.11c-.11-.07-.18-.18-.23-.3l-1.81-4.98-.82-2.34s-.02-.03-.04-.03-.03,0-.03.03c.1,1.63.15,2.64.15,3.03v5.16c0,.17-.06.31-.17.42-.12.12-.25.17-.42.17s-.3-.06-.42-.17c-.12-.12-.18-.26-.18-.42Z"/>
              <path class="cls-3" d="M304,392.13c-.33,0-.62-.12-.85-.35-.24-.24-.35-.52-.35-.85v-7.98c0-.33.12-.62.35-.85.23-.24.52-.35.85-.35h4.25c.15,0,.28.06.39.17s.17.24.17.39-.06.28-.17.39-.24.16-.39.16h-3.98c-.09,0-.14.05-.14.14v2.99c0,.09.05.14.14.14h3.24c.16,0,.29.05.39.16.11.11.16.24.16.39s-.05.29-.16.4c-.11.11-.24.17-.39.17h-3.24c-.09,0-.14.05-.14.14v3.5c0,.09.05.14.14.14h4.12c.16,0,.29.05.4.17.11.11.17.24.17.39s-.06.28-.17.39-.24.17-.4.17h-4.38Z"/>
              <path class="cls-3" d="M314.02,392.31c-1.22,0-2.29-.38-3.21-1.13-.13-.11-.19-.26-.19-.44,0-.16.05-.29.16-.41.11-.12.24-.18.39-.19h.03c.16,0,.29.05.4.14.76.59,1.57.88,2.43.88.67,0,1.21-.15,1.6-.46.39-.31.59-.72.59-1.24,0-.2-.03-.39-.1-.55-.06-.17-.14-.3-.22-.42-.08-.11-.21-.22-.39-.34s-.33-.2-.45-.26c-.12-.06-.31-.15-.57-.27l-1.49-.65c-1.41-.6-2.12-1.48-2.12-2.66,0-.8.31-1.46.93-1.98s1.4-.78,2.35-.78,1.88.31,2.66.93c.11.09.17.22.18.37,0,.16-.03.29-.12.4-.09.12-.21.18-.37.19-.15,0-.29-.03-.41-.11-.58-.42-1.23-.64-1.94-.64-.59,0-1.06.14-1.42.42-.36.28-.53.65-.53,1.12,0,.19.04.37.11.53.07.16.16.3.25.4.09.11.23.21.42.32.18.11.33.19.45.25.12.06.28.13.49.22l1.49.64c.68.29,1.21.65,1.58,1.07.37.42.55.98.55,1.69,0,.85-.32,1.55-.97,2.11-.65.56-1.5.84-2.56.84Z"/>
            </g>
          </g>
          <g>
            <path class="cls-3" d="M218.98,434.57v-27.15c0-.55.19-1.02.58-1.41s.86-.58,1.41-.58,1.02.19,1.41.58c.39.39.58.86.58,1.41v13.6s.02.04.06.04.08-.01.1-.04l11.52-13.89c.94-1.13,2.14-1.7,3.61-1.7.44,0,.76.2.95.6.19.4.15.78-.12,1.14l-8.08,9.78c-.17.22-.18.46-.04.7l9.95,17c.11.22.17.44.17.64s-.06.42-.17.64c-.25.41-.62.62-1.12.62-.66,0-1.29-.17-1.89-.52-.59-.34-1.07-.81-1.43-1.39l-7.96-13.93c-.06-.11-.13-.17-.23-.17s-.19.03-.27.08l-4.81,5.76c-.17.19-.25.43-.25.7v7.46c0,.55-.19,1.02-.58,1.41s-.86.58-1.41.58-1.02-.19-1.41-.58c-.39-.39-.58-.86-.58-1.41Z"/>
            <path class="cls-3" d="M255.34,437.09c-3.15,0-5.78-1.08-7.88-3.25-2.1-2.17-3.15-5.11-3.15-8.81,0-1.8.29-3.47.87-5.02.58-1.55,1.35-2.83,2.32-3.86.97-1.02,2.08-1.82,3.34-2.38,1.26-.57,2.55-.85,3.88-.85,2.68,0,4.82.84,6.4,2.51,1.59,1.67,2.49,3.97,2.72,6.9v.29c0,.88-.33,1.64-.99,2.28-.77.69-1.69,1.04-2.74,1.04h-11.52c-.11,0-.2.04-.27.12-.07.08-.1.18-.1.29.19,2.35.98,4.21,2.36,5.6,1.38,1.38,3.14,2.07,5.26,2.07,1.6,0,3.11-.37,4.52-1.12.33-.17.69-.2,1.08-.1.39.1.68.31.87.64.19.36.24.74.15,1.14-.1.4-.33.7-.68.89-2.05,1.08-4.19,1.62-6.43,1.62ZM248.17,422.83c0,.08.04.15.12.21.06.08.14.12.25.12h11.52c.14,0,.24-.03.31-.1s.1-.16.1-.27v-.04c-.06-2.18-.58-3.85-1.58-5.02s-2.38-1.74-4.15-1.74c-1.63,0-3.05.61-4.27,1.82-1.55,1.49-2.32,3.16-2.32,5.02Z"/>
            <path class="cls-3" d="M273.58,436.27c-.55.55-1.22.83-2.01.83s-1.45-.27-1.99-.81-.81-1.24-.81-2.09.27-1.58.81-2.16c.54-.58,1.19-.87,1.97-.87s1.44.29,1.99.87c.55.58.83,1.3.83,2.16s-.26,1.55-.79,2.07Z"/>
          </g>
        </g>
        <path class="cls-2" d="M441.72,142.15c-8.8,5.37-22.73,12.28-39.61,18.41v-9.97c0-15.34.74-30.68,2.2-45.26,13.2,8.43,27.13,17.64,34.46,21.47,5.14,3.08,7.35,6.15,7.35,9.21,0,2.3-1.47,4.61-4.4,6.15ZM169.68,248.8c-4.4,0-10.26,7.67-17.59,19.17-8.8,13.06-80.67,145.78-84.32,152.69-2.94,4.61-6.6,14.58-11.75,14.58-12.46,0-17.59-52.17-17.59-79.03,0-101.28,46.19-147.31,46.19-223.27,0-43.74-30.06-88.24-64.52-107.43-5.14-3.07-9.53-4.61-11.73-4.61-1.47,0-5.87.78-5.87,5.38,0,2.3,2.2,5.37,5.87,9.2,21.99,23.03,28.59,59.08,28.59,89.78,0,81.33-31.53,136.57-31.53,240.16,0,46.04,8.8,165.73,61.59,227.88,5.15,5.37,12.47,11.51,19.8,11.51,5.13,0,21.26-3.84,21.26-22.25,0-19.95-19.79-46.8-19.79-81.33s37.39-155,76.25-227.88c5.13-9.97,8.8-16.88,8.8-19.95s-1.47-4.61-3.67-4.61ZM501.11,128.34c-7.33-12.28-31.53-9.97-48.41-15.34-17.58-5.37-33.72-13.82-46.19-21.49,1.47-13.82,3.67-24.55,5.13-29.92,1.47-6.15,2.94-11.52,2.94-16.12,0-29.14-49.86-42.96-83.6-42.96-9.53,0-16.86,1.54-16.86,6.13,0,2.3,2.2,6.15,8.8,9.21,10.26,4.61,30.79,21.49,34.46,49.11,2.2,14.58,4.4,60.62,5.86,108.19-31.53,10.74-63.05,18.41-79.18,18.41-13.95,0-40.34-4.61-54.26-9.97q-4.4-1.53-6.6-1.53c-2.2,0-3.67,1.53-3.67,3.07,0,2.3,1.47,4.61,3.67,6.91,16.86,16.1,63.05,36.83,92.38,36.83,11.73,0,29.33-3.84,49.14-10.75l1.47,77.51c0,26.08,0,63.67-3.67,91.31-11,84.4-42.53,189.51-129.78,233.25-7.33,3.84-8.8,5.37-8.8,7.67s1.47,4.61,5.13,4.61c2.2,0,4.4-.76,6.6-1.54,21.27-7.67,93.12-46.03,131.99-116.62,39.61-71.36,41.81-138.11,41.81-159.59,0-39.91-2.94-105.89-4.4-151.17,37.39-15.34,73.32-33.75,84.32-42.2,8.79-6.89,14.66-10.74,14.66-23.01,0-3.84-.73-7.67-2.93-9.97Z"/>
      </g>
      <g>
        <g>
          <g>
            <path class="cls-4" d="M165.72,359.55c-.57.08-.86-.09-.88-.52-.01-.43.22-.64.7-.64,2.1-.02,5.26-.22,9.49-.6.86-.03,1.4.02,1.62.16.22.14.32.3.32.49,0,.35-.27.53-.81.53h-.44c-.44-.03-.8-.05-1.07-.05-.63,0-1.48.04-2.54.12.19.1.23.41.14.93-.34,1.65-1.02,3.1-2.05,4.38-1.02,1.3-2.42,2.32-4.22,3.08-.44.16-.75.11-.92-.16-.17-.27-.11-.5.17-.7,2.05-.78,3.52-1.95,4.39-3.52.61-1.05,1-2.08,1.17-3.1.06-.33.04-.61-.05-.84l-5.04.44ZM168.07,355.41c1.84,0,3.28-.09,4.32-.28,1.03-.19,1.66-.17,1.88.03.27.2.37.4.32.6-.03.15-.13.27-.27.34-.15.08-.52.11-1.13.11-1.28.07-2.89.18-4.81.32-.76.08-1.14-.08-1.16-.5-.01-.41.27-.62.86-.62Z"/>
            <path class="cls-4" d="M188.58,359.71c1.84-.09,3.05-.17,3.62-.22.57-.05.99.02,1.26.22.22.18.31.37.26.58-.07.3-.38.44-.94.41-.55-.03-1.39-.03-2.51,0-2.75.07-4.75.15-5.99.25-1.24.1-2.06.15-2.47.15-.51,0-.8-.18-.86-.54.01-.4.22-.61.61-.64.4-.03,1.03-.04,1.89-.04.6,0,2.3-.05,5.11-.16Z"/>
            <path class="cls-4" d="M198.59,356.6c3.61-.16,6.09-.39,7.46-.67.53-.08.95.03,1.28.33.23.23.29.5.16.81-.13.31-.27.63-.44.97-.79,2.19-1.98,4.06-3.56,5.61-1.58,1.55-3.6,2.63-6.07,3.25-.5.14-.8.03-.88-.32-.09-.36.1-.6.55-.73,2.4-.65,4.34-1.84,5.8-3.55,1.46-1.72,2.44-3.44,2.93-5.16-3.07.33-5.25.58-6.55.75-.95.09-1.43-.1-1.44-.57-.02-.47.24-.71.76-.73ZM206.94,354.57c1.31.23,2.19.71,2.66,1.44.16.4.04.64-.37.74-.27.05-.54-.1-.81-.44-.36-.48-.92-.88-1.68-1.21-.23-.08-.33-.2-.29-.36.04-.16.2-.21.48-.17ZM208.08,353.41c1.33,0,2.29.31,2.87.93.23.37.16.64-.23.81-.26.09-.55,0-.88-.3-.44-.41-1.06-.71-1.86-.89-.25-.05-.36-.15-.35-.31.01-.16.16-.24.44-.24Z"/>
            <path class="cls-4" d="M212.82,365.28c1.33-.51,2.35-1.31,3.06-2.4.86-1.32,1.38-2.9,1.56-4.74.05-.37.16-.63.35-.77.19-.14.42-.13.7.02.29.16.41.47.35.93-.05.62-.21,1.38-.49,2.28-.44,1.52-1.13,2.77-2.05,3.75-.81.82-1.8,1.49-2.99,2.01-.44.16-.74.08-.88-.26s-.01-.61.39-.81ZM227.85,357.47c-1.54,1.9-3.5,3.58-5.86,5.04-.39.28-.74.35-1.07.21-.33-.14-.5-.47-.51-1v-4.59c-.01-.68.22-1.01.71-.99.48.02.7.31.66.87-.16,1.42-.23,2.88-.21,4.36,1.82-1.07,3.61-2.64,5.37-4.71.42-.47.75-.53,1-.17.24.35.22.68-.09.98Z"/>
            <path class="cls-4" d="M237.9,359.4c-.25,1.58-.89,3.03-1.93,4.38-1,1.27-2.51,2.29-4.52,3.06-.41.12-.68.03-.81-.27-.13-.3.06-.55.59-.74,1.91-.74,3.31-1.88,4.18-3.45.6-1.05.97-2.08,1.14-3.1.08-.34.06-.61-.05-.81-1.02.03-1.74.08-2.17.12-.22,0-.34-.01-.35-.03-.84,1.19-1.86,2.23-3.05,3.13-.5.35-.86.41-1.09.19-.22-.22-.14-.51.25-.88,1.49-1.11,2.84-2.96,4.04-5.55.2-.43.48-.61.85-.53.37.08.52.31.45.69-.08.36-.42,1.03-1.02,2.01l.82-.03c1.74-.12,3.45-.23,5.15-.33.6-.02,1,.07,1.21.28.18.14.26.29.26.46,0,.34-.31.5-.93.47-.37-.04-.93-.06-1.68-.09-.78.02-1.23.03-1.35.03.1.13.1.46,0,.98ZM239.5,354.57c1.32.24,2.21.72,2.66,1.44.17.41.05.65-.37.74-.27.06-.54-.09-.81-.44-.36-.48-.92-.88-1.68-1.19-.22-.09-.32-.22-.28-.37.03-.15.19-.21.47-.17ZM240.64,353.41c1.34,0,2.3.32,2.87.95.23.37.16.64-.23.79-.26.1-.54,0-.86-.3-.46-.41-1.08-.7-1.87-.88-.24-.06-.36-.17-.35-.32s.16-.24.44-.24Z"/>
            <path class="cls-4" d="M254.36,359.71c1.84-.09,3.05-.17,3.62-.22.57-.05.99.02,1.26.22.22.18.31.37.26.58-.07.3-.38.44-.94.41-.55-.03-1.39-.03-2.51,0-2.75.07-4.75.15-5.99.25-1.24.1-2.06.15-2.47.15-.51,0-.8-.18-.86-.54.01-.4.22-.61.61-.64.4-.03,1.03-.04,1.89-.04.6,0,2.3-.05,5.11-.16Z"/>
            <path class="cls-4" d="M265.37,363.95c1-1.86,1.86-3.51,2.57-4.95.71-1.45,1.09-2.3,1.14-2.57.16-.72.5-1.09,1.02-1.09.51,0,.74.28.67.87-.07.31-.53,1.23-1.39,2.75-.86,1.52-1.81,3.13-2.86,4.85,1.42-.2,3.47-.69,6.13-1.49-.2-.34-.58-.84-1.16-1.51-.29-.33-.31-.6-.04-.81.26-.21.57-.14.94.21.92.97,1.6,1.81,2.05,2.52.44.71.7,1.4.77,2.07.08.61-.11.91-.58.91-.33,0-.56-.2-.7-.6-.24-.75-.5-1.37-.77-1.86l-.19.03c-4.55,1.4-7.17,2.1-7.84,2.1-.69.02-1.07-.19-1.16-.65-.08-.46.16-.69.74-.72.25,0,.47-.02.68-.07Z"/>
            <path class="cls-4" d="M292.35,355.02c.16,0,.29.06.41.17.11.11.17.25.17.41s-.06.3-.17.41c-.11.11-.25.17-.41.17h-12.7c-.17,0-.3-.06-.41-.17-.11-.11-.16-.25-.16-.41s.05-.3.16-.41c.11-.11.25-.17.41-.17h5.56c.1,0,.16-.05.16-.16v-1.32c0-.17.06-.31.18-.42.12-.11.26-.17.42-.17s.3.06.42.17c.12.11.18.25.18.42v1.32c0,.1.05.16.16.16h5.62ZM288.06,359.98c.07-.17.19-.29.36-.37.09-.05.19-.08.3-.08.07,0,.14.01.2.03.17.04.29.14.36.3.07.16.08.31.02.47-.56,1.27-1.31,2.38-2.24,3.35-.07.07-.07.14.02.2,1.51,1.15,3.37,1.96,5.58,2.42.15.03.24.12.3.26.01.05.02.1.02.14,0,.09-.03.18-.08.25-.11.18-.26.31-.45.39-.12.05-.24.08-.36.08-.07,0-.14,0-.2-.02-2.3-.54-4.2-1.44-5.72-2.7-.08-.06-.17-.06-.25,0-1.48,1.15-3.39,2.06-5.75,2.73-.07.02-.15.03-.22.03-.11,0-.22-.03-.33-.08-.19-.07-.33-.2-.44-.37-.05-.07-.08-.16-.08-.25,0-.05.01-.11.03-.17.05-.15.15-.23.3-.26,2.3-.55,4.17-1.37,5.61-2.46.08-.06.09-.13.02-.2-.86-.95-1.58-2.05-2.15-3.32-.06-.13-.06-.27,0-.41.07-.14.17-.23.32-.27.16-.05.31-.04.45.02.15.07.25.18.33.33.49,1.07,1.13,2.03,1.93,2.87.07.07.15.07.22,0,.8-.83,1.44-1.8,1.92-2.9ZM282.77,357.16c.11-.13.26-.23.45-.28.07-.03.15-.05.23-.05.09,0,.19.02.3.06.15.05.24.16.28.31.04.16.02.29-.08.41-.98,1.22-2.17,2.3-3.57,3.24-.12.08-.25.12-.39.12-.04,0-.08,0-.12-.02-.19-.03-.34-.12-.47-.26-.1-.12-.15-.27-.12-.44.02-.17.1-.29.23-.37,1.32-.8,2.4-1.71,3.26-2.73ZM288.36,357.67c-.12-.09-.19-.21-.19-.36s.06-.26.17-.36c.15-.1.31-.16.48-.16h.02c.17,0,.32.05.47.14,1.35.93,2.46,1.84,3.32,2.71.11.11.17.25.17.41,0,.2-.08.36-.23.48-.12.1-.26.16-.42.16h-.06c-.19-.02-.34-.1-.47-.23-.84-.89-1.93-1.82-3.26-2.79Z"/>
            <path class="cls-4" d="M298.16,358.61c.13.09.22.22.24.39.03.17-.01.32-.12.45-.09.14-.22.21-.38.23-.16.02-.31-.02-.44-.11-.56-.39-1.22-.77-1.96-1.12-.12-.06-.2-.16-.23-.3-.01-.04-.02-.08-.02-.12,0-.09.03-.18.08-.25.1-.13.23-.22.39-.26.06-.01.12-.02.19-.02.09,0,.19.02.28.05.78.35,1.44.71,1.98,1.06ZM298.02,361.88c.07-.13.18-.22.33-.25.15-.03.28,0,.39.11.12.11.21.25.25.42.01.06.02.12.02.17,0,.11-.03.22-.08.33-.62,1.32-1.33,2.69-2.13,4.1-.08.15-.21.23-.37.26-.17.03-.32,0-.45-.11-.15-.11-.23-.26-.26-.44v-.12c0-.13.04-.26.11-.37.75-1.23,1.48-2.59,2.21-4.1ZM298.92,354.45c.12.09.2.22.22.39.02.17-.02.31-.12.44-.09.12-.22.19-.37.21-.16.02-.3-.02-.42-.12-.55-.43-1.19-.82-1.92-1.18-.11-.07-.19-.17-.22-.3-.03-.13,0-.25.08-.37.09-.12.22-.2.37-.23.05-.02.11-.03.17-.03.09,0,.19.02.28.06.75.36,1.39.74,1.93,1.14ZM300.81,362.1v-1.11c0-.16.05-.29.16-.4s.23-.16.39-.16.29.05.39.16.16.24.16.4v1.12c0,.48-.02.91-.06,1.29-.04.38-.13.81-.26,1.27-.13.46-.34.9-.62,1.32-.28.42-.63.81-1.04,1.16-.12.1-.27.15-.43.13-.16-.02-.3-.09-.41-.21-.1-.09-.16-.21-.16-.34,0-.16.06-.29.19-.39.36-.3.66-.63.9-1,.24-.36.41-.74.52-1.13.11-.39.18-.74.22-1.06.04-.32.05-.67.05-1.07ZM299.62,359.25c-.02-.15.02-.27.12-.39.1-.11.23-.18.38-.19l1.12-.03c.1-.01.18-.06.23-.14.38-.68.76-1.43,1.14-2.26.01-.03,0-.06-.02-.09-.02-.03-.05-.05-.08-.05h-2.6c-.15,0-.27-.05-.37-.16s-.16-.24-.16-.39.05-.28.16-.38c.1-.1.23-.16.37-.16h3.51c.1,0,.16-.05.16-.16v-1.31c0-.17.06-.31.17-.42.11-.11.25-.17.42-.17s.31.06.43.17c.12.11.18.25.18.42v1.31c0,.1.05.16.16.16h3.97c.15,0,.27.05.38.16.11.1.16.23.16.38s-.05.28-.16.39c-.11.11-.24.16-.38.16h-4.74c-.1,0-.18.05-.23.14-.44.84-.85,1.58-1.23,2.21-.02.03-.02.06,0,.09.02.03.04.04.07.04.87-.03,2.2-.08,3.97-.16.03-.01.05-.03.06-.05.01-.03,0-.05-.02-.07-.24-.25-.5-.51-.78-.79-.1-.08-.15-.19-.13-.33.02-.13.08-.24.19-.31.12-.08.26-.12.42-.1.16.02.29.08.41.18.95.87,1.71,1.71,2.29,2.52.08.12.11.26.08.42-.03.16-.11.28-.25.36-.13.08-.28.11-.42.08s-.26-.11-.36-.25c-.12-.19-.26-.37-.41-.56-.06-.07-.14-.11-.23-.11-.82.04-2.07.11-3.76.19-1.68.09-2.88.15-3.6.19-.16,0-.29-.05-.41-.15-.12-.1-.19-.23-.21-.4ZM303.58,366.34v-5.27c0-.16.05-.29.16-.39.1-.1.23-.16.37-.16s.27.05.38.16c.11.1.16.23.16.39v5.27c0,.15-.05.27-.16.37-.11.1-.24.16-.38.16s-.27-.05-.37-.16-.16-.23-.16-.37ZM307.83,366.34h.47c.16,0,.27-.03.34-.08.08-.05.14-.2.17-.44.02-.17.04-.54.05-1.12,0-.1.04-.18.13-.22.09-.04.18-.04.27,0,.27.15.41.35.41.61,0,.58-.05,1.05-.14,1.42-.08.29-.23.5-.45.62-.17.12-.41.19-.73.19h-.76c-.39,0-.69-.1-.89-.3-.11-.11-.19-.26-.24-.45-.05-.19-.07-.51-.07-.97v-4.64c0-.15.05-.27.16-.38.11-.11.24-.16.39-.16s.28.05.39.16c.11.11.16.24.16.38v4.75c0,.17,0,.29.02.37.01.08.03.14.06.17.07.05.16.08.26.08Z"/>
            <path class="cls-4" d="M317.8,353.42c.24-.33.56-.5.95-.5s.71.16.97.48c.76.97,1.67,1.86,2.73,2.68,1.06.82,2.14,1.49,3.24,1.99.15.07.24.19.28.34,0,.04.02.08.02.12,0,.11-.04.22-.11.31-.1.16-.24.26-.42.31-.06.02-.13.03-.2.03-.1,0-.21-.03-.31-.08-1.16-.61-2.29-1.36-3.38-2.23-1.09-.87-1.97-1.76-2.65-2.65-.02-.03-.05-.05-.09-.05s-.07.02-.09.05c-.61.88-1.45,1.77-2.51,2.66-1.06.89-2.19,1.66-3.4,2.31-.09.04-.19.06-.3.06-.06,0-.12,0-.17-.02-.17-.05-.3-.15-.41-.28-.07-.09-.11-.19-.11-.3,0-.04,0-.08.02-.11.02-.15.1-.25.23-.33,1.15-.59,2.24-1.32,3.26-2.19,1.02-.87,1.84-1.75,2.46-2.64ZM312.94,362.03c-.16,0-.29-.05-.4-.16-.11-.11-.16-.24-.16-.4s.05-.29.16-.4c.11-.11.24-.16.4-.16h12c.16,0,.29.05.4.16.11.11.16.24.16.4s-.05.29-.16.4c-.11.11-.24.16-.4.16h-6.79c-.1,0-.18.05-.23.14-.68,1.49-1.22,2.61-1.64,3.37-.02.03-.02.06,0,.09.02.03.05.05.08.05,2.2-.07,4.22-.15,6.06-.23.03,0,.05-.01.06-.04,0-.03,0-.05-.02-.09-.5-.56-1.02-1.11-1.57-1.64-.1-.1-.15-.23-.13-.37.02-.14.09-.25.21-.32.12-.07.26-.11.41-.11.03,0,.06,0,.09.02.18.01.33.08.45.2,1.2,1.11,2.2,2.2,2.98,3.27.1.15.14.3.1.48-.04.17-.13.3-.29.4-.1.06-.21.09-.33.09-.04,0-.09,0-.14-.02-.17-.03-.3-.12-.41-.26-.06-.09-.17-.24-.33-.45-.05-.08-.12-.12-.22-.11-1.4.06-3.32.15-5.74.25-2.43.1-3.85.17-4.28.19-.17.01-.31-.04-.44-.15s-.21-.25-.23-.41c-.02-.1-.01-.2.03-.3.04-.09.11-.17.19-.23.09-.06.18-.09.29-.1.47-.01,1-.02,1.59-.03.1,0,.18-.05.23-.14.57-1.06,1.1-2.2,1.57-3.41.01-.03,0-.06-.02-.09-.02-.03-.05-.05-.09-.05h-3.46ZM315.62,357.87h6.53c.15,0,.27.05.38.16.11.11.16.24.16.39s-.05.28-.16.38c-.11.1-.24.16-.38.16h-6.53c-.15,0-.27-.05-.38-.16-.11-.1-.16-.23-.16-.38s.05-.28.16-.39c.11-.11.24-.16.38-.16Z"/>
          </g>
          <g>
            <g>
              <path class="cls-4" d="M172.01,391.65v-9.22c0-.23.08-.42.24-.58.16-.16.35-.24.58-.24s.46.07.66.21c.2.14.34.33.42.55l1.77,4.94c.33.97.58,1.7.75,2.18,0,.02.03.03.05.03s.04,0,.05-.03c.08-.24.19-.6.35-1.09.16-.49.28-.85.36-1.1l1.76-4.94c.09-.23.23-.41.43-.55s.42-.21.67-.21c.22,0,.41.08.57.24.16.16.24.35.24.58v9.19c0,.18-.06.33-.18.45-.12.12-.27.18-.45.18s-.32-.06-.45-.18c-.12-.12-.18-.27-.18-.45v-5.26c0-.61.06-1.64.17-3.11,0-.02,0-.03-.03-.03s-.03,0-.03.03l-.84,2.4-1.87,5.11c-.05.13-.13.24-.23.31-.11.08-.23.11-.37.11s-.26-.04-.37-.11c-.11-.08-.19-.18-.23-.31l-1.86-5.11-.84-2.4s-.02-.03-.04-.03-.03,0-.03.03c.1,1.67.16,2.71.16,3.11v5.29c0,.17-.06.31-.18.43s-.26.18-.43.18-.31-.06-.43-.18c-.12-.12-.18-.26-.18-.43Z"/>
              <path class="cls-4" d="M185.94,390.24c-.86,0-1.58-.3-2.16-.89-.58-.59-.86-1.4-.86-2.41,0-.49.08-.95.24-1.37.16-.42.37-.78.64-1.06.26-.28.57-.5.91-.65.34-.16.7-.23,1.06-.23.73,0,1.32.23,1.75.69.44.46.68,1.09.74,1.89v.08c0,.24-.09.45-.27.62-.21.19-.46.28-.75.28h-3.16s-.05.01-.07.03c-.02.02-.03.05-.03.08.05.64.27,1.15.65,1.53.38.38.86.57,1.44.57.44,0,.85-.1,1.24-.31.09-.05.19-.05.3-.03.11.03.19.09.24.18.05.1.07.2.04.31-.03.11-.09.19-.19.24-.56.3-1.15.44-1.76.44ZM183.98,386.34s.01.04.03.06c.02.02.04.03.07.03h3.16s.07,0,.09-.03c.02-.02.03-.04.03-.07h0c-.02-.61-.16-1.07-.43-1.39s-.65-.48-1.14-.48c-.45,0-.84.17-1.17.5-.42.41-.64.87-.64,1.37Z"/>
              <path class="cls-4" d="M192.37,390.24c-.86,0-1.58-.3-2.16-.89-.58-.59-.86-1.4-.86-2.41,0-.49.08-.95.24-1.37.16-.42.37-.78.64-1.06.26-.28.57-.5.91-.65.34-.16.7-.23,1.06-.23.73,0,1.32.23,1.75.69.44.46.68,1.09.74,1.89v.08c0,.24-.09.45-.27.62-.21.19-.46.28-.75.28h-3.16s-.05.01-.07.03c-.02.02-.03.05-.03.08.05.64.27,1.15.65,1.53.38.38.86.57,1.44.57.44,0,.85-.1,1.24-.31.09-.05.19-.05.3-.03.11.03.19.09.24.18.05.1.07.2.04.31-.03.11-.09.19-.19.24-.56.3-1.15.44-1.76.44ZM190.41,386.34s.01.04.03.06c.02.02.04.03.07.03h3.16s.07,0,.09-.03c.02-.02.03-.04.03-.07h0c-.02-.61-.16-1.07-.43-1.39s-.65-.48-1.14-.48c-.45,0-.84.17-1.17.5-.42.41-.64.87-.64,1.37Z"/>
              <path class="cls-4" d="M198.25,390.24c-.64,0-1.1-.18-1.38-.54-.28-.36-.41-.88-.41-1.55v-3.41c0-.06-.03-.09-.1-.09h-.44c-.11,0-.21-.04-.28-.12-.08-.08-.11-.18-.11-.29,0-.11.04-.2.11-.28.08-.08.17-.13.28-.14l.49-.03c.07,0,.1-.03.1-.1l.09-1.23c0-.12.06-.23.15-.31s.2-.13.33-.13c.12,0,.22.04.31.13.09.09.13.19.13.31v1.21c0,.08.04.11.11.11h1.16c.12,0,.22.04.31.12.08.08.12.19.12.31s-.04.22-.12.31c-.08.08-.19.12-.31.12h-1.16c-.08,0-.11.04-.11.11v3.41c0,.41.07.71.22.92.15.2.4.31.75.31.09,0,.2-.02.33-.05.11-.02.21,0,.31.04.1.05.16.13.18.23.02.04.02.08.02.11,0,.07-.02.14-.06.2-.05.1-.14.16-.25.19-.3.08-.55.11-.77.11Z"/>
              <path class="cls-4" d="M202.49,390.24c-1.28,0-1.92-.82-1.92-2.46v-3.46c0-.15.05-.28.15-.38.1-.1.23-.15.37-.15s.27.05.37.15c.1.1.15.23.15.38v3.34c0,.59.09,1.02.28,1.28.19.26.49.39.91.39.3,0,.58-.07.83-.22s.52-.4.81-.75c.05-.06.07-.13.07-.2v-3.82c0-.15.05-.28.15-.38.1-.1.23-.15.37-.15s.27.05.37.15c.1.1.15.23.15.38v5.33c0,.12-.04.23-.12.31-.08.09-.19.13-.32.13-.12,0-.23-.04-.32-.13-.09-.08-.14-.19-.16-.32l-.03-.53s-.02-.01-.03-.01-.02,0-.03.01c-.32.37-.64.65-.97.84s-.7.28-1.11.28Z"/>
              <path class="cls-4" d="M207.7,392.26v-8.01c0-.12.04-.22.13-.31.09-.08.19-.13.31-.13s.23.04.32.12c.09.08.15.18.16.31l.03.27s0,.01.02.01.02,0,.03-.01c.72-.58,1.38-.87,2-.87.8,0,1.42.29,1.86.87.44.58.66,1.36.66,2.36,0,.52-.08,1-.23,1.44-.15.44-.35.79-.61,1.08-.25.28-.54.5-.87.66-.33.15-.68.23-1.04.23-.54,0-1.09-.22-1.66-.66-.02-.02-.03-.02-.06-.01-.02,0-.03.02-.02.05v1s.01,1.61.01,1.61c0,.14-.05.27-.15.37-.1.1-.23.15-.37.15s-.27-.05-.37-.15c-.11-.1-.16-.23-.16-.37ZM210.31,389.39c.53,0,.96-.22,1.3-.68s.51-1.06.51-1.83c0-1.56-.55-2.34-1.66-2.34-.48,0-1.02.26-1.61.79-.06.05-.09.12-.09.19v3.09c0,.08.03.14.09.18.49.39.98.59,1.46.59Z"/>
            </g>
            <g>
              <path class="cls-4" d="M218.53,383.87c.08.02.13.06.17.13.02.05.03.09.03.14,0,.03,0,.05-.02.08-.02.07-.06.12-.13.16-.07.03-.14.04-.21.03-.07-.02-.14-.02-.21-.02-.4,0-.6.28-.6.84v.6c0,.05.03.08.08.08h.53c.08,0,.14.03.2.08.06.06.09.13.09.21s-.03.15-.09.21c-.06.06-.13.08-.2.08h-.53c-.05,0-.08.03-.08.08v3.23c0,.1-.04.19-.11.26-.07.07-.16.1-.25.1s-.18-.03-.25-.1c-.07-.07-.1-.15-.1-.26v-3.25s-.02-.06-.06-.06h-.25c-.08,0-.14-.03-.19-.08-.05-.05-.08-.12-.08-.19,0-.07.03-.13.08-.19.05-.06.11-.09.19-.09l.25-.02s.06-.02.06-.06v-.62c0-.44.1-.79.31-1.03.2-.24.51-.37.92-.37.15,0,.3.02.45.05Z"/>
              <path class="cls-4" d="M218.94,388.02c0-.34.05-.65.16-.94.11-.29.25-.52.44-.71.18-.19.39-.33.63-.43.24-.1.49-.15.75-.15s.51.05.75.15c.24.1.45.25.63.43.18.19.32.42.43.71.11.29.16.6.16.94s-.05.66-.16.94c-.11.28-.25.52-.43.7-.18.19-.39.33-.63.43s-.49.15-.75.15-.51-.05-.75-.15-.45-.24-.63-.43c-.18-.19-.33-.42-.44-.7-.11-.28-.16-.6-.16-.94ZM222.15,388.02c0-.48-.11-.88-.34-1.18-.23-.31-.53-.46-.89-.46s-.66.15-.89.45c-.22.3-.34.7-.34,1.19s.11.88.34,1.18c.22.3.52.45.89.45s.67-.15.89-.45c.23-.3.34-.69.34-1.18Z"/>
              <path class="cls-4" d="M224,389.78v-3.6c0-.08.03-.15.09-.21.06-.06.13-.08.21-.08s.15.03.21.08c.06.06.09.13.1.21l.04.47s0,0,.01,0,.01,0,.02,0c.15-.28.33-.49.54-.64s.43-.23.66-.23h.15c.09.01.16.06.21.14.03.06.05.11.05.18,0,.03,0,.06,0,.09-.02.08-.07.14-.14.18-.07.04-.14.06-.21.06h-.13c-.19,0-.38.07-.57.22-.19.15-.35.37-.48.68-.02.05-.03.1-.03.15v2.29c0,.1-.03.19-.1.26-.07.07-.15.1-.25.1s-.18-.03-.25-.1c-.07-.07-.11-.15-.11-.26Z"/>
            </g>
            <g>
              <path class="cls-4" d="M229.6,391.47v-8.48c0-.09-.05-.14-.14-.14h-2.45c-.16,0-.29-.05-.39-.16s-.16-.24-.16-.39.05-.28.16-.39.24-.17.39-.17h6.5c.15,0,.28.06.39.17.11.11.17.24.17.39s-.06.28-.17.39c-.11.11-.24.16-.39.16h-2.46c-.09,0-.14.05-.14.14v8.48c0,.18-.06.34-.19.47-.13.13-.28.19-.46.19s-.33-.06-.46-.19c-.13-.13-.19-.29-.19-.47Z"/>
              <path class="cls-4" d="M242.36,392.13c-.2,0-.39-.06-.55-.19-.17-.12-.28-.28-.35-.48l-.75-2.38c-.03-.08-.09-.12-.18-.12h-3.51c-.09,0-.15.04-.18.12l-.76,2.41c-.06.19-.18.35-.33.46-.16.12-.34.17-.54.17-.17,0-.29-.06-.39-.19-.06-.09-.08-.18-.08-.28,0-.05,0-.11.03-.17l3.07-9.06c.07-.2.2-.37.37-.5.17-.13.37-.19.59-.19s.42.06.59.19c.18.13.3.3.37.5l3.07,9.03c.02.06.03.12.03.18,0,.09-.03.18-.08.28-.1.14-.24.21-.42.21ZM237.25,387.78s0,.07.01.1c.02.03.05.04.08.04h2.86s.06-.01.08-.04c.02-.03.02-.06.01-.1l-.46-1.45c-.29-.87-.63-2.03-1.04-3.49,0-.02-.02-.03-.04-.03s-.03,0-.03.03c-.26.96-.6,2.12-1.04,3.49l-.46,1.45Z"/>
              <path class="cls-4" d="M245.7,392.13c-.33,0-.62-.12-.85-.35-.24-.24-.35-.52-.35-.85v-7.98c0-.33.12-.62.35-.85.23-.24.52-.35.85-.35h1.9c1.12,0,1.99.21,2.62.62s.95,1.05.95,1.93c0,.52-.13.98-.4,1.39-.27.41-.63.69-1.09.85-.03,0-.04.03-.04.05s.01.03.04.03c.64.13,1.14.4,1.52.82.38.42.57.97.57,1.65,0,.99-.36,1.74-1.07,2.26-.71.52-1.67.78-2.87.78h-2.12ZM245.83,386.03c0,.09.05.14.14.14h1.4c1.67,0,2.5-.57,2.5-1.72,0-.59-.2-1.02-.6-1.28-.4-.26-1.02-.39-1.85-.39h-1.45c-.09,0-.14.05-.14.14v3.11ZM245.83,390.94c0,.09.05.14.14.14h1.67c1.89,0,2.84-.68,2.84-2.03,0-1.25-.95-1.87-2.84-1.87h-1.67c-.09,0-.14.05-.14.14v3.62Z"/>
              <path class="cls-4" d="M255,392.13c-.33,0-.62-.12-.85-.35-.24-.24-.35-.52-.35-.85v-8.52c0-.18.06-.34.19-.47.13-.13.29-.19.47-.19s.34.06.47.19c.13.13.19.29.19.47v8.46c0,.09.05.14.14.14h3.83c.16,0,.29.05.39.17.11.11.16.24.16.39s-.05.28-.16.39c-.11.11-.24.17-.39.17h-4.09Z"/>
              <path class="cls-4" d="M262.67,392.13c-.33,0-.62-.12-.85-.35-.24-.24-.35-.52-.35-.85v-7.98c0-.33.12-.62.35-.85.23-.24.52-.35.85-.35h4.25c.15,0,.28.06.39.17s.17.24.17.39-.06.28-.17.39-.24.16-.39.16h-3.98c-.09,0-.14.05-.14.14v2.99c0,.09.05.14.14.14h3.24c.16,0,.29.05.39.16.11.11.16.24.16.39s-.05.29-.16.4c-.11.11-.24.17-.39.17h-3.24c-.09,0-.14.05-.14.14v3.5c0,.09.05.14.14.14h4.12c.16,0,.29.05.4.17.11.11.17.24.17.39s-.06.28-.17.39-.24.17-.4.17h-4.38Z"/>
              <path class="cls-4" d="M277.05,392.31c-1.39,0-2.52-.48-3.38-1.44-.86-.96-1.29-2.27-1.29-3.93s.44-2.96,1.33-3.94c.89-.97,2.03-1.46,3.42-1.46,1,0,1.86.3,2.6.91.12.1.18.24.18.41,0,.15-.05.28-.14.39-.09.11-.21.17-.37.18-.15,0-.28-.03-.39-.12-.53-.42-1.14-.62-1.84-.62-1.05,0-1.89.38-2.51,1.13-.62.76-.93,1.78-.93,3.07s.3,2.37.9,3.13,1.45,1.13,2.56,1.13c.74,0,1.33-.17,1.77-.51.07-.05.11-.13.11-.23v-2.43c0-.09-.05-.14-.14-.14h-1.52c-.15,0-.27-.05-.38-.16-.11-.11-.16-.24-.16-.39s.05-.28.16-.39c.11-.11.23-.16.38-.16h1.66c.33,0,.62.12.85.35.23.24.35.52.35.85v1.95c0,.42-.08.8-.24,1.14s-.4.6-.73.77c-.67.33-1.42.5-2.25.5Z"/>
              <path class="cls-4" d="M289.16,392.13c-.2,0-.39-.06-.55-.19-.17-.12-.28-.28-.35-.48l-.75-2.38c-.03-.08-.09-.12-.18-.12h-3.51c-.09,0-.15.04-.18.12l-.76,2.41c-.06.19-.18.35-.33.46-.16.12-.34.17-.54.17-.17,0-.29-.06-.39-.19-.06-.09-.08-.18-.08-.28,0-.05,0-.11.03-.17l3.07-9.06c.07-.2.2-.37.37-.5.17-.13.37-.19.59-.19s.42.06.59.19c.18.13.3.3.37.5l3.07,9.03c.02.06.03.12.03.18,0,.09-.03.18-.08.28-.1.14-.24.21-.42.21ZM284.06,387.78s0,.07.01.1c.02.03.05.04.08.04h2.86s.06-.01.08-.04c.02-.03.02-.06.01-.1l-.46-1.45c-.29-.87-.63-2.03-1.04-3.49,0-.02-.02-.03-.04-.03s-.03,0-.03.03c-.26.96-.6,2.12-1.04,3.49l-.46,1.45Z"/>
              <path class="cls-4" d="M291.3,391.54v-8.99c0-.22.08-.41.23-.57.16-.16.35-.24.57-.24s.44.07.64.21.33.32.41.54l1.73,4.81c.32.95.57,1.66.73,2.13,0,.02.03.03.05.03s.04,0,.05-.03c.07-.23.19-.58.34-1.06.15-.47.27-.83.35-1.07l1.72-4.81c.08-.22.22-.4.42-.54s.41-.21.65-.21c.21,0,.4.08.55.24.16.16.23.35.23.57v8.96c0,.17-.06.32-.18.44-.12.12-.27.18-.44.18s-.32-.06-.44-.18c-.12-.12-.18-.27-.18-.44v-5.13c0-.59.06-1.6.17-3.03,0-.02,0-.03-.03-.03s-.03,0-.03.03l-.82,2.34-1.83,4.98c-.05.13-.12.23-.23.3-.11.07-.23.11-.36.11s-.25-.04-.36-.11c-.11-.07-.18-.18-.23-.3l-1.81-4.98-.82-2.34s-.02-.03-.04-.03-.03,0-.03.03c.1,1.63.15,2.64.15,3.03v5.16c0,.17-.06.31-.17.42-.12.12-.25.17-.42.17s-.3-.06-.42-.17c-.12-.12-.18-.26-.18-.42Z"/>
              <path class="cls-4" d="M304,392.13c-.33,0-.62-.12-.85-.35-.24-.24-.35-.52-.35-.85v-7.98c0-.33.12-.62.35-.85.23-.24.52-.35.85-.35h4.25c.15,0,.28.06.39.17s.17.24.17.39-.06.28-.17.39-.24.16-.39.16h-3.98c-.09,0-.14.05-.14.14v2.99c0,.09.05.14.14.14h3.24c.16,0,.29.05.39.16.11.11.16.24.16.39s-.05.29-.16.4c-.11.11-.24.17-.39.17h-3.24c-.09,0-.14.05-.14.14v3.5c0,.09.05.14.14.14h4.12c.16,0,.29.05.4.17.11.11.17.24.17.39s-.06.28-.17.39-.24.17-.4.17h-4.38Z"/>
              <path class="cls-4" d="M314.02,392.31c-1.22,0-2.29-.38-3.21-1.13-.13-.11-.19-.26-.19-.44,0-.16.05-.29.16-.41.11-.12.24-.18.39-.19h.03c.16,0,.29.05.4.14.76.59,1.57.88,2.43.88.67,0,1.21-.15,1.6-.46.39-.31.59-.72.59-1.24,0-.2-.03-.39-.1-.55-.06-.17-.14-.3-.22-.42-.08-.11-.21-.22-.39-.34s-.33-.2-.45-.26c-.12-.06-.31-.15-.57-.27l-1.49-.65c-1.41-.6-2.12-1.48-2.12-2.66,0-.8.31-1.46.93-1.98s1.4-.78,2.35-.78,1.88.31,2.66.93c.11.09.17.22.18.37,0,.16-.03.29-.12.4-.09.12-.21.18-.37.19-.15,0-.29-.03-.41-.11-.58-.42-1.23-.64-1.94-.64-.59,0-1.06.14-1.42.42-.36.28-.53.65-.53,1.12,0,.19.04.37.11.53.07.16.16.3.25.4.09.11.23.21.42.32.18.11.33.19.45.25.12.06.28.13.49.22l1.49.64c.68.29,1.21.65,1.58,1.07.37.42.55.98.55,1.69,0,.85-.32,1.55-.97,2.11-.65.56-1.5.84-2.56.84Z"/>
            </g>
          </g>
          <g>
            <path class="cls-4" d="M218.98,434.57v-27.15c0-.55.19-1.02.58-1.41s.86-.58,1.41-.58,1.02.19,1.41.58c.39.39.58.86.58,1.41v13.6s.02.04.06.04.08-.01.1-.04l11.52-13.89c.94-1.13,2.14-1.7,3.61-1.7.44,0,.76.2.95.6.19.4.15.78-.12,1.14l-8.08,9.78c-.17.22-.18.46-.04.7l9.95,17c.11.22.17.44.17.64s-.06.42-.17.64c-.25.41-.62.62-1.12.62-.66,0-1.29-.17-1.89-.52-.59-.34-1.07-.81-1.43-1.39l-7.96-13.93c-.06-.11-.13-.17-.23-.17s-.19.03-.27.08l-4.81,5.76c-.17.19-.25.43-.25.7v7.46c0,.55-.19,1.02-.58,1.41s-.86.58-1.41.58-1.02-.19-1.41-.58c-.39-.39-.58-.86-.58-1.41Z"/>
            <path class="cls-4" d="M255.34,437.09c-3.15,0-5.78-1.08-7.88-3.25-2.1-2.17-3.15-5.11-3.15-8.81,0-1.8.29-3.47.87-5.02.58-1.55,1.35-2.83,2.32-3.86.97-1.02,2.08-1.82,3.34-2.38,1.26-.57,2.55-.85,3.88-.85,2.68,0,4.82.84,6.4,2.51,1.59,1.67,2.49,3.97,2.72,6.9v.29c0,.88-.33,1.64-.99,2.28-.77.69-1.69,1.04-2.74,1.04h-11.52c-.11,0-.2.04-.27.12-.07.08-.1.18-.1.29.19,2.35.98,4.21,2.36,5.6,1.38,1.38,3.14,2.07,5.26,2.07,1.6,0,3.11-.37,4.52-1.12.33-.17.69-.2,1.08-.1.39.1.68.31.87.64.19.36.24.74.15,1.14-.1.4-.33.7-.68.89-2.05,1.08-4.19,1.62-6.43,1.62ZM248.17,422.83c0,.08.04.15.12.21.06.08.14.12.25.12h11.52c.14,0,.24-.03.31-.1s.1-.16.1-.27v-.04c-.06-2.18-.58-3.85-1.58-5.02s-2.38-1.74-4.15-1.74c-1.63,0-3.05.61-4.27,1.82-1.55,1.49-2.32,3.16-2.32,5.02Z"/>
            <path class="cls-4" d="M273.58,436.27c-.55.55-1.22.83-2.01.83s-1.45-.27-1.99-.81-.81-1.24-.81-2.09.27-1.58.81-2.16c.54-.58,1.19-.87,1.97-.87s1.44.29,1.99.87c.55.58.83,1.3.83,2.16s-.26,1.55-.79,2.07Z"/>
          </g>
        </g>
        <path class="cls-4" d="M441.72,142.15c-8.8,5.37-22.73,12.28-39.61,18.41v-9.97c0-15.34.74-30.68,2.2-45.26,13.2,8.43,27.13,17.64,34.46,21.47,5.14,3.08,7.35,6.15,7.35,9.21,0,2.3-1.47,4.61-4.4,6.15ZM169.68,248.8c-4.4,0-10.26,7.67-17.59,19.17-8.8,13.06-80.67,145.78-84.32,152.69-2.94,4.61-6.6,14.58-11.75,14.58-12.46,0-17.59-52.17-17.59-79.03,0-101.28,46.19-147.31,46.19-223.27,0-43.74-30.06-88.24-64.52-107.43-5.14-3.07-9.53-4.61-11.73-4.61-1.47,0-5.87.78-5.87,5.38,0,2.3,2.2,5.37,5.87,9.2,21.99,23.03,28.59,59.08,28.59,89.78,0,81.33-31.53,136.57-31.53,240.16,0,46.04,8.8,165.73,61.59,227.88,5.15,5.37,12.47,11.51,19.8,11.51,5.13,0,21.26-3.84,21.26-22.25,0-19.95-19.79-46.8-19.79-81.33s37.39-155,76.25-227.88c5.13-9.97,8.8-16.88,8.8-19.95s-1.47-4.61-3.67-4.61ZM501.11,128.34c-7.33-12.28-31.53-9.97-48.41-15.34-17.58-5.37-33.72-13.82-46.19-21.49,1.47-13.82,3.67-24.55,5.13-29.92,1.47-6.15,2.94-11.52,2.94-16.12,0-29.14-49.86-42.96-83.6-42.96-9.53,0-16.86,1.54-16.86,6.13,0,2.3,2.2,6.15,8.8,9.21,10.26,4.61,30.79,21.49,34.46,49.11,2.2,14.58,4.4,60.62,5.86,108.19-31.53,10.74-63.05,18.41-79.18,18.41-13.95,0-40.34-4.61-54.26-9.97q-4.4-1.53-6.6-1.53c-2.2,0-3.67,1.53-3.67,3.07,0,2.3,1.47,4.61,3.67,6.91,16.86,16.1,63.05,36.83,92.38,36.83,11.73,0,29.33-3.84,49.14-10.75l1.47,77.51c0,26.08,0,63.67-3.67,91.31-11,84.4-42.53,189.51-129.78,233.25-7.33,3.84-8.8,5.37-8.8,7.67s1.47,4.61,5.13,4.61c2.2,0,4.4-.76,6.6-1.54,21.27-7.67,93.12-46.03,131.99-116.62,39.61-71.36,41.81-138.11,41.81-159.59,0-39.91-2.94-105.89-4.4-151.17,37.39-15.34,73.32-33.75,84.32-42.2,8.79-6.89,14.66-10.74,14.66-23.01,0-3.84-.73-7.67-2.93-9.97Z"/>
      </g>
      <g>
        <g>
          <g>
            <path class="cls-1" d="M165.72,359.55c-.57.08-.86-.09-.88-.52-.01-.43.22-.64.7-.64,2.1-.02,5.26-.22,9.49-.6.86-.03,1.4.02,1.62.16.22.14.32.3.32.49,0,.35-.27.53-.81.53h-.44c-.44-.03-.8-.05-1.07-.05-.63,0-1.48.04-2.54.12.19.1.23.41.14.93-.34,1.65-1.02,3.1-2.05,4.38-1.02,1.3-2.42,2.32-4.22,3.08-.44.16-.75.11-.92-.16-.17-.27-.11-.5.17-.7,2.05-.78,3.52-1.95,4.39-3.52.61-1.05,1-2.08,1.17-3.1.06-.33.04-.61-.05-.84l-5.04.44ZM168.07,355.41c1.84,0,3.28-.09,4.32-.28,1.03-.19,1.66-.17,1.88.03.27.2.37.4.32.6-.03.15-.13.27-.27.34-.15.08-.52.11-1.13.11-1.28.07-2.89.18-4.81.32-.76.08-1.14-.08-1.16-.5-.01-.41.27-.62.86-.62Z"/>
            <path class="cls-1" d="M188.58,359.71c1.84-.09,3.05-.17,3.62-.22.57-.05.99.02,1.26.22.22.18.31.37.26.58-.07.3-.38.44-.94.41-.55-.03-1.39-.03-2.51,0-2.75.07-4.75.15-5.99.25-1.24.1-2.06.15-2.47.15-.51,0-.8-.18-.86-.54.01-.4.22-.61.61-.64.4-.03,1.03-.04,1.89-.04.6,0,2.3-.05,5.11-.16Z"/>
            <path class="cls-1" d="M198.59,356.6c3.61-.16,6.09-.39,7.46-.67.53-.08.95.03,1.28.33.23.23.29.5.16.81-.13.31-.27.63-.44.97-.79,2.19-1.98,4.06-3.56,5.61-1.58,1.55-3.6,2.63-6.07,3.25-.5.14-.8.03-.88-.32-.09-.36.1-.6.55-.73,2.4-.65,4.34-1.84,5.8-3.55,1.46-1.72,2.44-3.44,2.93-5.16-3.07.33-5.25.58-6.55.75-.95.09-1.43-.1-1.44-.57-.02-.47.24-.71.76-.73ZM206.94,354.57c1.31.23,2.19.71,2.66,1.44.16.4.04.64-.37.74-.27.05-.54-.1-.81-.44-.36-.48-.92-.88-1.68-1.21-.23-.08-.33-.2-.29-.36.04-.16.2-.21.48-.17ZM208.08,353.41c1.33,0,2.29.31,2.87.93.23.37.16.64-.23.81-.26.09-.55,0-.88-.3-.44-.41-1.06-.71-1.86-.89-.25-.05-.36-.15-.35-.31.01-.16.16-.24.44-.24Z"/>
            <path class="cls-1" d="M212.82,365.28c1.33-.51,2.35-1.31,3.06-2.4.86-1.32,1.38-2.9,1.56-4.74.05-.37.16-.63.35-.77.19-.14.42-.13.7.02.29.16.41.47.35.93-.05.62-.21,1.38-.49,2.28-.44,1.52-1.13,2.77-2.05,3.75-.81.82-1.8,1.49-2.99,2.01-.44.16-.74.08-.88-.26s-.01-.61.39-.81ZM227.85,357.47c-1.54,1.9-3.5,3.58-5.86,5.04-.39.28-.74.35-1.07.21-.33-.14-.5-.47-.51-1v-4.59c-.01-.68.22-1.01.71-.99.48.02.7.31.66.87-.16,1.42-.23,2.88-.21,4.36,1.82-1.07,3.61-2.64,5.37-4.71.42-.47.75-.53,1-.17.24.35.22.68-.09.98Z"/>
            <path class="cls-1" d="M237.9,359.4c-.25,1.58-.89,3.03-1.93,4.38-1,1.27-2.51,2.29-4.52,3.06-.41.12-.68.03-.81-.27-.13-.3.06-.55.59-.74,1.91-.74,3.31-1.88,4.18-3.45.6-1.05.97-2.08,1.14-3.1.08-.34.06-.61-.05-.81-1.02.03-1.74.08-2.17.12-.22,0-.34-.01-.35-.03-.84,1.19-1.86,2.23-3.05,3.13-.5.35-.86.41-1.09.19-.22-.22-.14-.51.25-.88,1.49-1.11,2.84-2.96,4.04-5.55.2-.43.48-.61.85-.53.37.08.52.31.45.69-.08.36-.42,1.03-1.02,2.01l.82-.03c1.74-.12,3.45-.23,5.15-.33.6-.02,1,.07,1.21.28.18.14.26.29.26.46,0,.34-.31.5-.93.47-.37-.04-.93-.06-1.68-.09-.78.02-1.23.03-1.35.03.1.13.1.46,0,.98ZM239.5,354.57c1.32.24,2.21.72,2.66,1.44.17.41.05.65-.37.74-.27.06-.54-.09-.81-.44-.36-.48-.92-.88-1.68-1.19-.22-.09-.32-.22-.28-.37.03-.15.19-.21.47-.17ZM240.64,353.41c1.34,0,2.3.32,2.87.95.23.37.16.64-.23.79-.26.1-.54,0-.86-.3-.46-.41-1.08-.7-1.87-.88-.24-.06-.36-.17-.35-.32s.16-.24.44-.24Z"/>
            <path class="cls-1" d="M254.36,359.71c1.84-.09,3.05-.17,3.62-.22.57-.05.99.02,1.26.22.22.18.31.37.26.58-.07.3-.38.44-.94.41-.55-.03-1.39-.03-2.51,0-2.75.07-4.75.15-5.99.25-1.24.1-2.06.15-2.47.15-.51,0-.8-.18-.86-.54.01-.4.22-.61.61-.64.4-.03,1.03-.04,1.89-.04.6,0,2.3-.05,5.11-.16Z"/>
            <path class="cls-1" d="M265.37,363.95c1-1.86,1.86-3.51,2.57-4.95.71-1.45,1.09-2.3,1.14-2.57.16-.72.5-1.09,1.02-1.09.51,0,.74.28.67.87-.07.31-.53,1.23-1.39,2.75-.86,1.52-1.81,3.13-2.86,4.85,1.42-.2,3.47-.69,6.13-1.49-.2-.34-.58-.84-1.16-1.51-.29-.33-.31-.6-.04-.81.26-.21.57-.14.94.21.92.97,1.6,1.81,2.05,2.52.44.71.7,1.4.77,2.07.08.61-.11.91-.58.91-.33,0-.56-.2-.7-.6-.24-.75-.5-1.37-.77-1.86l-.19.03c-4.55,1.4-7.17,2.1-7.84,2.1-.69.02-1.07-.19-1.16-.65-.08-.46.16-.69.74-.72.25,0,.47-.02.68-.07Z"/>
            <path class="cls-1" d="M292.35,355.02c.16,0,.29.06.41.17.11.11.17.25.17.41s-.06.3-.17.41c-.11.11-.25.17-.41.17h-12.7c-.17,0-.3-.06-.41-.17-.11-.11-.16-.25-.16-.41s.05-.3.16-.41c.11-.11.25-.17.41-.17h5.56c.1,0,.16-.05.16-.16v-1.32c0-.17.06-.31.18-.42.12-.11.26-.17.42-.17s.3.06.42.17c.12.11.18.25.18.42v1.32c0,.1.05.16.16.16h5.62ZM288.06,359.98c.07-.17.19-.29.36-.37.09-.05.19-.08.3-.08.07,0,.14.01.2.03.17.04.29.14.36.3.07.16.08.31.02.47-.56,1.27-1.31,2.38-2.24,3.35-.07.07-.07.14.02.2,1.51,1.15,3.37,1.96,5.58,2.42.15.03.24.12.3.26.01.05.02.1.02.14,0,.09-.03.18-.08.25-.11.18-.26.31-.45.39-.12.05-.24.08-.36.08-.07,0-.14,0-.2-.02-2.3-.54-4.2-1.44-5.72-2.7-.08-.06-.17-.06-.25,0-1.48,1.15-3.39,2.06-5.75,2.73-.07.02-.15.03-.22.03-.11,0-.22-.03-.33-.08-.19-.07-.33-.2-.44-.37-.05-.07-.08-.16-.08-.25,0-.05.01-.11.03-.17.05-.15.15-.23.3-.26,2.3-.55,4.17-1.37,5.61-2.46.08-.06.09-.13.02-.2-.86-.95-1.58-2.05-2.15-3.32-.06-.13-.06-.27,0-.41.07-.14.17-.23.32-.27.16-.05.31-.04.45.02.15.07.25.18.33.33.49,1.07,1.13,2.03,1.93,2.87.07.07.15.07.22,0,.8-.83,1.44-1.8,1.92-2.9ZM282.77,357.16c.11-.13.26-.23.45-.28.07-.03.15-.05.23-.05.09,0,.19.02.3.06.15.05.24.16.28.31.04.16.02.29-.08.41-.98,1.22-2.17,2.3-3.57,3.24-.12.08-.25.12-.39.12-.04,0-.08,0-.12-.02-.19-.03-.34-.12-.47-.26-.1-.12-.15-.27-.12-.44.02-.17.1-.29.23-.37,1.32-.8,2.4-1.71,3.26-2.73ZM288.36,357.67c-.12-.09-.19-.21-.19-.36s.06-.26.17-.36c.15-.1.31-.16.48-.16h.02c.17,0,.32.05.47.14,1.35.93,2.46,1.84,3.32,2.71.11.11.17.25.17.41,0,.2-.08.36-.23.48-.12.1-.26.16-.42.16h-.06c-.19-.02-.34-.1-.47-.23-.84-.89-1.93-1.82-3.26-2.79Z"/>
            <path class="cls-1" d="M298.16,358.61c.13.09.22.22.24.39.03.17-.01.32-.12.45-.09.14-.22.21-.38.23-.16.02-.31-.02-.44-.11-.56-.39-1.22-.77-1.96-1.12-.12-.06-.2-.16-.23-.3-.01-.04-.02-.08-.02-.12,0-.09.03-.18.08-.25.1-.13.23-.22.39-.26.06-.01.12-.02.19-.02.09,0,.19.02.28.05.78.35,1.44.71,1.98,1.06ZM298.02,361.88c.07-.13.18-.22.33-.25.15-.03.28,0,.39.11.12.11.21.25.25.42.01.06.02.12.02.17,0,.11-.03.22-.08.33-.62,1.32-1.33,2.69-2.13,4.1-.08.15-.21.23-.37.26-.17.03-.32,0-.45-.11-.15-.11-.23-.26-.26-.44v-.12c0-.13.04-.26.11-.37.75-1.23,1.48-2.59,2.21-4.1ZM298.92,354.45c.12.09.2.22.22.39.02.17-.02.31-.12.44-.09.12-.22.19-.37.21-.16.02-.3-.02-.42-.12-.55-.43-1.19-.82-1.92-1.18-.11-.07-.19-.17-.22-.3-.03-.13,0-.25.08-.37.09-.12.22-.2.37-.23.05-.02.11-.03.17-.03.09,0,.19.02.28.06.75.36,1.39.74,1.93,1.14ZM300.81,362.1v-1.11c0-.16.05-.29.16-.4s.23-.16.39-.16.29.05.39.16.16.24.16.4v1.12c0,.48-.02.91-.06,1.29-.04.38-.13.81-.26,1.27-.13.46-.34.9-.62,1.32-.28.42-.63.81-1.04,1.16-.12.1-.27.15-.43.13-.16-.02-.3-.09-.41-.21-.1-.09-.16-.21-.16-.34,0-.16.06-.29.19-.39.36-.3.66-.63.9-1,.24-.36.41-.74.52-1.13.11-.39.18-.74.22-1.06.04-.32.05-.67.05-1.07ZM299.62,359.25c-.02-.15.02-.27.12-.39.1-.11.23-.18.38-.19l1.12-.03c.1-.01.18-.06.23-.14.38-.68.76-1.43,1.14-2.26.01-.03,0-.06-.02-.09-.02-.03-.05-.05-.08-.05h-2.6c-.15,0-.27-.05-.37-.16s-.16-.24-.16-.39.05-.28.16-.38c.1-.1.23-.16.37-.16h3.51c.1,0,.16-.05.16-.16v-1.31c0-.17.06-.31.17-.42.11-.11.25-.17.42-.17s.31.06.43.17c.12.11.18.25.18.42v1.31c0,.1.05.16.16.16h3.97c.15,0,.27.05.38.16.11.1.16.23.16.38s-.05.28-.16.39c-.11.11-.24.16-.38.16h-4.74c-.1,0-.18.05-.23.14-.44.84-.85,1.58-1.23,2.21-.02.03-.02.06,0,.09.02.03.04.04.07.04.87-.03,2.2-.08,3.97-.16.03-.01.05-.03.06-.05.01-.03,0-.05-.02-.07-.24-.25-.5-.51-.78-.79-.1-.08-.15-.19-.13-.33.02-.13.08-.24.19-.31.12-.08.26-.12.42-.1.16.02.29.08.41.18.95.87,1.71,1.71,2.29,2.52.08.12.11.26.08.42-.03.16-.11.28-.25.36-.13.08-.28.11-.42.08s-.26-.11-.36-.25c-.12-.19-.26-.37-.41-.56-.06-.07-.14-.11-.23-.11-.82.04-2.07.11-3.76.19-1.68.09-2.88.15-3.6.19-.16,0-.29-.05-.41-.15-.12-.1-.19-.23-.21-.4ZM303.58,366.34v-5.27c0-.16.05-.29.16-.39.1-.1.23-.16.37-.16s.27.05.38.16c.11.1.16.23.16.39v5.27c0,.15-.05.27-.16.37-.11.1-.24.16-.38.16s-.27-.05-.37-.16-.16-.23-.16-.37ZM307.83,366.34h.47c.16,0,.27-.03.34-.08.08-.05.14-.2.17-.44.02-.17.04-.54.05-1.12,0-.1.04-.18.13-.22.09-.04.18-.04.27,0,.27.15.41.35.41.61,0,.58-.05,1.05-.14,1.42-.08.29-.23.5-.45.62-.17.12-.41.19-.73.19h-.76c-.39,0-.69-.1-.89-.3-.11-.11-.19-.26-.24-.45-.05-.19-.07-.51-.07-.97v-4.64c0-.15.05-.27.16-.38.11-.11.24-.16.39-.16s.28.05.39.16c.11.11.16.24.16.38v4.75c0,.17,0,.29.02.37.01.08.03.14.06.17.07.05.16.08.26.08Z"/>
            <path class="cls-1" d="M317.8,353.42c.24-.33.56-.5.95-.5s.71.16.97.48c.76.97,1.67,1.86,2.73,2.68,1.06.82,2.14,1.49,3.24,1.99.15.07.24.19.28.34,0,.04.02.08.02.12,0,.11-.04.22-.11.31-.1.16-.24.26-.42.31-.06.02-.13.03-.2.03-.1,0-.21-.03-.31-.08-1.16-.61-2.29-1.36-3.38-2.23-1.09-.87-1.97-1.76-2.65-2.65-.02-.03-.05-.05-.09-.05s-.07.02-.09.05c-.61.88-1.45,1.77-2.51,2.66-1.06.89-2.19,1.66-3.4,2.31-.09.04-.19.06-.3.06-.06,0-.12,0-.17-.02-.17-.05-.3-.15-.41-.28-.07-.09-.11-.19-.11-.3,0-.04,0-.08.02-.11.02-.15.1-.25.23-.33,1.15-.59,2.24-1.32,3.26-2.19,1.02-.87,1.84-1.75,2.46-2.64ZM312.94,362.03c-.16,0-.29-.05-.4-.16-.11-.11-.16-.24-.16-.4s.05-.29.16-.4c.11-.11.24-.16.4-.16h12c.16,0,.29.05.4.16.11.11.16.24.16.4s-.05.29-.16.4c-.11.11-.24.16-.4.16h-6.79c-.1,0-.18.05-.23.14-.68,1.49-1.22,2.61-1.64,3.37-.02.03-.02.06,0,.09.02.03.05.05.08.05,2.2-.07,4.22-.15,6.06-.23.03,0,.05-.01.06-.04,0-.03,0-.05-.02-.09-.5-.56-1.02-1.11-1.57-1.64-.1-.1-.15-.23-.13-.37.02-.14.09-.25.21-.32.12-.07.26-.11.41-.11.03,0,.06,0,.09.02.18.01.33.08.45.2,1.2,1.11,2.2,2.2,2.98,3.27.1.15.14.3.1.48-.04.17-.13.3-.29.4-.1.06-.21.09-.33.09-.04,0-.09,0-.14-.02-.17-.03-.3-.12-.41-.26-.06-.09-.17-.24-.33-.45-.05-.08-.12-.12-.22-.11-1.4.06-3.32.15-5.74.25-2.43.1-3.85.17-4.28.19-.17.01-.31-.04-.44-.15s-.21-.25-.23-.41c-.02-.1-.01-.2.03-.3.04-.09.11-.17.19-.23.09-.06.18-.09.29-.1.47-.01,1-.02,1.59-.03.1,0,.18-.05.23-.14.57-1.06,1.1-2.2,1.57-3.41.01-.03,0-.06-.02-.09-.02-.03-.05-.05-.09-.05h-3.46ZM315.62,357.87h6.53c.15,0,.27.05.38.16.11.11.16.24.16.39s-.05.28-.16.38c-.11.1-.24.16-.38.16h-6.53c-.15,0-.27-.05-.38-.16-.11-.1-.16-.23-.16-.38s.05-.28.16-.39c.11-.11.24-.16.38-.16Z"/>
          </g>
          <g>
            <g>
              <path class="cls-1" d="M172.01,391.65v-9.22c0-.23.08-.42.24-.58.16-.16.35-.24.58-.24s.46.07.66.21c.2.14.34.33.42.55l1.77,4.94c.33.97.58,1.7.75,2.18,0,.02.03.03.05.03s.04,0,.05-.03c.08-.24.19-.6.35-1.09.16-.49.28-.85.36-1.1l1.76-4.94c.09-.23.23-.41.43-.55s.42-.21.67-.21c.22,0,.41.08.57.24.16.16.24.35.24.58v9.19c0,.18-.06.33-.18.45-.12.12-.27.18-.45.18s-.32-.06-.45-.18c-.12-.12-.18-.27-.18-.45v-5.26c0-.61.06-1.64.17-3.11,0-.02,0-.03-.03-.03s-.03,0-.03.03l-.84,2.4-1.87,5.11c-.05.13-.13.24-.23.31-.11.08-.23.11-.37.11s-.26-.04-.37-.11c-.11-.08-.19-.18-.23-.31l-1.86-5.11-.84-2.4s-.02-.03-.04-.03-.03,0-.03.03c.1,1.67.16,2.71.16,3.11v5.29c0,.17-.06.31-.18.43s-.26.18-.43.18-.31-.06-.43-.18c-.12-.12-.18-.26-.18-.43Z"/>
              <path class="cls-1" d="M185.94,390.24c-.86,0-1.58-.3-2.16-.89-.58-.59-.86-1.4-.86-2.41,0-.49.08-.95.24-1.37.16-.42.37-.78.64-1.06.26-.28.57-.5.91-.65.34-.16.7-.23,1.06-.23.73,0,1.32.23,1.75.69.44.46.68,1.09.74,1.89v.08c0,.24-.09.45-.27.62-.21.19-.46.28-.75.28h-3.16s-.05.01-.07.03c-.02.02-.03.05-.03.08.05.64.27,1.15.65,1.53.38.38.86.57,1.44.57.44,0,.85-.1,1.24-.31.09-.05.19-.05.3-.03.11.03.19.09.24.18.05.1.07.2.04.31-.03.11-.09.19-.19.24-.56.3-1.15.44-1.76.44ZM183.98,386.34s.01.04.03.06c.02.02.04.03.07.03h3.16s.07,0,.09-.03c.02-.02.03-.04.03-.07h0c-.02-.61-.16-1.07-.43-1.39s-.65-.48-1.14-.48c-.45,0-.84.17-1.17.5-.42.41-.64.87-.64,1.37Z"/>
              <path class="cls-1" d="M192.37,390.24c-.86,0-1.58-.3-2.16-.89-.58-.59-.86-1.4-.86-2.41,0-.49.08-.95.24-1.37.16-.42.37-.78.64-1.06.26-.28.57-.5.91-.65.34-.16.7-.23,1.06-.23.73,0,1.32.23,1.75.69.44.46.68,1.09.74,1.89v.08c0,.24-.09.45-.27.62-.21.19-.46.28-.75.28h-3.16s-.05.01-.07.03c-.02.02-.03.05-.03.08.05.64.27,1.15.65,1.53.38.38.86.57,1.44.57.44,0,.85-.1,1.24-.31.09-.05.19-.05.3-.03.11.03.19.09.24.18.05.1.07.2.04.31-.03.11-.09.19-.19.24-.56.3-1.15.44-1.76.44ZM190.41,386.34s.01.04.03.06c.02.02.04.03.07.03h3.16s.07,0,.09-.03c.02-.02.03-.04.03-.07h0c-.02-.61-.16-1.07-.43-1.39s-.65-.48-1.14-.48c-.45,0-.84.17-1.17.5-.42.41-.64.87-.64,1.37Z"/>
              <path class="cls-1" d="M198.25,390.24c-.64,0-1.1-.18-1.38-.54-.28-.36-.41-.88-.41-1.55v-3.41c0-.06-.03-.09-.1-.09h-.44c-.11,0-.21-.04-.28-.12-.08-.08-.11-.18-.11-.29,0-.11.04-.2.11-.28.08-.08.17-.13.28-.14l.49-.03c.07,0,.1-.03.1-.1l.09-1.23c0-.12.06-.23.15-.31s.2-.13.33-.13c.12,0,.22.04.31.13.09.09.13.19.13.31v1.21c0,.08.04.11.11.11h1.16c.12,0,.22.04.31.12.08.08.12.19.12.31s-.04.22-.12.31c-.08.08-.19.12-.31.12h-1.16c-.08,0-.11.04-.11.11v3.41c0,.41.07.71.22.92.15.2.4.31.75.31.09,0,.2-.02.33-.05.11-.02.21,0,.31.04.1.05.16.13.18.23.02.04.02.08.02.11,0,.07-.02.14-.06.2-.05.1-.14.16-.25.19-.3.08-.55.11-.77.11Z"/>
              <path class="cls-1" d="M202.49,390.24c-1.28,0-1.92-.82-1.92-2.46v-3.46c0-.15.05-.28.15-.38.1-.1.23-.15.37-.15s.27.05.37.15c.1.1.15.23.15.38v3.34c0,.59.09,1.02.28,1.28.19.26.49.39.91.39.3,0,.58-.07.83-.22s.52-.4.81-.75c.05-.06.07-.13.07-.2v-3.82c0-.15.05-.28.15-.38.1-.1.23-.15.37-.15s.27.05.37.15c.1.1.15.23.15.38v5.33c0,.12-.04.23-.12.31-.08.09-.19.13-.32.13-.12,0-.23-.04-.32-.13-.09-.08-.14-.19-.16-.32l-.03-.53s-.02-.01-.03-.01-.02,0-.03.01c-.32.37-.64.65-.97.84s-.7.28-1.11.28Z"/>
              <path class="cls-1" d="M207.7,392.26v-8.01c0-.12.04-.22.13-.31.09-.08.19-.13.31-.13s.23.04.32.12c.09.08.15.18.16.31l.03.27s0,.01.02.01.02,0,.03-.01c.72-.58,1.38-.87,2-.87.8,0,1.42.29,1.86.87.44.58.66,1.36.66,2.36,0,.52-.08,1-.23,1.44-.15.44-.35.79-.61,1.08-.25.28-.54.5-.87.66-.33.15-.68.23-1.04.23-.54,0-1.09-.22-1.66-.66-.02-.02-.03-.02-.06-.01-.02,0-.03.02-.02.05v1s.01,1.61.01,1.61c0,.14-.05.27-.15.37-.1.1-.23.15-.37.15s-.27-.05-.37-.15c-.11-.1-.16-.23-.16-.37ZM210.31,389.39c.53,0,.96-.22,1.3-.68s.51-1.06.51-1.83c0-1.56-.55-2.34-1.66-2.34-.48,0-1.02.26-1.61.79-.06.05-.09.12-.09.19v3.09c0,.08.03.14.09.18.49.39.98.59,1.46.59Z"/>
            </g>
            <g>
              <path class="cls-1" d="M218.53,383.87c.08.02.13.06.17.13.02.05.03.09.03.14,0,.03,0,.05-.02.08-.02.07-.06.12-.13.16-.07.03-.14.04-.21.03-.07-.02-.14-.02-.21-.02-.4,0-.6.28-.6.84v.6c0,.05.03.08.08.08h.53c.08,0,.14.03.2.08.06.06.09.13.09.21s-.03.15-.09.21c-.06.06-.13.08-.2.08h-.53c-.05,0-.08.03-.08.08v3.23c0,.1-.04.19-.11.26-.07.07-.16.1-.25.1s-.18-.03-.25-.1c-.07-.07-.1-.15-.1-.26v-3.25s-.02-.06-.06-.06h-.25c-.08,0-.14-.03-.19-.08-.05-.05-.08-.12-.08-.19,0-.07.03-.13.08-.19.05-.06.11-.09.19-.09l.25-.02s.06-.02.06-.06v-.62c0-.44.1-.79.31-1.03.2-.24.51-.37.92-.37.15,0,.3.02.45.05Z"/>
              <path class="cls-1" d="M218.94,388.02c0-.34.05-.65.16-.94.11-.29.25-.52.44-.71.18-.19.39-.33.63-.43.24-.1.49-.15.75-.15s.51.05.75.15c.24.1.45.25.63.43.18.19.32.42.43.71.11.29.16.6.16.94s-.05.66-.16.94c-.11.28-.25.52-.43.7-.18.19-.39.33-.63.43s-.49.15-.75.15-.51-.05-.75-.15-.45-.24-.63-.43c-.18-.19-.33-.42-.44-.7-.11-.28-.16-.6-.16-.94ZM222.15,388.02c0-.48-.11-.88-.34-1.18-.23-.31-.53-.46-.89-.46s-.66.15-.89.45c-.22.3-.34.7-.34,1.19s.11.88.34,1.18c.22.3.52.45.89.45s.67-.15.89-.45c.23-.3.34-.69.34-1.18Z"/>
              <path class="cls-1" d="M224,389.78v-3.6c0-.08.03-.15.09-.21.06-.06.13-.08.21-.08s.15.03.21.08c.06.06.09.13.1.21l.04.47s0,0,.01,0,.01,0,.02,0c.15-.28.33-.49.54-.64s.43-.23.66-.23h.15c.09.01.16.06.21.14.03.06.05.11.05.18,0,.03,0,.06,0,.09-.02.08-.07.14-.14.18-.07.04-.14.06-.21.06h-.13c-.19,0-.38.07-.57.22-.19.15-.35.37-.48.68-.02.05-.03.1-.03.15v2.29c0,.1-.03.19-.1.26-.07.07-.15.1-.25.1s-.18-.03-.25-.1c-.07-.07-.11-.15-.11-.26Z"/>
            </g>
            <g>
              <path class="cls-1" d="M229.6,391.47v-8.48c0-.09-.05-.14-.14-.14h-2.45c-.16,0-.29-.05-.39-.16s-.16-.24-.16-.39.05-.28.16-.39.24-.17.39-.17h6.5c.15,0,.28.06.39.17.11.11.17.24.17.39s-.06.28-.17.39c-.11.11-.24.16-.39.16h-2.46c-.09,0-.14.05-.14.14v8.48c0,.18-.06.34-.19.47-.13.13-.28.19-.46.19s-.33-.06-.46-.19c-.13-.13-.19-.29-.19-.47Z"/>
              <path class="cls-1" d="M242.36,392.13c-.2,0-.39-.06-.55-.19-.17-.12-.28-.28-.35-.48l-.75-2.38c-.03-.08-.09-.12-.18-.12h-3.51c-.09,0-.15.04-.18.12l-.76,2.41c-.06.19-.18.35-.33.46-.16.12-.34.17-.54.17-.17,0-.29-.06-.39-.19-.06-.09-.08-.18-.08-.28,0-.05,0-.11.03-.17l3.07-9.06c.07-.2.2-.37.37-.5.17-.13.37-.19.59-.19s.42.06.59.19c.18.13.3.3.37.5l3.07,9.03c.02.06.03.12.03.18,0,.09-.03.18-.08.28-.1.14-.24.21-.42.21ZM237.25,387.78s0,.07.01.1c.02.03.05.04.08.04h2.86s.06-.01.08-.04c.02-.03.02-.06.01-.1l-.46-1.45c-.29-.87-.63-2.03-1.04-3.49,0-.02-.02-.03-.04-.03s-.03,0-.03.03c-.26.96-.6,2.12-1.04,3.49l-.46,1.45Z"/>
              <path class="cls-1" d="M245.7,392.13c-.33,0-.62-.12-.85-.35-.24-.24-.35-.52-.35-.85v-7.98c0-.33.12-.62.35-.85.23-.24.52-.35.85-.35h1.9c1.12,0,1.99.21,2.62.62s.95,1.05.95,1.93c0,.52-.13.98-.4,1.39-.27.41-.63.69-1.09.85-.03,0-.04.03-.04.05s.01.03.04.03c.64.13,1.14.4,1.52.82.38.42.57.97.57,1.65,0,.99-.36,1.74-1.07,2.26-.71.52-1.67.78-2.87.78h-2.12ZM245.83,386.03c0,.09.05.14.14.14h1.4c1.67,0,2.5-.57,2.5-1.72,0-.59-.2-1.02-.6-1.28-.4-.26-1.02-.39-1.85-.39h-1.45c-.09,0-.14.05-.14.14v3.11ZM245.83,390.94c0,.09.05.14.14.14h1.67c1.89,0,2.84-.68,2.84-2.03,0-1.25-.95-1.87-2.84-1.87h-1.67c-.09,0-.14.05-.14.14v3.62Z"/>
              <path class="cls-1" d="M255,392.13c-.33,0-.62-.12-.85-.35-.24-.24-.35-.52-.35-.85v-8.52c0-.18.06-.34.19-.47.13-.13.29-.19.47-.19s.34.06.47.19c.13.13.19.29.19.47v8.46c0,.09.05.14.14.14h3.83c.16,0,.29.05.39.17.11.11.16.24.16.39s-.05.28-.16.39c-.11.11-.24.17-.39.17h-4.09Z"/>
              <path class="cls-1" d="M262.67,392.13c-.33,0-.62-.12-.85-.35-.24-.24-.35-.52-.35-.85v-7.98c0-.33.12-.62.35-.85.23-.24.52-.35.85-.35h4.25c.15,0,.28.06.39.17s.17.24.17.39-.06.28-.17.39-.24.16-.39.16h-3.98c-.09,0-.14.05-.14.14v2.99c0,.09.05.14.14.14h3.24c.16,0,.29.05.39.16.11.11.16.24.16.39s-.05.29-.16.4c-.11.11-.24.17-.39.17h-3.24c-.09,0-.14.05-.14.14v3.5c0,.09.05.14.14.14h4.12c.16,0,.29.05.4.17.11.11.17.24.17.39s-.06.28-.17.39-.24.17-.4.17h-4.38Z"/>
              <path class="cls-1" d="M277.05,392.31c-1.39,0-2.52-.48-3.38-1.44-.86-.96-1.29-2.27-1.29-3.93s.44-2.96,1.33-3.94c.89-.97,2.03-1.46,3.42-1.46,1,0,1.86.3,2.6.91.12.1.18.24.18.41,0,.15-.05.28-.14.39-.09.11-.21.17-.37.18-.15,0-.28-.03-.39-.12-.53-.42-1.14-.62-1.84-.62-1.05,0-1.89.38-2.51,1.13-.62.76-.93,1.78-.93,3.07s.3,2.37.9,3.13,1.45,1.13,2.56,1.13c.74,0,1.33-.17,1.77-.51.07-.05.11-.13.11-.23v-2.43c0-.09-.05-.14-.14-.14h-1.52c-.15,0-.27-.05-.38-.16-.11-.11-.16-.24-.16-.39s.05-.28.16-.39c.11-.11.23-.16.38-.16h1.66c.33,0,.62.12.85.35.23.24.35.52.35.85v1.95c0,.42-.08.8-.24,1.14s-.4.6-.73.77c-.67.33-1.42.5-2.25.5Z"/>
              <path class="cls-1" d="M289.16,392.13c-.2,0-.39-.06-.55-.19-.17-.12-.28-.28-.35-.48l-.75-2.38c-.03-.08-.09-.12-.18-.12h-3.51c-.09,0-.15.04-.18.12l-.76,2.41c-.06.19-.18.35-.33.46-.16.12-.34.17-.54.17-.17,0-.29-.06-.39-.19-.06-.09-.08-.18-.08-.28,0-.05,0-.11.03-.17l3.07-9.06c.07-.2.2-.37.37-.5.17-.13.37-.19.59-.19s.42.06.59.19c.18.13.3.3.37.5l3.07,9.03c.02.06.03.12.03.18,0,.09-.03.18-.08.28-.1.14-.24.21-.42.21ZM284.06,387.78s0,.07.01.1c.02.03.05.04.08.04h2.86s.06-.01.08-.04c.02-.03.02-.06.01-.1l-.46-1.45c-.29-.87-.63-2.03-1.04-3.49,0-.02-.02-.03-.04-.03s-.03,0-.03.03c-.26.96-.6,2.12-1.04,3.49l-.46,1.45Z"/>
              <path class="cls-1" d="M291.3,391.54v-8.99c0-.22.08-.41.23-.57.16-.16.35-.24.57-.24s.44.07.64.21.33.32.41.54l1.73,4.81c.32.95.57,1.66.73,2.13,0,.02.03.03.05.03s.04,0,.05-.03c.07-.23.19-.58.34-1.06.15-.47.27-.83.35-1.07l1.72-4.81c.08-.22.22-.4.42-.54s.41-.21.65-.21c.21,0,.4.08.55.24.16.16.23.35.23.57v8.96c0,.17-.06.32-.18.44-.12.12-.27.18-.44.18s-.32-.06-.44-.18c-.12-.12-.18-.27-.18-.44v-5.13c0-.59.06-1.6.17-3.03,0-.02,0-.03-.03-.03s-.03,0-.03.03l-.82,2.34-1.83,4.98c-.05.13-.12.23-.23.3-.11.07-.23.11-.36.11s-.25-.04-.36-.11c-.11-.07-.18-.18-.23-.3l-1.81-4.98-.82-2.34s-.02-.03-.04-.03-.03,0-.03.03c.1,1.63.15,2.64.15,3.03v5.16c0,.17-.06.31-.17.42-.12.12-.25.17-.42.17s-.3-.06-.42-.17c-.12-.12-.18-.26-.18-.42Z"/>
              <path class="cls-1" d="M304,392.13c-.33,0-.62-.12-.85-.35-.24-.24-.35-.52-.35-.85v-7.98c0-.33.12-.62.35-.85.23-.24.52-.35.85-.35h4.25c.15,0,.28.06.39.17s.17.24.17.39-.06.28-.17.39-.24.16-.39.16h-3.98c-.09,0-.14.05-.14.14v2.99c0,.09.05.14.14.14h3.24c.16,0,.29.05.39.16.11.11.16.24.16.39s-.05.29-.16.4c-.11.11-.24.17-.39.17h-3.24c-.09,0-.14.05-.14.14v3.5c0,.09.05.14.14.14h4.12c.16,0,.29.05.4.17.11.11.17.24.17.39s-.06.28-.17.39-.24.17-.4.17h-4.38Z"/>
              <path class="cls-1" d="M314.02,392.31c-1.22,0-2.29-.38-3.21-1.13-.13-.11-.19-.26-.19-.44,0-.16.05-.29.16-.41.11-.12.24-.18.39-.19h.03c.16,0,.29.05.4.14.76.59,1.57.88,2.43.88.67,0,1.21-.15,1.6-.46.39-.31.59-.72.59-1.24,0-.2-.03-.39-.1-.55-.06-.17-.14-.3-.22-.42-.08-.11-.21-.22-.39-.34s-.33-.2-.45-.26c-.12-.06-.31-.15-.57-.27l-1.49-.65c-1.41-.6-2.12-1.48-2.12-2.66,0-.8.31-1.46.93-1.98s1.4-.78,2.35-.78,1.88.31,2.66.93c.11.09.17.22.18.37,0,.16-.03.29-.12.4-.09.12-.21.18-.37.19-.15,0-.29-.03-.41-.11-.58-.42-1.23-.64-1.94-.64-.59,0-1.06.14-1.42.42-.36.28-.53.65-.53,1.12,0,.19.04.37.11.53.07.16.16.3.25.4.09.11.23.21.42.32.18.11.33.19.45.25.12.06.28.13.49.22l1.49.64c.68.29,1.21.65,1.58,1.07.37.42.55.98.55,1.69,0,.85-.32,1.55-.97,2.11-.65.56-1.5.84-2.56.84Z"/>
            </g>
          </g>
          <g>
            <path class="cls-1" d="M218.98,434.57v-27.15c0-.55.19-1.02.58-1.41s.86-.58,1.41-.58,1.02.19,1.41.58c.39.39.58.86.58,1.41v13.6s.02.04.06.04.08-.01.1-.04l11.52-13.89c.94-1.13,2.14-1.7,3.61-1.7.44,0,.76.2.95.6.19.4.15.78-.12,1.14l-8.08,9.78c-.17.22-.18.46-.04.7l9.95,17c.11.22.17.44.17.64s-.06.42-.17.64c-.25.41-.62.62-1.12.62-.66,0-1.29-.17-1.89-.52-.59-.34-1.07-.81-1.43-1.39l-7.96-13.93c-.06-.11-.13-.17-.23-.17s-.19.03-.27.08l-4.81,5.76c-.17.19-.25.43-.25.7v7.46c0,.55-.19,1.02-.58,1.41s-.86.58-1.41.58-1.02-.19-1.41-.58c-.39-.39-.58-.86-.58-1.41Z"/>
            <path class="cls-1" d="M255.34,437.09c-3.15,0-5.78-1.08-7.88-3.25-2.1-2.17-3.15-5.11-3.15-8.81,0-1.8.29-3.47.87-5.02.58-1.55,1.35-2.83,2.32-3.86.97-1.02,2.08-1.82,3.34-2.38,1.26-.57,2.55-.85,3.88-.85,2.68,0,4.82.84,6.4,2.51,1.59,1.67,2.49,3.97,2.72,6.9v.29c0,.88-.33,1.64-.99,2.28-.77.69-1.69,1.04-2.74,1.04h-11.52c-.11,0-.2.04-.27.12-.07.08-.1.18-.1.29.19,2.35.98,4.21,2.36,5.6,1.38,1.38,3.14,2.07,5.26,2.07,1.6,0,3.11-.37,4.52-1.12.33-.17.69-.2,1.08-.1.39.1.68.31.87.64.19.36.24.74.15,1.14-.1.4-.33.7-.68.89-2.05,1.08-4.19,1.62-6.43,1.62ZM248.17,422.83c0,.08.04.15.12.21.06.08.14.12.25.12h11.52c.14,0,.24-.03.31-.1s.1-.16.1-.27v-.04c-.06-2.18-.58-3.85-1.58-5.02s-2.38-1.74-4.15-1.74c-1.63,0-3.05.61-4.27,1.82-1.55,1.49-2.32,3.16-2.32,5.02Z"/>
            <path class="cls-1" d="M273.58,436.27c-.55.55-1.22.83-2.01.83s-1.45-.27-1.99-.81-.81-1.24-.81-2.09.27-1.58.81-2.16c.54-.58,1.19-.87,1.97-.87s1.44.29,1.99.87c.55.58.83,1.3.83,2.16s-.26,1.55-.79,2.07Z"/>
          </g>
        </g>
        <path class="cls-1" d="M441.72,142.15c-8.8,5.37-22.73,12.28-39.61,18.41v-9.97c0-15.34.74-30.68,2.2-45.26,13.2,8.43,27.13,17.64,34.46,21.47,5.14,3.08,7.35,6.15,7.35,9.21,0,2.3-1.47,4.61-4.4,6.15ZM169.68,248.8c-4.4,0-10.26,7.67-17.59,19.17-8.8,13.06-80.67,145.78-84.32,152.69-2.94,4.61-6.6,14.58-11.75,14.58-12.46,0-17.59-52.17-17.59-79.03,0-101.28,46.19-147.31,46.19-223.27,0-43.74-30.06-88.24-64.52-107.43-5.14-3.07-9.53-4.61-11.73-4.61-1.47,0-5.87.78-5.87,5.38,0,2.3,2.2,5.37,5.87,9.2,21.99,23.03,28.59,59.08,28.59,89.78,0,81.33-31.53,136.57-31.53,240.16,0,46.04,8.8,165.73,61.59,227.88,5.15,5.37,12.47,11.51,19.8,11.51,5.13,0,21.26-3.84,21.26-22.25,0-19.95-19.79-46.8-19.79-81.33s37.39-155,76.25-227.88c5.13-9.97,8.8-16.88,8.8-19.95s-1.47-4.61-3.67-4.61ZM501.11,128.34c-7.33-12.28-31.53-9.97-48.41-15.34-17.58-5.37-33.72-13.82-46.19-21.49,1.47-13.82,3.67-24.55,5.13-29.92,1.47-6.15,2.94-11.52,2.94-16.12,0-29.14-49.86-42.96-83.6-42.96-9.53,0-16.86,1.54-16.86,6.13,0,2.3,2.2,6.15,8.8,9.21,10.26,4.61,30.79,21.49,34.46,49.11,2.2,14.58,4.4,60.62,5.86,108.19-31.53,10.74-63.05,18.41-79.18,18.41-13.95,0-40.34-4.61-54.26-9.97q-4.4-1.53-6.6-1.53c-2.2,0-3.67,1.53-3.67,3.07,0,2.3,1.47,4.61,3.67,6.91,16.86,16.1,63.05,36.83,92.38,36.83,11.73,0,29.33-3.84,49.14-10.75l1.47,77.51c0,26.08,0,63.67-3.67,91.31-11,84.4-42.53,189.51-129.78,233.25-7.33,3.84-8.8,5.37-8.8,7.67s1.47,4.61,5.13,4.61c2.2,0,4.4-.76,6.6-1.54,21.27-7.67,93.12-46.03,131.99-116.62,39.61-71.36,41.81-138.11,41.81-159.59,0-39.91-2.94-105.89-4.4-151.17,37.39-15.34,73.32-33.75,84.32-42.2,8.79-6.89,14.66-10.74,14.66-23.01,0-3.84-.73-7.67-2.93-9.97Z"/>
      </g>
    </g>
  </g>
</svg>