<?xml version="1.0" encoding="UTF-8"?>
<svg id="_レイヤー_2" data-name="レイヤー 2" xmlns="http://www.w3.org/2000/svg" viewBox="0 0 180 180">
  <defs>
    <style>
      .cls-1 {
        fill: #5b3117;
      }

      .cls-2 {
        fill: none;
      }
    </style>
  </defs>
  <g id="_レイヤー_1-2" data-name="レイヤー 1">
    <g>
      <path class="cls-1" d="M90,0L12.06,45v90l77.94,45,77.94-45V45L90,0ZM23.28,51.48L90,12.96l66.72,38.52v77.04l-66.72,38.52-66.72-38.52V51.48Z"/>
      <rect class="cls-2" width="180" height="180"/>
    </g>
    <g>
      <g>
        <path class="cls-2" d="M62.37,88.77c.16.15.49.99.82,1.35.47.5,1.73,1.28,1.97,1.84.2.45.06.83.62,1.17-.25.66-1.2-.34-1.38-.63-.1-.16-.02-.29-.06-.37-.41-.81-.38-.28-.61-.1-.39.31-1.09.11-1.53.42-.71-1.51-1.51.47-2.2.62-.55.12-1.51-.29-2.09-.3-1.04-.01-1.78.83-.26.74.25.19-1.51.32-1.61.34-.29.07-.77.36-.89.38-.15.02-.34-.27-.56-.19v.74s-.58-.1-.58-.1l-.17.3c-.56-.37-.7-.05-1.26,0l.2.46-.26.28c-.62-.87-1.5-.98-2.49-.69-.23.12.19.38.28.46l1.09.33c-1.28.22-2.37,1.14-3.7,1.16l1.32-.63c.14-.22.02-.45-.16-.59l-.74.27c.79-3.23,4.3-4.55,6.79-6.26,1.07.04,2.29-.79,3.29-.39.58.23.46.77,1.26.29.71-.42.36-1.14.66-1.24.38-.13,1.93.04,2.23.33Z"/>
        <path class="cls-2" d="M43.06,81.35l-.7.94-.25.11.53.26c-.17.19-.32.4-.44.62-.44.79-.76,1.76-1.31,2.49s-1.48-.06-1.04.85l-2.07,2.64c-.42-.88-.37-3.16.31-3.86.22-.22,1.01-.3,1.06-.52.06-.28-.41-.42-.63-.26-.05-.05.14-.52.2-.59.22-.24.56,0,.43-.57.25,0,.63-.09.74.21l-.63.11c.11.8.81-.01,1.16-.27l-.53-.1c.76-.88,1.88-2.29,3.17-2.06Z"/>
        <g>
          <path class="cls-1" d="M128.77,47.74c.55-.18.5,1.08.37,1.37-.05.11-.24.2-.31.32-.4.69-.77,1.58-1.59.62-.99-1.16.35-3.32-.64-4.33-.26-.26-.72-.38-1-.59-1.69-1.25-1.06-3.46-2.7-4.68-1.73,1.06-2.5,3.44-1.88,5.35.74,2.27,3.77,2.38,4.98,4.32.17.27.23.7.41.89.4.4,1.33.35,1.83.78.36.31.29.62.58,1.01.76,1.02,2.9,1.74,2.89,3.35,0,.07-.76,1.1-.82,1.14-.18.11-.43.04-.63.05v.51s-.42.12-.42.12c.6.99,1.16,2.26,1.27,3.43.02.27.05,1.38-.01,1.57-.05.14-.4.23-.57.38-.47.4-.61,1.27-1.37,1.29-.41.01-.58.07-.84.08-.17,0-.39-.15-.59-.09l.1.53-.32-.11c-.31.95.18,2.05-.41,2.93l.72.93c-.58.23-.41,1.23.21,1.32l-.24.1c-.28.18.11.24.25.36.38.35.06.65,0,1.08-.1.81-.08,1.67-.29,2.45-.09.34-.42.86-.44,1.05-.03.24.23.36.2.7-.04.43-.59.78-.32,1.33l-.42.17.19.71-.4.29.52,1.42-.31.26c.78.08.58.99,1.04,1.44v.14s-.41.27-.41.27c1.02.69.92,1.44,1.24,2.46.37,1.19,1.62,4.22,1.61,5.26,0,.36-.3.94-.31,1.38,0,.27.16.58.1.89l.32-.21c-.1,2.45-1.26,4.67-2.22,6.87-.2.02-.08-.21-.06-.32.08-.36.23-.71.27-1.11,0-.11.08-.49-.1-.47-.21,1.13-1.08,2.07-1.06,3.27l.58-.42-.46,2.47-.85-.04c-.12.09-.17,2.29-.65,2.9-.18.22-.27-.02-.5.23-.59.64-.48,2.05-1.39,2.37l.32-.84c-.82.18-.5,1.23-.95,1.74l.42.05-.21,2.01c-.57-.34-.79.51-.95.95l-.42-.32-1.18,1.88-.19-.09c.07,1.22-1.31,1.49-1.9,2.27-.31.41-.48,1.04-.8,1.52-1.53,2.27-4.24,2.94-6.49,4.18-2.01,1.11-3.98,2.2-6.02,3.28-.72.38-1.14,1.01-2.01.64-.83.86-.8,2.7-1.74,3.43-.38.3-.76.25-1.04.42-.1.06-.49.72-.76.95-.58.5-1.53.94-2.2,1.39-.14.1-.36.37-.46.39s-.88-.42-1.36-.42c-1.43,0-1.83,1.11-2.69,1.96,1.71,1.47,2.49,3.69,3.91,5.39.4.48,1.11.95,1.44,1.36.31.37.41,1.15.96,1.42.63.31,2.63-.24,3.47-.29.56-.03,2.62-.03,3.01.26.17.13.24.62.71.87.29.15,2.36.69,2.75.75.43.07.63-.29,1.14.12.17.14.2.36.41.44.94.37,2.76-.13,3.81.29l.06.65c-1.57.02-3.14-.03-4.71,0-.28,0-.55.13-.84.12-.36-.01-.52-.23-.95-.23-.4,0-.69.21-.95.21-.31,0-.68-.3-1.05-.3-.43.01-.99.37-1.4.41s-.92-.13-1.45-.09c-.6.04-1.25.28-1.86.3.28.38,1.23.69,1.48,1,.08.1.16.13,0,.22-.53.29-1.02-.31-1.46-.45-.35-.12-.8-.05-1.21-.16-.66-.17-1.5-.82-2.09-.08,1.98,1.01,4.17,1.47,6.34,1.9l-.34-.72-.93-.02c.3-.99.86.03,1.26.16.21.07.44.02.64.1,1.07.39,2.57.77,2.96,1.95-.82-.19-1.04.82-1.75.85-.45.02-1.69-.62-2.27-.8-1.01-.31-2.13-.43-3.12-.79-.76-.27-1.39-.77-2.14-1.03-1.83-.63-4.04-.4-4.94-2.56-1.71.78-3.71,1.76-5.6,1.89-1.36.09-1.8.1-1.54-1.41.81-.09,1.15-1.53,1.04-2.21-.22-1.37-2.32-2.01-2.3-3.56-.82.61.21,1.51.62,2.08.09.13.09.33.18.45.28.37.83.59.97,1.25.08.38-.06,1.22-.54,1.18-.79-.07-1.18-2.14-1.93-2.2-.34-.03-.41.32-.82.09-.33-.18-.53-.56-.49-.94-2.06.9-3.99-1.07-6.06-.65l-1.23-1.32c-.03-.14.11-.23.21-.29.47-.3,2.62-.21,3.32-.27l3.01-.53c-.19-1.02-.56-2.08-.63-3.12-.14-1.94.44-3.97-.95-5.6-.18-.21-.43-.23-.61-.55-.48-.88-.38-2.15-.96-3.06-.36-.57-1.03-.78-1.2-1.22-.08-.2-.19-.67-.19-.88-.01-.79.35-1.55-.16-2.37-.99-1.6-3.6-1.99-5.12-2.8-.81-.43-1.55-1.28-2.36-1.66-.55-.26-1.16-.26-1.69-.53-.87-.43-1.67-1.93-2.56-2.09-.24-.04-.59.06-.79-.06-.07-.04-.59-1.26-.72-1.5-.17-.3-1.25-2.12-1.39-2.19-.06-.03-.15.01-.21.04.08-1.17-.66-.35-1.27-.21.37,1.05-.61.4-1.16.63l.11.42c-.51-.33-.88.68-1.21-.11l-.48.42.63-1.53h-.53c.45-.35.21-.99.39-1.4.07-.16.25-.09.25-.18,0-.27-.38-.3-.57-.37-.16.18-.31.4-.17.63l-.42.17c.84,1.04-.16.87-.5,1.24-.14.15-.03.48-.24.5-.11-.86.11-1.35.55-2.04.14-.22.71-1.01.88-1.13.29-.21.66-.17.85-.63l.32.2.58-.53c-.69-.71.59-.99.72-1.45l-.18-1.55c.06-1.64.91-4.01-.68-5.13l-.42.3c-.54-.38-.77-1.36-1.44-1.53-.48-.12-.54.08-.91.15-3.58.64-5.95,1.64-9.29,2.87-.9.33-2.16.58-2.97.94-.42.19-.65.86-1,.48-.4-.43-.05-1.11-.32-1.48-.18-.25-.52-.01-.43-.57-.4-.16-1-.04-.94-.65l.51.1c.11-.25.29-.47.23-.77-.02-.11-.32,0-.21-.28h.63s-.32-.63-.32-.63c.33.11.98.03,1.14-.29.24-1.69.19-3.42.63-5.08.08-.3.41-1.35.57-1.55.17-.21.42-.14.63-.32.29-.23.42-.89.74-1.16.17-.15.45-.19.62-.33.49-.41.83-1.04,1.59-1l.1-.58.96-.15c-.29-.73-1.27-.67-1.94-.62-1.02.07-1.58.31-2.38.89-1.95,1.42-3.09,3.87-4.45,5.8-1.19.41-1.43-.86-1.59-1.74-.54-.46-2.13,1.86-2.29,2.3-.24.67-.16,1.85-.26,2.6-.07.59-.17,1.19-.36,1.76-.14.18-.11.06-.21,0-.41-.24-.85-.54-.58-1.06l-.52-.16.31-.9h-.42c-.01-.29.06-.66-.07-.93s-.58-.19-.73-.86c-.21-.94.96-1.96.59-2.96.48.03,1.06.03,1.37-.42-.47.04-.03-.56-.16-.74-.38-.03-.55-.19-.84-.42-1.15-.94-1.87-2.28-2.06-3.75-.05-.36.05-.76-.03-1.14-.07-.35-.57-.76-.49-1.06.65-.69,1.62-1.04,2.1-1.92l-1.06-.16v-.32c.48-.03.92.29,1.32-.11l-.58-.69c.71-.79,2.03.49,2.44-.78l.84.26.21-.22-.42-.58c1.13-.74,2.53-.44,3.7-.79.3-.09.8-.45.91-.46.19-.02.95.65,1.04.09l-.58-.53.95.1c.11-.36-.41-.47-.27-.74s.81-.61,1.12-.64l-.2-.67.83-.5-.1-.31.63-.11c-.21-.62-.7-.52-1.2-.3-1.61.69-4,1.94-5.53,2.82-1.02.59-2,1.29-2.84,2.13l-.58-.79c.72-.45,1.16-1.08,1.16-1.95-.36-.06-.18.38-.49.51-.1.04-.42.1-.35-.14.23-.26.52-.48.74-.74.26-.32.53-.6.75-.86.14-.17.53-1.14.29-1.29-.2-.06-.66.03-.72-.23.52-.19,1.7-.46,2.01-.9.24-.34-.13-.38.52-.31.72-1.66,2.58-2.24,4.09-3,2.58-1.31,3.38-1.24,6.2-1.62.57-.08,1.57-.41,2.02-.41s1.4.37,2.01.42c2.24.18,4.77-.45,6.55,1.37l.1-.53c.86.99,1.81,1.69,2.94,2.34.53.31,1.48.62,1.91.95.25.19.33.51.54.73.7.74,1.88.93,2.64,1.58s1.27,1.86,2.06,2.48c1.12.87,1.38.32,2.24,1.88.91,1.66,1.43,4.41,3.92,4.06.76-.11.83-.52,1.38-.73.48-.19,1.08-.15,1.58-.32.24-.08.45-.31.6-.35.21-.06.36.45.64.38v-.42c1.42.49,3.13-1.11,4.47-.82.47.1.52.49,1.16.27.48-.17.7-.62,1.1-.91l.69.25c.22-.03.24-.32.43-.4.23-.1.49-.04.72-.13.16-.07.4-.44.59-.58.66-.49,1.29-.8,1.69-1.59l.17.51c1.04.11,1.49-1.19,2.06-1.88.12-.15.38-.23.47-.37.18-.27.05-.55.12-.83.37-1.47,1.36-2.41,2.04-3.67.46-.85.61-1.71,1.05-2.54.57-1.07,1.55-2.02,2.08-3.1.56-1.14.66-1.57,1.47-2.66s1.64-2.04,2.48-3.02c1.23-1.44,2.8-3.36,4.31-4.35,1.05-.69,1.53-1.83,2.25-2.82.36-.49.54-.69.88-1.23.56-.88,1.97-1.46,2.8-2.16,1.18-.99,2.01-2.32,3.66-2.71.42-1.62.8-3.25,1.39-4.82.1-.26.74-1.91.83-1.97.11-.08.4.1.59.02.34-.14.36-.87.88-.83,1.33.12,3.15,2.55,3.95,3.54.91,1.14,1.28,1.51,1.78,2.98.13.39.58,1.86.58,2.17,0,.22-.24.27-.29.45ZM119.26,63.06l-.06-.43c.81-.29,1.71-1.29,2.55-1.36.33-.03.58.15.89.06.09-.03.76-.53.79-.59.11-.23.01-.52.08-.77.12-.47.56-.56.38-1.38-.25-1.1-3.18-3.05-.14-3.77l1.84-2.92c.02-.23-.28-.29-.4-.41-.95-1.03-1.89-2.29-3.29-2.68-.43,1.76-2.62,1.68-3.95,2.34-.19.09-1.16.76-1.24.88-.39.64.59,1.23.39,1.86-.1.32-1.01.67-1.33,1.11-.51.69-.55,2.65-.42,3.48.05.35.38.73.49,1.09.39,1.23.09,2.44,1.3,3.35.74.56.71-.03,1.23-.06.26-.01.55.34.89.21ZM113.66,52.92c1.02.05,1.29-1.22,1.48-2.01-.61.57-1.53,1.04-1.48,2.01ZM128.35,55.67c-.57-.72-1.04-1.53-1.8-2.06h-.21c-.54.44-.88,1.27-.62,1.94l2.63.12ZM125.64,58.17c.07.09.26.1.34.34.15.44-.15.62-.12.75.03.12.48.7.61.98.3.66.4,1.6.94,2.12.13.13.55.42.73.33.96-.49.08-4.52-.4-5.31-.76-1.25-2.72-.08-2.1.78ZM117.68,110.51c.2-.03,1.02.04,1.06,0,.01-.52-.1-.98.21-1.42l-.25-.15-.33.17-.26-.24c1.06-.47,1.2-1.36,1.49-2.37h.52s-.42-.48-.42-.48l.53-.58c-.29.02-.58,0-.53-.37.08-.25.73-.14.95-.16-.16-.52-.33-1.03-.16-1.59.13-.26.47-.17.69-.26.65-.26.43-1.56,1.37-1.43-.61-1.05.31-.99.79-1.48s.05-.62.06-1.1c.01-.69.64-1.56.42-2.28.4.25.41-.3.84-.48l-.52-.42.32-.37c-.19.02-.81.06-.74-.26l.53-.16c-.29-.67.34-.92.21-1.59h.42c-.15-.22-.59-1.11-.1-1.12l.42.06c.06-.32-.23-.17-.43-.36-.58-.56-.2-1.49-.22-2.11-.05-1.49-.74-4.4-1.25-5.83-.12-.34-.49-.69-.53-.95-.05-.32.11-.57.08-.82-.04-.28-.65-1.3-.8-1.74-.34-1.01-.6-2.2-.37-3.26l-.5-.31c.23-.35.58-.27.95-.27-.09-.39-.49-.42-.74-.69.69-.28.28-.81.44-1.25.06-.16.29-.18.35-.28.12-.19,0-.51.22-.84.31-.48,1.26-.72,1.42-1.43l-.59-.26.06-.85c.24.13.15.42.53.32-.41-1.06.43-2.15.31-3.21-.04-.36-.38-.78-.39-.98-.01-.19.18-.32.18-.51,0-.32-.57-.64-.2-1.11-1.07-.03-.64-1.64-1.01-2.11-.26-.33-.6.5-.79.68-1.14,1.13-4.22,1.35-5.57.6-2.72-1.51-3.46-5.19-4.59-7.83-.21-.15-1.53.93-1.74,1.15-.44.47-.84,1-1.27,1.48-3.5,3.92-4.81,7.37-7.04,11.98-.57,1.19-1.49,2.59-1.97,3.74-.14.33-.11,1.05-.51,1.09-.1.01-.17-.02-.26-.06-.31-.14-.48-.71-.74-.9-.45,1.59-.77,3.25-.85,4.91-.06,1.31-.08,5.19.27,6.29.28.86.98,1.34-.11,2.11-1.68-1.59-1.38-4.21-1.53-6.34-.37.31-.42.24-.65-.14s-.51-1.58-.51-2.03v-1.74c-.55.45-1.13.52-1.81.59-.39,1.98-.75,3.98-1.22,5.94-.08.33-.58,2.56-.83,2.55-1.67-1.31-.56-3.44-.48-5.18-.11-.13-.64.48-.74.58-.79.86-1.95,3.39-3.04,3.62-.59.12-1.05-.07-1.17-.69-.48-2.64,2.93-3.23,3.99-5.1-2.08-.19-3.39,2.93-5.52,2.19-.23-.08-.46-.34-.69-.37-.93-.13-2.13,2.16-3.12,1.86-.14-.04-.35-.29-.56-.39-.78-.35-1.65-.14-2.47-.33l-.11.32c.05-.48-.38-.41-.69-.62-1.1,1.3-1.74.84-2.8-.07-.84-.73-1.59-1.59-2.48-2.27-.12.35,0,.73-.08,1.08-.15.74-1.24,1.53-1.96,1.64-.53.08-1.69-.54-2.21-.81-.25-.13-.52-.45-.66-.5-.91-.29-3.24-.54-4.19-.47-.4.03-1.37.18-1.67.42-.24.19-.38,1.31-.92,1.38l.06.21.83.12.22-.43c.55.9,1.5.54,2.28.78.27.08.7.63,1.08.82.48.24,1.28.42,1.82.41.63-.01,2.1-.62,2.49-.07.25.47.03,1.01-.02,1.49-.02.22.11.45.04.66-.2.56-.96.75-1.5.68-.44,1.17.86,2.21.84,3.31-.02.66-.46,1.41-1.17,1.43.09.74.27.4.59.62.19.13.26.61.52.75.45-.56,1.27-.63,1.8-1.06.41-.32.45-.81.75-1.04.46-.36,1.38-.77,1.93-1.13,1.13-.74,2.23-1.52,3.39-2.22,1.98.48,2.57,2.24.21,2.81l.85.04.37.38c-.83,1.13-2.07,1.44-3.19,2.1-.81.48-3.2,1.85-3.61,2.52-.08.14-.11.31-.19.45-.08.5,1.36.06,1.61.02.23-.04.47.02.71-.03.27-.06,1.58-.94,1.77-.35.11.35-.29.27-.32.47.51-.08.8.1,1.16.42.16-.57,1.2-1.24,1.77-1.24.22,0,.39.2.72.19.64-.02,1.01-.74,1.69.18.26-.42,1.24-.18,1.31-.2.01,0,0-.16.15-.23,1.44-.68,3.15.02,4.65-.31.16-.04.61-.16.72-.24.04-.03.29-.72.58-.79.25.18.15.48.16.74.06.07,1.41-.42,1.53-.53.06-.05.77-1.18.82-1.29.08-.19.06-.54.1-.59.03-.03.27-.05.41-.17.59-.51.97-2,1.98-1.57.41.18,1.08,1.24,1.08,1.66v2.69l.63-.21c.05-.06-.27-.26-.3-.39-.19-.71.51-.04.62.01.49.23.42-.16.73-.42.55-.45,1.14-.51.95-1.42l.57.22c.23-.39.4-.62.91-.54l-.09-.62c.63-.14.77-.93,1.26-1.23.24-.15.48-.12.6-.19.38-.24.6-1.4.82-1.76.1-.15.9-.95,1.05-.96.88,1.57-.55,3.02-.79,4.54.71-.23,1.29.91,1.53,1.48.09.21.43,1.48.53,1.48.36-.38.77-.71,1.09-1.13.79-1.01,2.35-3.83,2.67-5.04.39-1.47.45-3.06,1.17-4.43.24-.46.61-.78.83-1.23.08-.06.32.33.37.42.22.41,1.12,3.9,1.1,4.28-.01.25-.22.6-.28.89-.34,1.65-.44,4.2-1.46,5.52-.52.68-1.35,1.03-1.9,1.7-.81.99-1.93,4.26-2.92,4.7-.25.11-.39-.05-.57-.03-.26.03-1.64,1.65-2.02,1.98-.6.52-1.35,1.04-2.03,1.46-.48.29-2.11.99-2.35,1.24-.15.15-.23.51-.43.73-.08.09-.74.58-.79.58-.14-.06-.1-.4-.31-.31-.39.17.07.63,0,.74-.04.07-1.24.82-1.36.87-.33.13-.46-.02-.71.02-.23.04-1.39.48-1.62.6-.51.26-1.31,1-1.97.79-.31-.1-.59-.89-.63-1.18-.05-.33.15-.55-.04-.79-.32-.39-1.01-.69-1.12,0h-.14c-.36-.37-1.03-.38-1.2-.9l.39-.51c-.25-.3-.52-.37-.31-.81-.34-.07-.59.2-.9.22-.42.03-.75-.2-1.24-.09-.57.14-.97.58-1.3,1.03l-.32-.42c-.41-.04-1.84.99-2.39,1.1-.26.05-.43-.06-.64-.02-.44.08-.81.68-1.39.29-.45-.31.12-.38.25-.62-.68.14-1.21-.65-.74-1.16-.1-.09-1.93,1.3-2.55.37-.37-.56,1.03-1.35.55-1.99-.29-.46-1.85.28-2.12.62.45.14.9.08,1.11-.37l.58.74c-.52-.01-1.3.51-1.53.96-.07.14-.03.36-.06.41,0,0-.14-.07-.2-.04-.32.2-.57.49-.95.62,1.85,2.83,3.44,6.09,6.02,8.35.3.26.87.74,1.19.92.29.16.48.1.64.19.39.23,1.57,1.18,1.84,1.24.15.03.3.05.4-.09.51-1.67,1.59-3.06,2.75-4.34.48-.53,1.91-1.69,2.18-2.16.14-.24-.1-.47.2-.64.23-.1,1.65.9,1.99,1.02.16.36-.21.51-.32.75-.26.59-.09,1.28-.32,1.79-.26.58-.84.79-.91,1.73-.04.52.21.86.2,1.26,0,.6-.55,1.09-.42,1.79s.06.85.13,1.46c.17,1.48,1.83,2.61,1.98,3.94.1.89.06.92.32,1.79.41,1.37.73,2.79,1.48,4.02-1.79,1,.19,2.04.96,2.85.37.39.75.82,1.11,1.21.5.55.94,1.17,1.48,1.69.15-.08-.02-.26-.07-.35-.59-1.16-1.33-2.24-1.87-3.42.31-.76.25-1.81.82-2.41.11-.11.94-.76,1.07-.83.34-.18.81-.12.93-.18.09-.05.73-1.47.92-1.77,1.04-1.62,2.56-2.45,3.48-4.02s1.46-3.49,2.48-5.07c.59.47,1.05,1.22.95,2.01.95.12,2.3.16,2.76,1.15.12.07.27-.02.38-.07.33-.14,2.71-1.54,2.83-1.71l-.36-.49.04-.14c.07-.15,2.29-1.93,2.56-2.1.36-.22,1.06-.59,1.41-.38.4-.65,1.8-3.28,1.8-1.01.18-.06.3-.25.37-.42.19-.46.24-1.92.25-2.49,0-.24-.25-.47-.1-.72.25-.37,1.89-.12,1.92-.65.01-.19-.16-.35-.06-.58.09-.2,1.02-.82,1.22-.85-.35.12-.25-.49-.11-.59l1.06-.05-.28.31-.41-.2-.27.53ZM98.76,74.16c.6-.73.53-1.8,1.04-2.61.17-.27.69-.67.74-.85.07-.25,0-.55.09-.86.15-.52.68-.87.75-1.58.05-.51-.2-.64-.43-.11-.64,1.5-1.5,3.57-1.98,5.1-.09.29-.19.6-.21.9ZM43.06,81.35c-1.28-.23-2.4,1.18-3.17,2.06l.53.1c-.35.25-1.05,1.07-1.16.27l.63-.11c-.11-.3-.49-.2-.74-.21.13.58-.21.34-.43.57-.06.07-.25.54-.2.59.22-.16.7-.02.63.26-.05.22-.85.3-1.06.52-.68.7-.73,2.98-.31,3.86l2.07-2.64c-.43-.91.5-.12,1.04-.85s.87-1.71,1.31-2.49c.12-.22.27-.43.44-.62l-.53-.26.25-.11.7-.94ZM83.85,81.87c-.71-.09-1.36.12-2.01.37.38.33,1.22.01,1.65-.15.13-.05.32-.02.36-.22ZM62.37,88.77c-.3-.29-1.85-.46-2.23-.33-.3.1.04.81-.66,1.24-.8.48-.69-.06-1.26-.29-1-.4-2.22.43-3.29.39-2.5,1.7-6,3.02-6.79,6.26l.74-.27c.19.14.3.37.16.59l-1.32.63c1.33-.03,2.42-.94,3.7-1.16l-1.09-.33c-.1-.08-.51-.34-.28-.46.99-.29,1.87-.18,2.49.69l.26-.28-.2-.46c.57-.05.7-.37,1.26,0l.17-.3.58.1v-.74c.22-.08.41.21.56.19.12-.02.6-.31.89-.38.1-.02,1.87-.16,1.61-.34-1.52.08-.78-.76.26-.74.58,0,1.54.42,2.09.3.69-.15,1.49-2.13,2.2-.62.44-.3,1.14-.1,1.53-.42.23-.18.2-.71.61.1.04.08-.04.21.06.37.18.3,1.13,1.29,1.38.63-.56-.34-.43-.72-.62-1.17-.24-.56-1.5-1.33-1.97-1.84-.33-.36-.66-1.2-.82-1.35ZM98.12,95.51l-1.13.81-.13.24c.88.22.89-.44,1.27-1.06ZM96.22,97.62c-.46-.12-.45.21-.64.36-.23.18-.51.06-.42.48.03.04.76-.5.86-.57.12-.09.26,0,.2-.27ZM64.3,97.94c-.01.79-1.24,1.45-.48,2.21l1.84-1.12c-.05-.77-.82-.81-1.36-1.1ZM76.24,99.94c-.2-.73-1.68-.01-2.17.19l-.58-.61-.11,1.06c1.13.12,1.73-.87,2.85-.63ZM72.12,100.89l-.47.21-.48-.42.42.95c.08.06.65-.62.53-.74ZM67.58,102.48l-.42-.58c.52-.32.11-.65-.11-1.06-.15-.11-.21.25-.32.32-.16.09-.38,0-.51.08-.06.03-.26.5-.34.61.68-.3,1,.68,1.69.63ZM91.99,106.71c-.18-.18-1.2.68-1.16.74.59.27,1.16-.08,1.16-.74ZM93.37,139.57c-.73-1.27-1.9-2.26-2.73-3.45-.64-.93-.84-1.73-1.71-2.52-.52-.47-1.57-.97-1.59-1.8,0-.25.16-.49.1-.71-.03-.13-.33-.39-.43-.64-.38-.96.08-2.47-.46-3.14-.12-.15-.3-.2-.41-.33-.18-.21-.18-.51-.51-.65l-1.66-.18c.21.52.13,1.18.26,1.7.1.41.51.83.68,1.22.76,1.72.94,3.5,1.52,5.24.23.68.31.58.39,1.3.37,3.19,3.01,2.75,5.39,3.49.41.13.77.34,1.16.48ZM85.76,138.3l-2.38-9.08c-.08.09-.26.11-.32.21-.09.14.04,1.25.07,1.52.16,1.41,1.06,5.7,1.85,6.71.09.11.66.77.78.64ZM96.54,142.95c.28-.07,2-.18,2.01-.37l-1.69-2.06c-.18-.03-.1.13-.08.24.06.34.21.57.18.96-.03.43-.28.83-.42,1.23ZM93.58,142.1c-.97-.77-2.28-.94-3.38-1.48-.05.06.1,1.31.13,1.5.14.76.32.66,1.08.61s1.47-.41,2.17-.63ZM104.41,142.42c-.75-.07-1.66,0-2.43,0-.03,0-.59.11-.58.21,1.68-.03,3.35.14,5.02.32.3,0,.3-.04,0-.11-.58-.14-1.44-.37-2.01-.42Z"/>
          <path class="cls-2" d="M93.37,139.57c-.4-.14-.76-.35-1.16-.48-2.38-.74-5.02-.3-5.39-3.49-.08-.72-.17-.62-.39-1.3-.58-1.74-.76-3.52-1.52-5.24-.17-.39-.58-.81-.68-1.22-.13-.52-.04-1.18-.26-1.7l1.66.18c.33.14.33.45.51.65.11.13.29.17.41.33.54.67.07,2.18.46,3.14.1.25.4.51.43.64.06.22-.11.47-.1.71.03.83,1.08,1.33,1.59,1.8.87.79,1.07,1.59,1.71,2.52.83,1.19,2,2.18,2.73,3.45Z"/>
          <path class="cls-2" d="M85.76,138.3c-.12.12-.7-.53-.78-.64-.78-1.01-1.69-5.31-1.85-6.71-.03-.27-.16-1.38-.07-1.52.06-.1.24-.12.32-.21l2.38,9.08Z"/>
          <path class="cls-2" d="M93.58,142.1c-.7.22-1.43.58-2.17.63s-.94.15-1.08-.61c-.04-.2-.18-1.45-.13-1.5,1.1.54,2.41.71,3.38,1.48Z"/>
          <path class="cls-2" d="M96.54,142.95c.14-.4.38-.8.42-1.23.03-.39-.12-.62-.18-.96-.02-.11-.1-.27.08-.24l1.69,2.06c0,.19-1.73.3-2.01.37Z"/>
          <path class="cls-2" d="M104.41,142.42c.57.05,1.43.28,2.01.42.29.07.3.11,0,.11-1.67-.18-3.34-.35-5.02-.32,0-.1.55-.21.58-.21.77,0,1.68-.07,2.43,0Z"/>
          <g>
            <path class="cls-2" d="M64.3,97.94c.54.29,1.31.33,1.36,1.1l-1.84,1.12c-.76-.76.46-1.43.48-2.21Z"/>
            <g>
              <path class="cls-2" d="M67.58,102.48c-.69.04-1.01-.93-1.69-.63.08-.11.28-.58.34-.61.12-.07.34.02.51-.08.11-.06.17-.43.32-.32.22.41.62.74.11,1.06l.42.58Z"/>
              <path class="cls-2" d="M76.24,99.94c-1.12-.24-1.72.75-2.85.63l.11-1.06.58.61c.49-.2,1.97-.91,2.17-.19Z"/>
              <path class="cls-2" d="M91.99,106.71c0,.66-.57,1.01-1.16.74-.04-.06.98-.91,1.16-.74Z"/>
              <path class="cls-2" d="M98.12,95.51c-.38.61-.39,1.27-1.27,1.06l.13-.24,1.13-.81Z"/>
              <path class="cls-2" d="M72.12,100.89c.12.12-.45.8-.53.74l-.42-.95.48.42.47-.21Z"/>
              <path class="cls-2" d="M96.22,97.62c.06.27-.08.18-.2.27-.09.07-.82.61-.86.57-.1-.42.19-.3.42-.48.19-.15.18-.49.64-.36Z"/>
            </g>
          </g>
        </g>
      </g>
      <g>
        <path class="cls-2" d="M117.68,110.51c-.2.03-1.13.65-1.22.85-.1.23.07.39.06.58-.03.53-1.67.28-1.92.65-.15.25.1.47.1.72,0,.57-.06,2.03-.25,2.49-.07.17-.19.36-.37.42,0-2.27-1.39.36-1.8,1.01-.35-.2-1.05.16-1.41.38-.27.17-2.49,1.95-2.56,2.1l-.04.14.36.49c-.12.17-2.51,1.57-2.83,1.71-.11.05-.26.14-.38.07-.47-.99-1.81-1.03-2.76-1.15.1-.79-.36-1.54-.95-2.01-1.02,1.58-1.53,3.46-2.48,5.07s-2.44,2.4-3.48,4.02c-.19.3-.84,1.72-.92,1.77-.11.07-.59,0-.93.18-.13.07-.96.72-1.07.83-.58.6-.51,1.65-.82,2.41.54,1.18,1.28,2.27,1.87,3.42.05.1.22.28.07.35-.53-.52-.97-1.15-1.48-1.69-.37-.4-.74-.82-1.11-1.21-.77-.81-2.75-1.84-.96-2.85-.75-1.23-1.06-2.65-1.48-4.02-.26-.87-.22-.91-.32-1.79-.15-1.33-1.81-2.46-1.98-3.94-.07-.61,0-.78-.13-1.46s.42-1.19.42-1.79c0-.4-.25-.73-.2-1.26.08-.94.66-1.16.91-1.73.23-.52.06-1.2.32-1.79.11-.24.48-.4.32-.75-.34-.12-1.76-1.13-1.99-1.02-.3.17-.06.4-.2.64-.27.47-1.7,1.63-2.18,2.16-1.15,1.27-2.23,2.67-2.75,4.34-.1.14-.25.12-.4.09-.28-.06-1.45-1.01-1.84-1.24-.16-.09-.34-.03-.64-.19-.32-.18-.9-.67-1.19-.92-2.58-2.26-4.17-5.52-6.02-8.35.38-.13.63-.42.95-.62.06-.04.2.04.2.04.03-.06-.01-.27.06-.41.23-.45,1.01-.97,1.53-.96l-.58-.74c-.21.45-.66.51-1.11.37.27-.33,1.83-1.07,2.12-.62.49.64-.92,1.43-.55,1.99.61.93,2.44-.46,2.55-.37-.47.51.06,1.31.74,1.16-.13.25-.7.32-.25.62.58.39.95-.21,1.39-.29.21-.04.37.07.64.02.56-.11,1.98-1.13,2.39-1.1l.32.42c.33-.44.73-.89,1.3-1.03.49-.12.82.11,1.24.09.31-.02.56-.29.9-.22-.21.44.06.5.31.81l-.39.51c.17.52.84.53,1.2.89h.14c.12-.68.81-.38,1.12,0,.19.24,0,.46.04.79.04.3.31,1.08.63,1.18.67.21,1.46-.53,1.97-.79.24-.12,1.4-.56,1.62-.6.25-.04.38.11.71-.02.12-.05,1.32-.8,1.36-.87.07-.11-.39-.58,0-.74.21-.09.18.25.31.31.05,0,.72-.49.79-.58.2-.22.28-.58.43-.73.25-.25,1.87-.94,2.35-1.24.68-.41,1.43-.93,2.03-1.46.38-.33,1.76-1.95,2.02-1.98.18-.02.32.14.57.03.99-.44,2.11-3.71,2.92-4.7.54-.66,1.37-1.02,1.9-1.7,1.01-1.32,1.12-3.87,1.46-5.52.06-.28.27-.64.28-.89.02-.38-.88-3.86-1.1-4.28-.05-.09-.29-.48-.37-.42-.22.45-.59.77-.83,1.23-.72,1.37-.77,2.97-1.17,4.43-.32,1.21-1.88,4.03-2.67,5.04-.32.41-.73.75-1.09,1.13-.1,0-.44-1.26-.53-1.48-.24-.57-.82-1.72-1.53-1.48.24-1.53,1.67-2.97.79-4.54-.15,0-.96.8-1.05.96-.22.36-.44,1.52-.82,1.76-.12.07-.37.05-.6.19-.48.3-.63,1.09-1.26,1.23l.09.62c-.51-.08-.68.14-.91.54l-.57-.22c.18.91-.41.98-.95,1.42-.32.26-.25.65-.73.42-.11-.05-.81-.72-.62-.01.04.13.35.32.3.39l-.63.21v-2.69c0-.42-.67-1.48-1.08-1.66-1.01-.44-1.39,1.05-1.98,1.57-.14.12-.38.14-.41.17-.04.05-.02.4-.1.59-.05.11-.77,1.24-.82,1.29-.12.11-1.47.6-1.53.53-.01-.26.09-.56-.16-.74-.29.07-.54.76-.58.79-.11.08-.55.2-.72.24-1.5.34-3.22-.37-4.65.31-.14.06-.13.22-.15.23-.07.03-1.05-.21-1.31.2-.68-.92-1.05-.2-1.69-.18-.32.01-.5-.19-.72-.19-.57,0-1.61.67-1.77,1.24-.36-.32-.65-.5-1.16-.42.02-.21.43-.12.32-.47-.19-.6-1.49.29-1.77.35-.24.05-.48,0-.71.03-.25.04-1.69.48-1.61-.02.08-.14.1-.31.19-.45.41-.67,2.81-2.04,3.61-2.52,1.12-.66,2.37-.97,3.19-2.1l-.37-.38-.85-.04c2.35-.58,1.77-2.33-.21-2.81-1.16.7-2.26,1.48-3.39,2.22-.55.36-1.48.77-1.93,1.13-.3.24-.35.72-.75,1.04-.53.42-1.35.49-1.8,1.06-.26-.14-.33-.62-.52-.75-.32-.23-.51.12-.59-.62.71-.02,1.15-.78,1.17-1.43.03-1.1-1.28-2.14-.84-3.31.53.07,1.29-.11,1.5-.68.07-.21-.06-.44-.04-.66.05-.48.27-1.02.02-1.49-.39-.55-1.86.06-2.49.07-.54,0-1.34-.17-1.82-.41-.38-.19-.82-.74-1.08-.82-.78-.24-1.73.11-2.28-.78l-.22.43-.83-.12-.06-.21c.53-.07.68-1.19.92-1.38.29-.24,1.27-.39,1.67-.42.95-.06,3.28.19,4.19.47.14.04.41.37.66.5.52.27,1.68.89,2.21.81.72-.11,1.81-.9,1.96-1.64.07-.36-.05-.74.08-1.08.89.68,1.64,1.55,2.48,2.27,1.06.91,1.7,1.36,2.8.07.31.21.74.14.69.62l.11-.32c.82.19,1.69-.03,2.47.33.22.1.43.35.56.39.99.29,2.19-1.99,3.12-1.86.23.03.46.29.69.37,2.13.75,3.43-2.38,5.52-2.19-1.06,1.87-4.47,2.46-3.99,5.1.11.62.57.81,1.17.69,1.09-.22,2.25-2.76,3.04-3.62.09-.1.62-.71.74-.58-.08,1.73-1.2,3.87.48,5.18.24,0,.75-2.23.83-2.55.47-1.96.83-3.96,1.22-5.94.68-.07,1.26-.13,1.81-.59v1.74c0,.45.26,1.63.51,2.03s.29.44.65.14c.16,2.13-.15,4.75,1.53,6.34,1.08-.77.38-1.26.11-2.11-.36-1.1-.34-4.98-.27-6.29.08-1.66.4-3.32.85-4.91.26.19.43.75.74.9.08.04.16.07.26.06.4-.04.37-.76.51-1.09.48-1.15,1.39-2.55,1.97-3.74,2.23-4.61,3.54-8.06,7.04-11.98.43-.48.83-1.01,1.27-1.48.21-.23,1.53-1.3,1.74-1.15,1.13,2.65,1.87,6.32,4.59,7.83,1.35.75,4.42.53,5.57-.6.19-.19.53-1.02.79-.68.37.47-.06,2.08,1.01,2.11-.37.47.21.79.2,1.11,0,.19-.2.32-.18.51.02.2.35.62.39.98.12,1.06-.71,2.15-.31,3.21-.38.1-.29-.18-.53-.32l-.06.85.59.26c-.16.71-1.11.95-1.42,1.43-.21.33-.1.65-.22.84-.06.1-.3.12-.35.28-.15.44.26.97-.44,1.25.25.26.65.29.74.69-.37,0-.72-.08-.95.27l.5.31c-.23,1.06.03,2.25.37,3.26.15.44.76,1.46.8,1.74.03.24-.13.5-.08.82.04.26.41.61.53.95.51,1.42,1.21,4.34,1.25,5.83.02.62-.36,1.55.22,2.11.2.19.49.05.43.36l-.42-.06c-.49,0-.05.9.1,1.12h-.42c.13.66-.5.91-.21,1.59l-.53.16c-.07.32.55.28.74.26l-.32.37.52.42c-.43.18-.44.73-.84.48.22.72-.4,1.59-.42,2.28,0,.48.42.61-.06,1.1s-1.4.42-.79,1.48c-.94-.13-.72,1.18-1.37,1.43-.22.09-.56,0-.69.26-.17.55,0,1.07.16,1.59-.22.02-.87-.09-.95.16-.06.37.24.39.53.37l-.53.58.42.47h-.52c-.29,1.02-.43,1.91-1.49,2.38l.26.24.33-.17.25.15c-.32.44-.2.91-.21,1.42-.04.04-.86-.03-1.06,0l.27-.53.41.2.28-.31-1.06.05c-.13.09-.23.71.11.59ZM123.49,97.72c-.65.11-.53.88-.53,1.37.16-.02.23-.36.29-.5s.3-.8.24-.87Z"/>
        <path d="M123.49,97.72c.07.07-.18.74-.24.87s-.13.48-.29.5c0-.49-.12-1.26.53-1.37Z"/>
        <g>
          <path class="cls-2" d="M119.26,63.06c-.34.13-.62-.22-.89-.21-.52.02-.49.61-1.23.06-1.21-.91-.9-2.12-1.3-3.35-.12-.36-.44-.74-.49-1.09-.13-.83-.09-2.79.42-3.48.32-.44,1.23-.79,1.33-1.11.2-.64-.78-1.22-.39-1.86.08-.12,1.05-.78,1.24-.88,1.33-.66,3.53-.58,3.95-2.34,1.4.39,2.34,1.65,3.29,2.68.12.13.42.18.4.41l-1.84,2.92c-3.04.72-.11,2.68.14,3.77.19.82-.25.9-.38,1.38-.06.25.03.54-.08.77-.03.06-.7.56-.79.59-.31.09-.56-.09-.89-.06-.84.07-1.75,1.08-2.55,1.36l.06.43ZM119.3,52.85c-.86.98,1.15,2.17,1.83,1.89.39-.16.78-1.15.78-1.56,0-1.4-1.92-1.12-2.61-.33Z"/>
          <path class="cls-2" d="M125.64,58.17c-.62-.86,1.34-2.03,2.1-.78.48.79,1.36,4.82.4,5.31-.17.09-.6-.21-.73-.33-.55-.53-.64-1.46-.94-2.12-.13-.28-.58-.86-.61-.98-.03-.13.27-.31.12-.75-.08-.24-.28-.25-.34-.34Z"/>
          <path class="cls-2" d="M128.35,55.67l-2.63-.12c-.26-.67.08-1.5.62-1.95h.21c.76.54,1.23,1.35,1.8,2.07Z"/>
          <path class="cls-2" d="M98.76,74.16c.02-.31.12-.61.21-.9.48-1.53,1.34-3.61,1.98-5.1.23-.53.49-.4.43.11-.08.71-.6,1.06-.75,1.58-.09.31-.02.61-.09.86-.05.18-.57.57-.74.85-.51.81-.43,1.88-1.04,2.61Z"/>
          <path class="cls-2" d="M113.66,52.92c-.05-.97.86-1.44,1.48-2.01-.19.79-.45,2.06-1.48,2.01Z"/>
          <path class="cls-2" d="M83.85,81.87c-.03.2-.22.17-.36.22-.43.16-1.27.48-1.65.15.65-.25,1.3-.46,2.01-.37Z"/>
          <path d="M119.3,52.85c.69-.79,2.62-1.07,2.61.33,0,.41-.39,1.4-.78,1.56-.68.28-2.69-.91-1.83-1.89Z"/>
        </g>
      </g>
    </g>
  </g>
</svg>