<?xml version="1.0" encoding="UTF-8"?>
<svg id="_レイヤー_2" data-name="レイヤー 2" xmlns="http://www.w3.org/2000/svg" viewBox="0 0 180 180">
  <defs>
    <style>
      .cls-1 {
        fill: none;
      }

      .cls-2 {
        fill: #efefef;
      }
    </style>
  </defs>
  <g id="_レイヤー_1-2" data-name="レイヤー 1">
    <g>
      <path class="cls-2" d="M90,0L12.06,45v90l77.94,45,77.94-45V45L90,0ZM23.28,51.48L90,12.96l66.72,38.52v77.04l-66.72,38.52-66.72-38.52V51.48Z"/>
      <rect class="cls-1" width="180" height="180"/>
    </g>
    <path class="cls-2" d="M135.57,111.2c-.53-1.41-1.66-2.3-2.91-2.3h-30.97c.04-1.06.07-2.12.07-3.2,0-20.89-13.91-41.66-14.5-42.53-1.31-1.93-1.64-5.73-.7-7.96l2.66-6.31c1.28-3.03,1.32-6.2.13-8.69-1.2-2.49-3.45-3.92-6.19-3.92h-20.44c-2.74,0-4.99,1.43-6.19,3.92-1.2,2.49-1.15,5.66.13,8.69l2.66,6.31c.94,2.24.61,6.03-.7,7.96-.59.87-14.5,21.65-14.5,42.53,0,15.68,4.55,29.22,12.5,37.13l.88.88h30.89l.88-.88c1.67-1.66,3.19-3.58,4.55-5.71v2.55c0,2.23,1.44,4.03,3.22,4.03h24.59c1.78,0,3.22-1.81,3.22-4.03v-8.31l10.32-15.89c.78-1.21.94-2.87.41-4.28ZM83.49,115.48l7.77,11.96c-1.4,3.18-3.13,5.95-5.16,8.2h-26.31c-5.88-6.5-9.23-17.32-9.23-29.94,0-17.9,12.84-37.12,12.97-37.31,2.98-4.4,3.63-11.85,1.48-16.95l-2.66-6.31c-.13-.3-.19-.53-.22-.69.13-.04.33-.08.59-.08h20.44c.27,0,.46.04.59.08-.03.16-.1.4-.22.69l-2.66,6.31c-2.15,5.1-1.5,12.55,1.48,16.95.13.19,12.97,19.35,12.97,37.31,0,1.08-.03,2.15-.07,3.2h-9.26c-1.24,0-2.37.9-2.91,2.3-.53,1.41-.37,3.07.41,4.28ZM100.25,135.64v-4.26h18.15v4.26h-18.15ZM119.71,126.47h-20.78l-.14-.22-4.81-7.4-1.23-1.89h33.13l-6.18,9.51Z"/>
  </g>
</svg>