<?xml version="1.0" encoding="UTF-8"?>
<svg id="_レイヤー_2" data-name="レイヤー 2" xmlns="http://www.w3.org/2000/svg" viewBox="0 0 155.88 180">
  <defs>
    <style>
      .cls-1 {
        fill: #8ac77f;
      }

      .cls-2 {
        fill: #8bc780;
      }
    </style>
  </defs>
  <g id="_レイヤー_1-2" data-name="レイヤー 1">
    <g>
      <path class="cls-2" d="M106.88,100.69c-.71-1.23.09-3.05,1.21-3.91,13.62-10.43,18.68-16.36,17.21-22.85-1.23-5.44-9.7-5.77-30.26-3.61,1.31-2.59,2.05-5.51,2.05-8.61,0-10.22-8.01-18.57-18.1-19.11-.19-.5-.32-.97.32-1.18.84-.38,1.42.04,2.37-.14.8-.19,1.62-.35,2.23-.77,1.99-1.4-1.23-1.7-2.64-1.37-1.02.24-1.5,1.01-2.27,1.72-.09.08-.28.26-.41.15-.81-3.19,2.97-4.45,7.02-5.32,1.67-.24,9.64-3.06,3.56-2.94-.63.06-.82-.05-.32-.34,3.2-2.3,3.99-4.98-1.8-2.64-.21.31-.78.48-1.06.74-.36.15-.37-.43-.55-.52-1.4-.58-3.23,2-3.87,2.56l-.42.68c-.88,1.02-1.21,2.17-2.05,3.21-.84.5.2-3.69.52-3.91.74-1.93,2.88-3.51,3.58-5.45.89-2.04-.52-3.06-2.51-1.19-.27.27-.37.02-.38-.19.07-.89-.14-1.73-.61-2.57-2.13-4.48-4.22-.09-4.51,2.16.03.47.23,1.14-.62.49-4.88-2.56-1.64,3.19-.18,4.4.09.36.48.45.7.76.58.61.84,1.26,1.31,1.89,1.97,4.45,1.04,4.73-1.93.53-.64-.78-2.55-4.11-4.21-3.24-.18.18.03.48-.18.64-.65-.12-1.21-.68-1.88-.89-.77-.28-3.26-1.32-3.73-.5.08,1.02,1.11,1.88,1.95,2.72.14.29.74.38.72.68-.52.27-1.71-.03-2.35.2-1.2,1.19,3.88,2.56,5.32,2.8,1.56.34,4.74.79,5.63,1.66,1.59.38,2.21,2.64,1.58,3.63-.05.03-.02.02-.05.03-.75-.7-1.23-1.45-2.23-1.68-1.41-.33-4.63-.02-2.64,1.37.6.42,1.43.58,2.23.77.93.18,1.51-.22,2.33.13,0,0,0,0,0,0,.3.29.13.61-.1.93-10.07.56-18.06,8.9-18.06,19.11,0,3.06.72,5.96,2,8.52-20.7-2.3-29.02-1.64-30.22,3.8-1.41,6.4,2.97,12.34,16.62,22.74,1.13.86,1.8,2.68,1.09,3.91l-15,31.83c-1.77,3.06-.2,6.89,3.33,6.89h24.86c1.84,0,3.53-.98,4.45-2.57l7.18-12.44c1.98-3.43,6.93-3.43,8.91,0l7.18,12.44c.92,1.59,2.62,2.57,4.45,2.57h25.59c3.96,0,4.55-3.46,2.57-6.89l-14.95-31.83ZM83.06,52.56c0-1.04.84-1.87,1.87-1.87s1.87.84,1.87,1.87v2.35c0,1.04-.84,1.87-1.87,1.87s-1.87-.84-1.87-1.87v-2.35ZM69.08,52.56c0-1.04.84-1.87,1.87-1.87s1.87.84,1.87,1.87v2.35c0,1.04-.84,1.87-1.87,1.87s-1.87-.84-1.87-1.87v-2.35ZM70.22,63.17h15.45c.64.05,1.15.56,1.14,1.14-.01.58-.43,1.53-.98,2.02-4.58,3.72-11.18,3.72-15.76,0-.55-.5-.97-1.45-.98-2.02-.01-.58.5-1.09,1.14-1.14ZM87.99,82.91c-2.34,8.42-17.76,8.42-20.1,0-.3-.9-.02-1.98.38-2.39.41-.41,1.2-.34,1.79.08,4.58,3.72,11.18,3.72,15.77,0,.59-.41,1.38-.49,1.79-.08.4.41.68,1.49.38,2.39Z"/>
      <path class="cls-1" d="M77.94,0L0,45v90l77.94,45,77.94-45V45L77.94,0ZM11.22,51.48L77.94,12.96l66.72,38.52v77.04l-66.72,38.52L11.22,128.52V51.48Z"/>
    </g>
  </g>
</svg>