<?xml version="1.0" encoding="UTF-8"?>
<svg id="_レイヤー_2" data-name="レイヤー 2" xmlns="http://www.w3.org/2000/svg" viewBox="0 0 180 180">
  <defs>
    <style>
      .cls-1, .cls-2 {
        fill: #8ac77f;
      }

      .cls-3 {
        fill: none;
      }

      .cls-2 {
        fill-rule: evenodd;
      }
    </style>
  </defs>
  <g id="_レイヤー_1-2" data-name="レイヤー 1">
    <g>
      <rect class="cls-3" width="180" height="180"/>
      <g>
        <path class="cls-1" d="M90,0L12.06,45v90l77.94,45,77.94-45V45L90,0ZM23.28,51.48L90,12.96l66.72,38.52v77.04l-66.72,38.52-66.72-38.52V51.48Z"/>
        <path class="cls-2" d="M128.55,60.18c-1.57.91-4.05,2.09-7.05,3.13v-1.7c0-2.61.13-5.22.39-7.7,2.35,1.43,4.83,3,6.14,3.65.92.52,1.31,1.05,1.31,1.57,0,.39-.26.78-.78,1.05ZM80.12,78.32c-.78,0-1.83,1.3-3.13,3.26-1.57,2.22-14.36,24.8-15.01,25.97-.52.78-1.18,2.48-2.09,2.48-2.22,0-3.13-8.87-3.13-13.44,0-17.23,8.22-25.06,8.22-37.98,0-7.44-5.35-15.01-11.49-18.27-.92-.52-1.7-.78-2.09-.78-.26,0-1.05.13-1.05.92,0,.39.39.91,1.05,1.56,3.91,3.92,5.09,10.05,5.09,15.27,0,13.83-5.61,23.23-5.61,40.85,0,7.83,1.57,28.19,10.97,38.76.92.91,2.22,1.96,3.53,1.96.91,0,3.78-.65,3.78-3.78,0-3.39-3.52-7.96-3.52-13.83s6.66-26.36,13.58-38.76c.91-1.7,1.57-2.87,1.57-3.39s-.26-.78-.65-.78ZM139.12,57.83c-1.3-2.09-5.61-1.7-8.62-2.61-3.13-.91-6-2.35-8.22-3.66.26-2.35.65-4.18.91-5.09.26-1.05.52-1.96.52-2.74,0-4.96-8.88-7.31-14.88-7.31-1.7,0-3,.26-3,1.04,0,.39.39,1.05,1.57,1.57,1.83.78,5.48,3.66,6.13,8.35.39,2.48.78,10.31,1.04,18.4-5.61,1.83-11.23,3.13-14.1,3.13-2.48,0-7.18-.78-9.66-1.7q-.78-.26-1.18-.26c-.39,0-.65.26-.65.52,0,.39.26.78.65,1.18,3,2.74,11.23,6.26,16.45,6.26,2.09,0,5.22-.65,8.75-1.83l.26,13.18c0,4.44,0,10.83-.65,15.53-1.96,14.36-7.57,32.23-23.11,39.67-1.3.65-1.57.91-1.57,1.3s.26.78.91.78c.39,0,.78-.13,1.18-.26,3.79-1.3,16.58-7.83,23.5-19.84,7.05-12.14,7.44-23.49,7.44-27.14,0-6.79-.52-18.01-.78-25.71,6.66-2.61,13.05-5.74,15.01-7.18,1.56-1.17,2.61-1.83,2.61-3.91,0-.65-.13-1.3-.52-1.7Z"/>
      </g>
    </g>
  </g>
</svg>