<?xml version="1.0" encoding="UTF-8"?>
<svg id="_レイヤー_2" data-name="レイヤー 2" xmlns="http://www.w3.org/2000/svg" viewBox="0 0 180 180">
  <defs>
    <style>
      .cls-1 {
        fill: #254c97;
      }

      .cls-2 {
        fill: #2550a2;
      }

      .cls-3 {
        fill: none;
      }
    </style>
  </defs>
  <g id="_レイヤー_1-2" data-name="レイヤー 1">
    <g>
      <path class="cls-2" d="M90,0L12.06,45v90l77.94,45,77.94-45V45L90,0ZM23.28,51.48L90,12.96l66.72,38.52v77.04l-66.72,38.52-66.72-38.52V51.48Z"/>
      <rect class="cls-3" width="180" height="180"/>
    </g>
    <g>
      <path class="cls-1" d="M76.89,103.01c.2.27,2.87,1.8,5.93,1.9.19-.04.23-1.8.23-1.8l-5.27-2.14-.88,2.03Z"/>
      <polygon class="cls-1" points="89.96 103.75 83.49 103.14 83.39 105.04 89.96 105.38 89.96 103.75"/>
      <path class="cls-1" d="M80.16,109.9l-4.14-5.78-1.89,1.51-.63,1.38s1.01,6.16,1.01,6.03,5.65-3.14,5.65-3.14Z"/>
      <polygon class="cls-1" points="81.42 109.53 85.31 108.27 85.31 106.64 81.55 108.14 81.42 109.53"/>
      <polygon class="cls-1" points="89.96 107.89 89.96 106.64 86.19 106.51 85.69 108.02 89.96 107.89"/>
      <path class="cls-1" d="M102.9,100.98l-5.28,2.14s.04,1.76.23,1.8c3.06-.1,5.74-1.63,5.93-1.9l-.88-2.03Z"/>
      <polygon class="cls-1" points="90.72 103.75 90.72 105.38 97.29 105.04 97.19 103.14 90.72 103.75"/>
      <path class="cls-1" d="M106.17,113.04c0,.13,1.01-6.03,1.01-6.03l-.63-1.38-1.89-1.51-4.14,5.78s5.65,3.01,5.65,3.14Z"/>
      <polygon class="cls-1" points="95.36 108.27 99.26 109.53 99.13 108.14 95.36 106.64 95.36 108.27"/>
      <polygon class="cls-1" points="90.72 107.89 94.99 108.02 94.49 106.51 90.72 106.64 90.72 107.89"/>
      <path class="cls-1" d="M86.69,86.16s-1.42,3.52-1.63,3.39c-.21-.13-1.8-.21-4.15-.75-2.34-.55-5.15,6.78-5.15,6.78,1.88.38,7.58,3.14,9.8,4.27,2.22,1.13,9.42.38,9.92-.25.5-.63,8.92-3.14,8.92-3.14,0,0,.21-3.68-1.5-6.28-1.72-2.6-7.16-.63-7.16-.63,0,0-.76-1.22-1.26-3.39-3.44-2.1-7.79,0-7.79,0Z"/>
      <path class="cls-1" d="M93.36,84.65s1.38-5.19-.25-7.29c-1.63-2.09-5.53.13-5.53.13-.8,2.55.38,7.28.38,7.28l5.4-.12Z"/>
      <path class="cls-1" d="M134.07,104.3c-.14-.4-.28-.72-.43-1.01.49-1.17,1.54-4.14.34-6-.1-.54-.18-1.69-.23-2.28-.05-.77-.09-1.32-.18-1.76h.05c2.06-12.11-2.01-19.93-6.01-24.47l-.23-1.26c-.93-5.24-1.77-9.77-10.63-16.1l4.27-15.06-7.91-3.27-3.44.58-4.97,9.25c-3.98-2.07-8.24-2.88-14-1.03-1.86-.71-5.13-1.03-8.32-.74-1.88.17-4.06.58-6.38,1.37l-5.63-9.65-5.55,1.11-5.55,3.47,4.63,13.36c-.32.37-.66.68-.98,1.08-9.58,7.08-10.57,8.87-13.06,18.54-1.89,4.24-2.98,21.28-2.69,25.82-.18.49-.4.98-.61,1.45-.82,1.86-1.74,3.96-.55,5.86.47.76,1.19,1.3,2.13,1.62-.09.25-.26.59-.54,1.11-.32.57-.64,1.17-.82,1.85-.33,1.3-1.29,10.94,3.44,16.54.19.99,0,2.25-.19,3.68-.59,4.28-1.49,10.75,8.35,15.81l.49.19c8,2.17,10.6,2.7,12.37-.55.56-.76.9-1.81,1.26-3.03.52.77,1.19,1.54,2.12,2.08,1.19,1.15,2.37,2.21,4.2,2.22,1.3-.02,2.33-.69,3.11-1.38l.32.57.78.35c.2.08,4.94,2.15,9.64,2.47.21.01.41.02.59.02,2.81,0,4.08-1.45,4.87-2.64l.42.15.55-.05c3.03-.28,6.59-2.58,9.25-4.35.55,2.56,1.74,5.71,4.97,5.21,1.87-.28,3.46-1.63,4.87-2.82.12-.1.26-.22.41-.34.64.93,1.65,2,3.32,2.06,2.42.12,4.15-2.1,5.44-4l.27-.51c.48-1.26,1.55-2.11,2.48-2.86.76-.61,1.49-1.2,1.93-2.04,1.04-2,3.89-11.35-1.32-18.89.32-1.09,1.06-2.93,1.54-4.14,1.61-4.02,2.36-6.02,1.82-7.62ZM112.85,38.46l2.08.86-2.24,7.92-3.42-2.12,3.58-6.66ZM96,81.25c.17-.13,5.86-5.52,9.4-8.93.16.64.43,1.18.68,1.76-3.62,3.02-7.99,7.38-10.65,10.75,0,1.33,3.9,1.65,4.9,1.64,4.6-.07,8.72-3.19,9.81-6.72.58.54,1.13,1.01,1.61,1.41.43.36.8.65.92.76.3.49.68.86,1.17,1.31,1.95,1.81,6,5.59,1.33,16.32-.58,2.08-1.04,4.3-1.51,6.54-.08.4-.17.78-.25,1.18l-3.72-10.81-4.9,3.64,4.52,10.3h2.39l1.2-.8c-2.06,9.16-4.87,16.49-16.38,16.51-3.87-.61-6.49-.92-8.62-.92-1.98,0-3.53.27-5.25.81-3.34-.79-11.49-4.32-13.63-10.53-.62-2.11-1.17-4.16-1.66-6.15l1.62,1.08h2.38l4.53-10.3-4.9-3.64-3.94,11.48c-3.16-13.5-3.17-23.52.3-24.81l1.01-.38.43-.99c.76-1.77,1.43-3.43,2.05-5.02-1.07,4.56,4.06,9.65,9.95,9.75,1,0,4.9-.31,4.9-1.64-3.01-3.81-8.25-8.98-12.07-11.93-1.07.75-1.79,1.6-2.27,2.48.22-.56.45-1.16.65-1.68.44-1.16.92-2.39,1.4-3.56,2.31,2.31,11.43,10.95,11.65,11.12.25.19,1.88-3.52,1.88-3.52l-.5-.5-1.26.26c-2.19.02-6.84-8.19-8.97-11.6,3.15-.33,8.19-2.58,9.36-4.92.2-.32,1.66-1.94,3.79-2.12,2.17-.14,4.38,1.09,6.91,3.91,1.02.95,2.15,1.82,3.3,2.69,1.37,1.04,2.64,2.01,3.66,3.09-2.35,3.84-5.62,8.98-7.35,8.96l-1.26-.26-.5.5s1.64,3.71,1.89,3.52ZM105.35,79.69c0,1.26-1.72,3-3.01,2.89l-1.13-.13-.13-1.26c-.24-3.18,4.26-3.69,4.27-1.51ZM75.76,79.69c.01-2.18,4.52-1.67,4.27,1.51l-.12,1.26-1.13.13c-1.29.11-3.02-1.63-3.02-2.89ZM66.33,38.85l1.51-.3,3.56,6.09c-1.15.66-2.3,1.39-3.46,2.3l-2.58-7.45.97-.65ZM128.98,105.31c.05.09.11.19.17.32-.19.88-1.02,2.98-1.6,4.4-1.26,3.13-2.03,5.13-2.06,6.6v.92s.56.72.56.72c4.32,5.38,2.1,13.05,1.62,14.13-.17.19-.43.39-.73.62-1.17.93-2.92,2.33-3.91,4.69-.28.4-.52.71-.71.94-.51-.84-1.32-1.99-2.85-2.13-1.75-.17-3.09,1.01-4.54,2.24-.38.32-.94.8-1.45,1.17-.2-.77-.35-1.76-.43-2.29-.19-1.19-.3-1.91-.69-2.56l-.65-.98-1.05-.23c-1.4-.3-2.48.41-4.84,1.98-1.84,1.22-4.83,3.2-6.73,3.62-3.26-.86-4.58,1.29-5.1,2.13-.09.15-.23.38-.26.41,0,0-.14.09-.69.04-2.92-.2-6.01-1.29-7.31-1.8-.61-.78-1.69-1.79-3.2-1.99-.78-.1-2.27-.04-3.67,1.43l-.09.09c-.27-.24-.6-.56-.83-.79l-.72-.49c-.28-.13-.8-1.05-1.08-1.54-.65-1.15-1.38-2.45-2.82-3.11l-1.52-.48-1.05.48c-1.71.79-2.28,2.78-2.94,5.08-.19.66-.47,1.66-.59,1.88-.07.09-.13.18-.18.27-.86-.1-2.7-.47-6.53-1.51-6.41-3.37-5.97-6.52-5.42-10.49.29-2.09.59-4.25-.14-6.42l-.56-.94c-3.23-3.39-2.95-10.98-2.66-12.29.07-.2.21-.43.35-.67.76-1.38,2.35-4.25.13-7.27l-1.2-1.04h-.06c.1-.25.21-.49.3-.7.34-.77.69-1.59.95-2.4l.19-.59-.1-.61c-.45-2.65.88-21.01,2.16-23.49l.31-.71c2.26-8.79,2.44-9.5,11.5-16.18l.48-.46c.5-.63,1.02-1.09,1.53-1.64l6.48-5.04c5.81-3.01,11.2-2.59,13.33-2.2.01.23.02.49.03.77-.03,3.5-.06,5.54-.09,6.74-.33.06-.67.13-.97.22-2.7.79-5.06,2.8-5.9,4.44-1.02.84-4.25,2.41-5.62,2.29-3.86-.38-5.5,3.92-8.21,11-.8,2.1-1.7,4.46-2.77,6.98-8.14,4.58-4.76,23.03-.32,38.14,3.02,8.79,13.76,13.37,18.19,14.11l.63.1.61-.21c2.66-.92,4.29-1.13,12.49.14,17.46,0,20.25-13.32,22.49-24.02.45-2.15.89-4.26,1.31-5.89,5.99-13.69-.5-19.73-2.63-21.72-.19-.17-.32-.28-.28-.2-.43-.71-1.09-1.27-2.01-2.04-1.7-1.43-4.03-3.4-4.74-6.3-1.12-4.62-4.57-7.25-7.62-9.57-1.01-.77-2.02-1.53-2.75-2.2-2.42-2.72-4.74-4.17-6.84-4.87.14-3.32.16-5.7.08-7.35,0-.18,0-.36,0-.54,6.47-1.74,10.09,1.05,16.31,5.8,1.26.97,2.59,1.99,4.07,3.05,7.5,5.27,8.06,8.39,8.9,13.1l.51,2.74.49.53c4.91,5.25,6.67,12.23,5.22,20.72-.11.65-.22,1.28-.01,1.92.03.25.05.63.08,1.06.15,2.01.27,3.34.76,4.27-.07.5-.31,1.34-.54,1.8-.89,1.73-.5,2.88.06,3.86Z"/>
      <path class="cls-1" d="M72.51,119.01l3.24,3.89c.61-.5,14.99-12.09,28.48-.06l3.37-3.78c-16.81-14.98-34.91-.2-35.09-.05Z"/>
    </g>
  </g>
</svg>