<?xml version="1.0" encoding="UTF-8"?>
<svg id="_レイヤー_2" data-name="レイヤー 2" xmlns="http://www.w3.org/2000/svg" viewBox="0 0 180 180">
  <defs>
    <style>
      .cls-1 {
        fill: none;
      }

      .cls-2 {
        fill: #3daf36;
      }
    </style>
  </defs>
  <g id="_レイヤー_1-2" data-name="レイヤー 1">
    <g>
      <path class="cls-2" d="M90,0L12.06,45v90l77.94,45,77.94-45V45L90,0ZM23.28,51.48L90,12.96l66.72,38.52v77.04l-66.72,38.52-66.72-38.52V51.48Z"/>
      <rect class="cls-1" width="180" height="180"/>
    </g>
    <g>
      <path class="cls-2" d="M119.19,78.82c-8.77,8.19-18.08,15.78-28,22.58,2.19,1.19,4.3,1.9,6.36,3.34,6.25,4.37,8.65,10.28,8.82,17.8,2.17-3.27,4.44-6.92,7.69-9.22.99-.7,2.37-.88,3.1-1.93-3.31-3.74-9.63-7.98-6.62-13.8,2.02-3.9,8.05-2.2,11.41-.96,6.68,2.47,12.51,7.86,16.15,13.91.85,1.41,3.24,6.05,3.2,7.44-.26,7.26-6.81,3.81-10.62,1.86s-7.13-4.42-10.67-6.57c-7.72,1.67-12.45,11.61-15.62,18.24-2.83,5.9-2.68,8.89-8.4,13.21-7.5,5.68-16.46,6.22-23.61-.4-.64-.59-3.3-3.63-3.09-4.35,1.86-2.31,3.52,1.41,4.81,2.63,6.42,6.07,13.62,5.34,20.37.29,3.17-2.37,4.58-4.34,6.17-7.93,4.32-9.75,5.68-20.24-3.53-27.58-1.61-1.28-6.88-4.46-8.83-4.2-.87.12-6.34,3.75-7.74,4.49-11.19,5.92-24.99,11.3-37.5,6.16-3.36-1.38-4.6-2.96-4.5-6.81.34-13.25,17.67-30.78,27.91-38.17,13.84-10,44.5-21.98,61.44-19.2,3.83.63,6.6,2.17,7.61,6.17.59,2.35.18,4.29-.74,6.49-1.65,3.93-11.98,13.15-15.59,16.52ZM45.03,110.53c21.11-19.82,56.69-46.28,85.22-52.44,1.06-.23,3.67.19,4.11-1.23.89-2.91-3.22-2.14-4.77-1.94-15.96,2.1-37.96,15.73-51.35,24.76-10.07,6.8-20.98,14.75-30.03,22.83-.97.87-6.6,6.21-6.77,6.78s-.11,1.99.49,2.27c1.32.61,2.15-.15,3.1-1.04ZM134.2,112.72c-4.19-4.1-15.98-13.27-21.4-14.78-1.57-.44-2.2.61-.94,1.57,8.2,4.16,17.71,9.6,23.64,16.76,1.15,1.39,1.78,2.94,2.97,4.24,1.32.1,1.1-.93.7-1.95-.78-1.97-3.44-4.34-4.97-5.83Z"/>
      <path class="cls-2" d="M143.23,107.92c-4.53-7.81-11.69-13.98-20.25-17.02l-7.06-1.71c3.44-2.88,6.93-5.82,10.19-8.92,4.02-3.83,12.58-11.68,13.84-16.85.2-.83.65-4.58.56-6.23,2.81-17.98-25.77-13.28-25.77-13.28,0,0-6,1.15-7.63,1.84-2.41.55-4.5,1.08-5.66,1.4-24.23,6.65-45.56,18.18-60.14,39.15-3.84,5.52-8.54,13.03-7.13,19.96l-.94-.94c-.23,3.08.17,5.86,1.56,8.62,2.19,4.34,6.37,5.24,10.56,6.46.69.64,9.53,1.97,11.36,2.04.24,0,.6-.03,1.03-.1,11.36-1.25,21.69-6.78,31.16-12.89,9.65,3.14,10.78,10.65,7.92,19.52-1.8,5.58-5.03,11.39-11.52,12.28-7.71,1.06-8.59-7.82-14.63-7.76-6,.06-8.82,5.55-5.62,10.63,6.63,10.54,20.08,13.46,30.83,7.39,12.12-6.84,11.98-16.73,18.85-27.19,1.24-1.9,2.53-3.73,4.62-4.78,6.79,3.56,19.38,14.31,25.52,4.54,3.71-5.91,1.53-10.71-1.63-16.16ZM143.65,122.23c-3.81,7.16-10.99,2.58-16.14-.16-1.68-.89-3.4-1.84-5.05-2.78-.82-.47-1.95-1.64-2.8-1.93-1.57-.54-5.61,4.36-6.5,5.7-1.7,2.56-4.11,6.82-5.44,9.59-1.79,3.75-2.55,7.97-5.46,11.14-8.31,9.05-20.78,12.4-30.97,4.1-2.89-2.36-8.64-8.61-3.52-11.65,5.77-3.42,8.26,6,14.24,6.87,12,1.76,19.05-13.27,18.24-23.25-.53-6.49-5.54-11.29-11.66-12.64-7.91,4.84-16.09,9.9-25.23,12.07-1.42.34-2.88.51-4.33.69h0c-4.56.12-8.9-.64-12-1.39-5.05-1.62-10.83-2.07-11.84-8.85-2.04-13.63,14.27-32.02,24.2-40.16,15.65-12.82,39.96-22.12,60.1-24.12,6.79-.4,11.24.6,14.17,2.13.94.79,2,1.56,2.75,2.59,1.2,1.64,1.4,2.54,2.6,4.03.06.32,0,.85,0,.85,0,0-.14.38-.15.46l-.08.27v3.09c-.18,1.2-.38,2.64-.54,3.96-2.04,5.23-9.32,11.89-12.61,15.04-4.44,4.26-9.79,9.43-15.01,12.24-4.35,2.34-3.82,3.67-6.43,6.73-.63.74-5.19,3.57-5.18,3.89,2.99,2.21,6.18,4.97,8.08,8.2.39.66,1.4,4.03,2.25,3.54l1.45-1.89c-3.74-4.45-7.45-9.38-3.46-15,3.58-5.03,7.99-4.73,13.53-3.24,9.9,2.66,18.57,11.36,22.67,20.55,1.54,3.47,2,5.74.11,9.3ZM104.65,103.43l-3.13-2.36c-.15-.62,2.56-2.63,2.82-2.34l.31,4.69Z"/>
    </g>
  </g>
</svg>