<?xml version="1.0" encoding="UTF-8"?>
<svg id="_レイヤー_2" data-name="レイヤー 2" xmlns="http://www.w3.org/2000/svg" viewBox="0 0 180 180">
  <defs>
    <style>
      .cls-1 {
        fill: #fff;
      }

      .cls-2 {
        fill: none;
      }

      .cls-3 {
        fill: #3e3a39;
      }
    </style>
  </defs>
  <g id="_レイヤー_1-2" data-name="レイヤー 1">
    <g>
      <g>
        <path class="cls-3" d="M90,0L12.06,45v90l77.94,45,77.94-45V45L90,0ZM23.28,51.48L90,12.96l66.72,38.52v77.04l-66.72,38.52-66.72-38.52V51.48Z"/>
        <rect class="cls-2" width="180" height="180"/>
        <g>
          <path class="cls-2" d="M119.76,41.65c.64.59.92,3.48,1.29,4.5,1.16,3.13,4.18,3.99,7.2,4.25.32.03.57-.14.84-.12,1.35.1,2.64.23,2.86,1.83.4,2.96-.83,4.55,1.42,7.38,2.06,2.59,3.99,1.82,6.37,3.02,1.91.97.27,3.5-.11,5.03-.78,3.18.07,5.57,2.69,7.48,1.07.78,3.49,1.58,3.24,3.14-.4,2.48-3.23,3.78-2.9,7.37.28,2.99,2.66,4.05,3.79,6.18s-1.66,3.44-2.99,4.74c-1.51,1.48-1.89,3.27-1.68,5.35.19,1.88,2.52,4.35,2.19,6.01-.21,1.06-4.17,2.6-5.2,3.45-1.52,1.26-2.08,2.96-1.98,4.91.12,2.29,1.99,6.11-1.89,6.07-.89-3.4-2.09-6.72-3.47-9.95-1.63-3.82-3.81-7.51-5.37-11.34-1.85-4.53-1.58-9.56-2.19-14.37-.66-5.24-2.03-10.68-4.36-15.42,6.17-3.41,8.31-10.88,4.21-16.83-3.04-4.41-7.82-5.94-13.02-4.72-3.81.9-6.25,3.95-8.01,7.24-1.48-.11-2.92-.61-4.4-.84-7.36-1.19-14.68-.86-21.89,1.01-1.61-3.69-4.74-6.76-8.8-7.55-4.35-.85-8.72.4-11.5,3.9-4.85,6.11-3.08,14.22,3.74,17.81-2.69,5.45-3.8,11.52-4.46,17.53-.25,2.34-.29,4.74-.56,7.08-.65,5.67-4.41,11.21-6.65,16.51-1.36,3.23-2.58,6.55-3.46,9.95-3.38.03-1.73-3.49-1.6-5.49.2-3.05-.96-5.31-3.66-6.75-1.18-.63-4.1-1.25-3.61-3.15.27-1.04,1.43-2.75,1.87-3.86.8-2.04.56-4.38-.83-6.11-.74-.92-3.51-2.75-3.71-3.62-.38-1.69,2.32-3.75,3.17-5.13,1.05-1.72,1.2-3.56.54-5.47s-3.74-4.25-1.76-6.01c1.74-1.55,3.61-1.74,4.88-4.21,1.83-3.54-.45-5.23-.56-8.19-.08-2.16,3.25-2.22,4.75-2.87,2.17-.94,3.58-2.97,3.76-5.32.11-1.36-.38-4.16.58-5.14.82-.83,3.51-.49,4.76-.66,2.95-.41,5.23-2.03,6.04-4.95.29-1.04.29-3.28,1.28-3.85,1.11-.64,4.13.52,5.57.6,2.98.17,4.83-.81,6.45-3.24.53-.81,1.35-2.96,2.37-3.06,1.25-.12,3.42,1.7,4.78,2.1,2.99.87,5.53-.02,7.74-2.02.49-.45.79-1.07,1.33-1.46,2.09-1.51,2.99.81,4.31,1.97,2.12,1.87,5.13,2.26,7.74,1.28,1.69-.63,3.67-2.95,5.15-1.12,1.27,1.56,1.46,3.33,3.47,4.59,2.9,1.81,4.97.68,7.87.27.75-.11,1.74-.25,2.34.3Z"/>
          <path class="cls-3" d="M93.51,30.51c1.01,1.07,1.96,3.56,3.64,3.76,3.83.47,5.49-4.17,9.71-2.82,3.2,1.02,2.6,5.27,5.07,6.51,3.35,1.67,6.81-2.75,10.22.04,2.56,2.1,1.37,6.14,3.44,7.84,2.34,1.93,6.39-.65,8.94,2.35,2.39,2.82.2,6.7,2.06,8.93,1.62,1.94,5.11,1.04,7.1,3.61,1.39,1.79,1.09,3.19.52,5.2-.72,2.53-2.21,4.02.38,6.07s6.04,2.18,5.2,6.69c-.52,2.79-4.81,5-2.34,8.34,1.46,1.98,3.87,3.12,3.57,6.07-.38,3.69-4.7,4.54-5.35,7.28-.08.33.11,1.33.22,1.69.68,2.25,2.65,3.75,2.02,6.55-.92,4.1-6.32,3.48-7.11,6.82-.61,2.55,1.37,4.55.24,7.57-1.64,4.37-7.26,1.68-8.74,5.48-1.17,2.98.67,5.8-2.46,8.25s-6.16-.48-9.06,1.49c-2.95,2.01-1.12,7.29-6.1,8.12-2.34.39-3.45-.49-5.46-1.15-1.57-.51-2.27-.78-3.81.08-2.43,1.35-2.65,4.55-5.59,5.41-4.44,1.3-5.88-3.42-9.4-3.55-3.94-.14-5.47,4.95-10.16,3.57-2.91-.85-3.13-4.7-6.12-5.76s-5.72,2.28-9.27,1.21c-4.73-1.43-2.59-7-6.22-8.29-2.74-.98-5.97.74-8.46-1.22-3.38-2.66-.37-7.92-3.77-9.86-2.23-1.27-5.12-.3-6.92-2.76-2.37-3.24.54-5.84-.29-8.66-.83-2.83-6.56-3.05-7.18-6.75-.49-2.91,1.37-4.37,2.08-6.79.96-3.25-3.42-4.52-4.59-6.97-1.89-3.95,1.45-5.5,3.12-8.13,2.18-3.42-2.15-5.59-2.54-8.58-.73-5.52,6.86-4.46,6.72-8.77-.1-3.08-2.89-5.04-.46-8.55,2.13-3.07,7.33-1.42,7.79-5.41.37-3.18-.64-7.52,3.67-8.64,2.06-.54,3.88.39,6.06-.54,3.41-1.45,1.24-6.71,4.66-8.68,3.11-1.79,6.27,1.68,9.33.53s1.99-6.27,5.87-6.88,5.38,3.28,8.77,3.05c2.46-.17,2.91-2.52,4.41-3.95,1.87-1.78,4.83-1.7,6.6.18ZM119.76,41.65c-.6-.55-1.59-.41-2.34-.3-2.9.42-4.97,1.54-7.87-.27-2.01-1.26-2.21-3.03-3.47-4.59-1.48-1.83-3.47.49-5.15,1.12-2.61.98-5.62.59-7.74-1.28-1.32-1.16-2.22-3.48-4.31-1.97-.54.39-.83,1.01-1.33,1.46-2.21,2-4.75,2.89-7.74,2.02-1.36-.39-3.53-2.22-4.78-2.1-1.02.1-1.84,2.26-2.37,3.06-1.61,2.44-3.46,3.41-6.45,3.24-1.44-.08-4.46-1.24-5.57-.6-.99.57-.99,2.8-1.28,3.85-.81,2.93-3.09,4.54-6.04,4.95-1.25.17-3.94-.17-4.76.66-.96.98-.47,3.78-.58,5.14-.19,2.35-1.6,4.39-3.76,5.32-1.5.65-4.83.71-4.75,2.87.11,2.96,2.4,4.65.56,8.19-1.28,2.46-3.14,2.66-4.88,4.21-1.98,1.76,1.13,4.18,1.76,6.01s.51,3.75-.54,5.47c-.84,1.38-3.55,3.44-3.17,5.13.2.87,2.97,2.7,3.71,3.62,1.4,1.73,1.63,4.08.83,6.11-.44,1.11-1.6,2.82-1.87,3.86-.49,1.9,2.42,2.52,3.61,3.15,2.69,1.44,3.86,3.7,3.66,6.75-.13,2-1.77,5.52,1.6,5.49.88-3.4,2.1-6.72,3.46-9.95,2.24-5.29,5.99-10.84,6.65-16.51.27-2.34.3-4.74.56-7.08.65-6.01,1.77-12.09,4.46-17.53-6.81-3.59-8.58-11.7-3.74-17.81,2.78-3.5,7.15-4.75,11.5-3.9,4.06.8,7.19,3.86,8.8,7.55,7.21-1.86,14.54-2.2,21.89-1.01,1.47.24,2.92.73,4.4.84,1.76-3.29,4.2-6.34,8.01-7.24,5.21-1.22,9.99.3,13.02,4.72,4.1,5.95,1.96,13.42-4.21,16.83,2.33,4.73,3.7,10.18,4.36,15.42.61,4.82.34,9.84,2.19,14.37,1.56,3.83,3.74,7.52,5.37,11.34,1.38,3.23,2.57,6.55,3.47,9.95,3.88.04,2.01-3.78,1.89-6.07-.1-1.95.46-3.65,1.98-4.91,1.03-.85,4.99-2.39,5.2-3.45.33-1.66-2-4.13-2.19-6.01-.21-2.08.17-3.87,1.68-5.35,1.33-1.3,4.15-2.53,2.99-4.74s-3.51-3.19-3.79-6.18c-.33-3.58,2.5-4.89,2.9-7.37.25-1.56-2.17-2.36-3.24-3.14-2.62-1.91-3.48-4.3-2.69-7.48.38-1.53,2.02-4.06.11-5.03-2.37-1.2-4.31-.43-6.37-3.02-2.25-2.83-1.02-4.42-1.42-7.38-.22-1.6-1.51-1.73-2.86-1.83-.27-.02-.53.15-.84.12-3.02-.26-6.05-1.11-7.2-4.25-.38-1.02-.65-3.91-1.29-4.5ZM96.45,83.58c-10.08-10.79-21.89,7.2-16.28,15.48,4.36,6.44,18.16,5.61,20.22-2.63,1.02-4.09-1.12-9.83-3.94-12.85ZM69.46,114.53c3.64,4.8,9.13,9.64,14.3,12.75,3.18,1.92,5.25,3.29,8.98,1.68,5.95-2.58,17.05-12.34,19.72-18.25.61-1.35,1.23-3.81-1.04-3.39-4.64,2.52-9.43,5.22-14.6,6.51-8.52,2.13-15.74.12-23.39-3.64-1.58-.78-3.6-2.22-5.12-2.79-.57-.21-1.08-.34-1.51.17-1.37,1.64,1.62,5.59,2.66,6.96Z"/>
          <path class="cls-1" d="M69.46,114.53c-1.04-1.37-4.03-5.32-2.66-6.96.43-.51.94-.38,1.51-.17,1.52.57,3.55,2.02,5.12,2.79,7.66,3.76,14.87,5.78,23.39,3.64,5.17-1.3,9.96-4,14.6-6.51,2.27-.42,1.65,2.04,1.04,3.39-2.67,5.91-13.77,15.67-19.72,18.25-3.73,1.62-5.8.24-8.98-1.68-5.16-3.11-10.65-7.95-14.3-12.75Z"/>
          <g>
            <path class="cls-1" d="M96.45,83.58c2.82,3.02,4.96,8.76,3.94,12.85-2.06,8.24-15.86,9.07-20.22,2.63-5.61-8.28,6.21-26.27,16.28-15.48ZM91.37,94.53c1.63.18,3.07-2.23,3.22-3.59.45-4.05-3.32-3.75-6.24-3.6-3.18.17-4.62,1.54-3.32,4.8.67,1.68,1.36,2.1,3.11,2.48-.19.71-.07,1.7-.74,2.19-.72.52-1.39,0-2.08.1-1.2.17-1.71,1.52-.91,2.45,1.08,1.26,4.42.74,5.41-.57,1.22,1.48,6.07,1.59,5.61-1.07-.33-1.94-2.7-.6-3.53-1.12-.39-.25-.48-1.58-.54-2.06Z"/>
            <path class="cls-3" d="M91.37,94.53c.06.48.15,1.81.54,2.06.83.52,3.2-.81,3.53,1.12.46,2.65-4.38,2.54-5.61,1.07-.99,1.31-4.34,1.83-5.41.57-.8-.93-.29-2.28.91-2.45.69-.1,1.36.42,2.08-.1.67-.49.55-1.48.74-2.19-1.76-.38-2.44-.8-3.11-2.48-1.31-3.26.14-4.63,3.32-4.8,2.92-.15,6.69-.45,6.24,3.6-.15,1.36-1.59,3.78-3.22,3.59Z"/>
          </g>
          <circle class="cls-1" cx="77.11" cy="78.99" r="2.58"/>
          <circle class="cls-1" cx="101.48" cy="78.99" r="2.58"/>
        </g>
      </g>
      <path class="cls-1" d="M63.94,53.65h0c4.03,0,7.31,3.28,7.31,7.31v1.75c0,1.05-.86,1.91-1.91,1.91h-10.8c-1.05,0-1.91-.86-1.91-1.91v-1.75c0-4.03,3.28-7.31,7.31-7.31Z" transform="translate(-23.06 55.03) rotate(-40.06)"/>
      <path class="cls-1" d="M110.41,53.65h10.8c1.05,0,1.91.86,1.91,1.91v1.75c0,4.03-3.28,7.31-7.31,7.31h0c-4.03,0-7.31-3.28-7.31-7.31v-1.75c0-1.05.86-1.91,1.91-1.91Z" transform="translate(166.39 178.94) rotate(-139.94)"/>
    </g>
  </g>
</svg>