<?xml version="1.0" encoding="UTF-8"?>
<svg id="_レイヤー_2" data-name="レイヤー 2" xmlns="http://www.w3.org/2000/svg" viewBox="0 0 180 180">
  <defs>
    <style>
      .cls-1 {
        fill: none;
      }

      .cls-2 {
        fill: #b5b5b6;
      }

      .cls-3 {
        fill: #c9caca;
      }
    </style>
  </defs>
  <g id="_レイヤー_1-2" data-name="レイヤー 1">
    <g>
      <path class="cls-2" d="M90,0L12.06,45v90l77.94,45,77.94-45V45L90,0ZM23.28,51.48L90,12.96l66.72,38.52v77.04l-66.72,38.52-66.72-38.52V51.48Z"/>
      <g>
        <g>
          <path class="cls-3" d="M85.79,85.3c.72-1.35,2.04-4.02,3.48-1.66,1.03,1.7,3.04,5.6,3.71,7.43.34.92.26,1.59-.84,1.73-2.72-.69-5.9-.77-8.58-1.47-2.34-.61-.17-2.61.45-3.78l-38.92-27.15c-1.44-.97-.71-2.95,1.01-2.67l39.68,27.55Z"/>
          <g>
            <g>
              <path class="cls-3" d="M70.67,121.59c-1.08.17-2-.32-2.31-1.39.17-2.43-.25-5.21,0-7.6.15-1.45,1.64-3.2,3.14-3.37,1.38-.16,5.02-.16,6.4,0,1.69.19,3.07,2.1,3.24,3.71s.18,5.25.01,6.83c-.13,1.18-1.17,1.88-2.32,1.71l-.18,8.03c-.43,1-1.16,1.42-2.25,1.18-2.12-.45-1.24-4.46-1.43-6.02h-.55v4.14c0,.06-.16.7-.19.8-.55,1.5-2.63,1.57-3.32.18-.05-.1-.24-.59-.24-.64v-7.56Z"/>
              <circle class="cls-3" cx="74.67" cy="103.19" r="4.76"/>
            </g>
            <g>
              <path class="cls-3" d="M62.51,112.87l-.82,15.34c-.52,2.58-4.25,3.06-5.41.77-1.7,2.53-5.27,1.74-5.57-1.38-.44-4.63-.26-9.48-.66-14.12-.02-.21-.11-.4-.11-.61-1.74.4-3.13-1-3.2-2.7.2-3.64-.25-7.54,0-11.15.2-2.85,2.21-5.93,5.25-6.23,2.05-.2,6.44-.2,8.49,0,2.92.28,5.14,3.33,5.35,6.12.28,3.73-.2,7.8-.01,11.57-.27,1.63-1.66,2.61-3.3,2.38Z"/>
              <circle class="cls-3" cx="56.25" cy="84.72" r="6.23"/>
            </g>
          </g>
        </g>
        <path class="cls-3" d="M45.71,133.53l38.84.05c1.57.73,1.12,2.71-.58,2.8h-37.74c-1.82.03-2.26-2.31-.52-2.85Z"/>
        <g>
          <path class="cls-3" d="M132.78,125.56c-.07,2.07.09,4.17,0,6.24-.02.59-.05,1.64-.14,2.18-.35,2.09-3.76,2.17-4.14-.11-.08-.47-.12-1.34-.14-1.84-.1-2.14-.02-4.32-.11-6.46h-1.88v7.89s-.21.65-.25.74c-.87,1.89-3.79,1.47-4.04-.65-.07-.55-.1-1.39-.13-1.97-.08-2-.03-4.02-.11-6.02h-2.04c-.47,0-1.1-.68-1.16-1.16-.13-1.12.05-3,.11-4.19.24-4.61.76-7.74.09-12.45-.3-2.08-1.3-5.47-1.07-7.4.14-1.19.71-.95,1.61-1.37,2.46-1.15,4.07-2.85,4.74-5.54,7.06,1,10.12,8.26,11.06,14.53.81,5.43.33,11.04.45,16.52,0,.41-.81,1.05-1.15,1.05h-1.71Z"/>
          <g>
            <path class="cls-3" d="M109.95,122.03l-1.7,1.88c-.23.29-.36.63-.45.98-.65,2.55-.65,5.78-1.17,8.43-.17.85-.51,1.6-1.36,1.95-1.55.64-2.9-.29-3.04-1.93s.21-4.4.34-6.07c.14-1.78.11-4.54,1.05-6.01l4.44-5.48-2.08-6.44-2.59,3.64c-1.91,2.11-5.1,1.13-7.61,1.27-.83.05-1.38.98-1.38,1.76v18.75c-.47,1.43-2.62,1.33-2.97-.11v-19.08c.05-1.73,1.04-3.44,2.62-4.21,2.1-1.03,4.71.05,6.25-2.14,1.12-1.59,1.96-3.77,3.11-5.28.39-.51,1.01-.95,1.43-1.44.71-.84,1.26-1.81,1.56-2.88,4.45-.18,7.23,4.11,8.85,7.69,1.07,2.37,1.81,5.06,1.55,7.69-.29,2.88-2.3,6.61-1.94,9.47.32,2.53,1.78,5.64,2.06,8.2.33,2.99-3.08,4-4.29,1.09-.86-2.07-2.2-6.08-2.68-8.24-.27-1.22-.24-2.3.03-3.51Z"/>
            <g>
              <path class="cls-3" d="M117.42,79.03c2.79-.47,5.3,1.7,5.09,4.54-.07.96-.5,1.51-1.08,2.2,3.14,3.77,2.04,9.6-2.58,11.56-3.64,1.54-7.46.33-9.43-3.08-2.53-4.38-.1-9.86,4.79-10.95-.22-1.87,1.38-3.97,3.22-4.28Z"/>
              <path class="cls-3" d="M98.78,92.83c8.36-1.13,8.34,9.55,1.38,10.75-7.64,1.32-8.3-9.82-1.38-10.75Z"/>
            </g>
          </g>
        </g>
        <g>
          <path class="cls-3" d="M134.19,59.08c0,8.54-6.92,15.46-15.46,15.46s-15.46-6.92-15.46-15.46,6.92-15.46,15.46-15.46,15.46,6.92,15.46,15.46ZM131.45,59.07c0-7.03-5.7-12.73-12.73-12.73s-12.73,5.7-12.73,12.73,5.7,12.73,12.73,12.73,12.73-5.7,12.73-12.73Z"/>
          <path class="cls-1" d="M131.45,59.07c0,7.03-5.7,12.73-12.73,12.73s-12.73-5.7-12.73-12.73,5.7-12.73,12.73-12.73,12.73,5.7,12.73,12.73ZM124.64,52.88s.44-.16.65-.4c.67-.78.29-1.94-.73-2.14-3.65.24-7.77-.35-11.36-.01-.87.08-1.52.72-1.28,1.62.21.78.93.9,1,1.11.1.31.07,1.21.18,1.7.47,2.16,2.52,3.32,4.14,4.57-1.65,1.31-3.66,2.74-4.14,4.9-.07.3-.05,1.13-.18,1.3-.12.17-.8.27-.94.88-.3,1.32.56,1.71,1.68,1.8,3.34.26,7.01-.21,10.38,0,1.04-.05,1.84-.64,1.54-1.77-.2-.75-.95-.77-1.03-.9-.04-.07-.1-1.19-.18-1.53-.51-2.05-2.49-3.42-4.03-4.69l2.43-1.98c.65-.72,1.32-1.42,1.6-2.37.13-.43.24-1.99.29-2.08Z"/>
          <path class="cls-2" d="M124.64,52.88c-.06.09-.17,1.65-.29,2.08-.28.96-.95,1.66-1.6,2.37l-2.43,1.98c1.54,1.27,3.52,2.64,4.03,4.69.08.34.14,1.46.18,1.53.08.13.84.15,1.03.9.3,1.13-.5,1.72-1.54,1.77-3.37-.21-7.04.26-10.38,0-1.12-.09-1.99-.49-1.68-1.8.14-.61.82-.71.94-.88.13-.18.12-1.01.18-1.3.48-2.16,2.49-3.6,4.14-4.9-1.62-1.25-3.67-2.41-4.14-4.57-.11-.48-.08-1.39-.18-1.7-.07-.21-.79-.32-1-1.11-.24-.9.41-1.54,1.28-1.62,3.59-.34,7.71.26,11.36.01,1.02.2,1.39,1.36.73,2.14-.2.24-.63.37-.65.4Z"/>
        </g>
      </g>
      <rect class="cls-1" width="180" height="180"/>
    </g>
  </g>
</svg>