<?xml version="1.0" encoding="UTF-8"?>
<svg id="_レイヤー_2" data-name="レイヤー 2" xmlns="http://www.w3.org/2000/svg" viewBox="0 0 180 180">
  <defs>
    <style>
      .cls-1 {
        fill: none;
      }

      .cls-2 {
        fill: #e83e11;
      }

      .cls-3 {
        fill: #db3f17;
      }
    </style>
  </defs>
  <g id="_レイヤー_1-2" data-name="レイヤー 1">
    <g>
      <path class="cls-3" d="M90,0L12.06,45v90l77.94,45,77.94-45V45L90,0ZM23.28,51.48L90,12.96l66.72,38.52v77.04l-66.72,38.52-66.72-38.52V51.48Z"/>
      <rect class="cls-1" width="180" height="180"/>
    </g>
    <g>
      <path class="cls-2" d="M141.91,96.44c-.74-2.12-2.8-4.56-4.3-6.02-3.56-3.46-7.4-5.18-9.28-6.19-1.4-.84-3.17-.33-3.98,1.14-.8,1.46-.27,3.26,1.08,4.18,8.88,6.06,10.35,13.33,3.92,20.91-1.92,2.26-4.49,4.06-8.25,6.17-6.16,3.45-18.88,6.49-31.1,6.47-12.22.02-24.94-3.02-31.1-6.47-3.76-2.11-6.33-3.9-8.25-6.17-6.43-7.58-4.96-14.85,3.93-20.91,1.35-.92,1.88-2.71,1.08-4.18-.8-1.47-2.58-1.98-3.97-1.14-1.88,1.01-5.72,2.74-9.28,6.19-1.51,1.46-3.56,3.9-4.3,6.02-.74,2.11-1.17,4.42-1.17,6.83s.47,4.93,1.32,7.2c1.5,3.98,4.1,7.43,7.37,10.37,4.93,4.42,11.44,7.82,19,10.2,7.56,2.37,16.2,3.7,25.37,3.7s17.81-1.32,25.37-3.7c7.56-2.38,14.07-5.78,19-10.2,3.27-2.95,5.88-6.39,7.37-10.37.86-2.27,1.32-4.71,1.32-7.2,0-2.41-.42-4.72-1.16-6.83Z"/>
      <path class="cls-2" d="M86.58,102.04c1.46,3.23,3.31,5.34,4.72,6.48,1.43,1.14,2.57,1.51,3.45,1.01.89-.5,1.08-1.76.75-3.53-.33-1.78-1.07-3.91-1.58-6.46-.52-2.53-.87-5.78-.87-9.4.01-1.77.15-3.54.51-5.3.35-1.77.95-3.53,1.77-5.7.82-2.16,1.7-4.72,2.13-7.26.45-2.55.52-5.02.4-7.27-.28-4.44-1.15-8.4-2.61-11.64-1.45-3.23-3.31-5.34-4.72-6.48-1.43-1.14-2.57-1.51-3.45-1.01-.89.5-1.07,1.76-.74,3.53.33,1.78,1.07,3.91,1.58,6.46.52,2.52.87,5.78.87,9.39-.01,1.77-.15,3.54-.51,5.3-.35,1.77-.95,3.53-1.78,5.7-.82,2.17-1.7,4.72-2.13,7.27-.45,2.55-.53,5.02-.4,7.27.27,4.44,1.15,8.4,2.61,11.64Z"/>
      <path class="cls-2" d="M105.15,94.66c.43,1.79,1.02,3.47,1.75,4.92,1.47,2.93,3.3,4.73,4.66,5.65,1.39.92,2.49,1.15,3.35.61s1.04-1.73.72-3.33c-.31-1.61-1.02-3.48-1.47-5.66-.47-2.15-.78-4.98-.74-8.1.03-1.53.19-3.02.54-4.5.36-1.49.95-2.97,1.78-4.88.82-1.89,1.75-4.19,2.24-6.54.51-2.35.62-4.65.52-6.72-.11-2.08-.39-3.94-.81-5.75-.43-1.79-1.02-3.47-1.75-4.91-1.47-2.93-3.3-4.74-4.66-5.65-1.39-.92-2.49-1.15-3.35-.61s-1.04,1.73-.72,3.33c.32,1.61,1.02,3.48,1.48,5.66.47,2.15.78,4.98.74,8.1-.04,1.53-.19,3.02-.55,4.5-.36,1.49-.95,2.97-1.78,4.89-.83,1.89-1.76,4.19-2.24,6.54-.51,2.35-.62,4.65-.52,6.72.11,2.08.39,3.94.82,5.75Z"/>
      <path class="cls-2" d="M63.8,94.66c.43,1.79,1.02,3.47,1.76,4.92,1.47,2.93,3.3,4.73,4.66,5.65,1.39.92,2.49,1.15,3.34.61.86-.54,1.04-1.73.72-3.33-.31-1.61-1.02-3.48-1.48-5.66-.47-2.15-.78-4.98-.74-8.1.04-1.53.19-3.02.55-4.5.35-1.49.94-2.97,1.78-4.88.83-1.89,1.75-4.19,2.24-6.54.51-2.35.63-4.65.52-6.72-.11-2.08-.39-3.94-.81-5.75-.43-1.79-1.03-3.47-1.76-4.91-1.47-2.93-3.3-4.74-4.66-5.66-1.39-.92-2.49-1.14-3.35-.6-.86.54-1.04,1.73-.71,3.33.31,1.61,1.01,3.48,1.47,5.66.47,2.15.78,4.98.74,8.1-.04,1.53-.19,3.02-.55,4.5-.36,1.49-.95,2.97-1.78,4.89-.82,1.89-1.75,4.19-2.24,6.54-.5,2.35-.62,4.65-.51,6.72.11,2.08.39,3.94.81,5.75Z"/>
    </g>
  </g>
</svg>